<svg width="140" height="60" viewBox="0 0 140 60" fill="none" xmlns="http://www.w3.org/2000/svg">
<rect width="140" height="60" rx="5" fill="#D22D2F"/>
<path d="M22.7947 39.5095L22.2359 39.6329H18.5087C18.1361 39.6329 17.9498 39.448 18.0117 39.1395L21.0557 26.3093C21.2034 25.666 21.433 25.0441 21.7389 24.4585C22.0552 23.8557 22.4759 23.3128 22.9816 22.8547C23.507 22.3764 24.118 22 24.7829 21.7449C25.5771 21.4458 26.4211 21.2993 27.2703 21.3129H35.2809L35.6535 21.4364C35.7154 21.4979 35.7154 21.6834 35.5915 21.9913L34.9083 24.9519C34.8877 25.1102 34.8232 25.2597 34.7221 25.3839L34.2871 25.5074H27.8265L26.957 25.6309L26.3981 26.0008C26.264 26.1442 26.1586 26.3116 26.0875 26.4942L25.9012 26.9876L25.4662 28.5914H32.4237L32.7963 28.7149C32.8582 28.7764 32.8582 28.9619 32.7344 29.2698L32.1131 31.984C31.9887 32.3539 31.8024 32.6009 31.4918 32.6009H24.5342L22.9816 39.078C22.9608 39.2363 22.8964 39.3858 22.7952 39.5099" fill="white"/>
<path d="M51.4323 30.4422C51.1142 31.8094 50.6346 33.1346 50.0035 34.3902C49.4572 35.4947 48.7216 36.4965 47.8295 37.3507C46.9559 38.1865 45.9202 38.8371 44.7854 39.263C43.5113 39.7227 42.1646 39.9525 40.809 39.9414C39.598 39.9865 38.3912 39.7763 37.268 39.3245C36.3862 38.9422 35.6475 38.2949 35.1559 37.4737C34.6473 36.5672 34.37 35.5507 34.3483 34.5131C34.3134 33.1837 34.4597 31.8556 34.7834 30.5652C35.0846 29.2128 35.5651 27.9061 36.2122 26.6792C36.8016 25.5322 37.5782 24.49 38.5106 23.5951C39.3925 22.7696 40.4261 22.1203 41.5551 21.6829C42.7442 21.2285 44.0083 20.9982 45.2824 21.0039C46.4988 20.9665 47.7084 21.1984 48.8234 21.6829C49.7236 22.0911 50.4806 22.7569 50.9974 23.5951C51.53 24.4951 51.8288 25.5125 51.8668 26.5557C51.9047 27.8648 51.7583 29.1727 51.4318 30.4417L51.4323 30.4422ZM46.2138 30.4417C46.3609 29.7912 46.4647 29.1319 46.5244 28.4679C46.5739 27.9302 46.5318 27.388 46.4 26.8642C46.3008 26.4298 46.0608 26.0397 45.7168 25.7538C45.3045 25.4515 44.8001 25.299 44.288 25.3218C43.7869 25.3158 43.2934 25.4435 42.8591 25.6918C42.3696 25.9955 41.947 26.3942 41.6166 26.8642C41.2418 27.3373 40.9286 27.8555 40.6846 28.4065C40.4201 29.0027 40.2121 29.6221 40.0633 30.2567C39.8832 30.9657 39.7587 31.6873 39.6907 32.4154C39.6336 32.953 39.6757 33.4965 39.8151 34.0192C39.9345 34.4436 40.1979 34.8142 40.5607 35.068C40.9867 35.336 41.4862 35.4653 41.9896 35.438C42.5379 35.4417 43.0763 35.292 43.5429 35.006C44.0021 34.7372 44.4032 34.3807 44.723 33.9571C45.0805 33.4615 45.3726 32.9225 45.5925 32.3534C45.8458 31.7317 46.0535 31.0926 46.2138 30.4411" fill="white"/>
<path d="M85.4741 29.6403C85.8812 29.8271 86.242 30.1009 86.5306 30.4422C86.8006 30.751 87.0114 31.1065 87.1514 31.4911C87.28 31.8897 87.3428 32.3063 87.3378 32.7249C87.3471 33.16 87.3057 33.5947 87.2135 34.0202C87.0135 34.8416 86.6542 35.6166 86.157 36.3024C85.6634 36.9961 85.054 37.601 84.3554 38.0912C83.656 38.5991 82.8809 38.9945 82.0573 39.263C81.2158 39.5411 80.3354 39.6869 79.4484 39.695H72.6146C71.869 39.695 71.4345 39.5715 71.3101 39.263C71.1681 38.8427 71.1681 38.388 71.3101 37.9677L74.7892 23.0402C74.8754 22.5607 75.09 22.1131 75.4105 21.7443C75.8309 21.4114 76.3663 21.2559 76.9013 21.3113H83.7324C84.4654 21.2968 85.1962 21.3799 85.907 21.5583C86.5084 21.7104 87.0628 22.0068 87.5221 22.4217C87.9493 22.8215 88.2515 23.3356 88.3915 23.902C88.5501 24.6156 88.5287 25.3571 88.3293 26.0607C88.1565 26.7857 87.8179 27.4617 87.34 28.0365C86.8642 28.6391 86.2727 29.1423 85.6005 29.5168L85.4741 29.6403ZM78.5783 28.0365H81.3101C81.6772 28.0415 82.0401 27.9567 82.3666 27.7895C82.553 27.6781 82.7123 27.5256 82.8302 27.3438C82.9488 27.162 83.0238 26.9557 83.0495 26.7406C83.1074 26.5882 83.126 26.4239 83.1045 26.2625C83.0831 26.101 83.021 25.9473 82.9252 25.8153C82.8109 25.7054 82.6738 25.6209 82.5238 25.5677C82.3737 25.5145 82.2144 25.4938 82.0559 25.5068H79.1361L78.5783 28.0365ZM82.1194 33.6498C82.1809 33.443 82.1959 33.2255 82.1637 33.0124C82.1316 32.7993 82.0523 32.5957 81.933 32.4159C81.7915 32.2442 81.6108 32.1095 81.4051 32.0234C81.1993 31.9374 80.975 31.9028 80.7529 31.9225H77.649L76.8415 35.3765H79.9474L80.8793 35.1915L81.5008 34.7596C81.6751 34.5994 81.8223 34.412 81.9358 34.2047C82.018 34.0271 82.0809 33.8409 82.1223 33.6498" fill="white"/>
<path d="M101.191 39.6329H93.0534C92.2026 39.6809 91.3525 39.5331 90.5688 39.2009C90.023 38.9527 89.5673 38.5436 89.2644 38.0291C89.0072 37.5339 88.8786 36.9824 88.8915 36.4253C88.8872 35.8444 88.9494 35.2648 89.078 34.698L91.066 26.3092C91.2132 25.6661 91.4432 25.0444 91.7489 24.4589C92.0661 23.8568 92.4869 23.3141 92.9912 22.8551C93.5177 22.3779 94.1285 22.0014 94.7928 21.7448C95.5865 21.4461 96.4294 21.2996 97.2774 21.3128H105.042L105.415 21.4363C105.477 21.4978 105.477 21.6833 105.353 21.9912L104.67 24.9518C104.65 25.1102 104.585 25.2597 104.484 25.3838L104.049 25.5073H97.8367L96.9666 25.6308L96.408 26.0007C96.2737 26.1442 96.1687 26.3116 96.0972 26.4941L95.9115 26.9875L95.6622 28.0979H102.744L103.117 28.2214C103.154 28.4083 103.133 28.6021 103.055 28.7763L102.434 31.4904C102.351 31.9018 102.144 32.1074 101.812 32.1074H94.7307L94.2956 34.0811C94.2213 34.3417 94.2006 34.6143 94.2335 34.883C94.2585 35.053 94.3471 35.2075 94.4821 35.3149L94.9171 35.4999H102.247L102.62 35.6234C102.682 35.6849 102.682 35.8704 102.558 36.1783L101.875 39.1389C101.751 39.5088 101.564 39.7558 101.253 39.7558" fill="white"/>
<path d="M120.883 25.5073H116.41L113.18 39.0774C113.156 39.2349 113.092 39.3837 112.993 39.5094L112.435 39.6329H108.707C108.293 39.6329 108.128 39.4479 108.211 39.078L111.441 25.5078H107.03C106.657 25.5078 106.533 25.3229 106.595 24.8909L107.278 21.9918C107.296 21.7843 107.384 21.5888 107.527 21.4369H122.249C122.311 21.4985 122.311 21.6835 122.249 21.9918L121.566 24.8909C121.55 25.0599 121.472 25.2171 121.345 25.3313C121.219 25.4455 121.054 25.5085 120.883 25.5078" fill="white"/>
<path d="M58.8247 29.7017L56.5882 39.0774C56.5646 39.2349 56.5004 39.3837 56.4019 39.5093L55.8431 39.6328H52.1159C51.6809 39.6328 51.557 39.4479 51.619 39.0779L55.4081 23.4106C55.4956 22.7854 55.7779 22.2031 56.2156 21.7453C56.6876 21.4203 57.2583 21.2676 57.8308 21.3134H59.881L60.3779 21.4983L60.7504 21.8683L61.1231 22.4852L63.5457 28.0984L64.8503 31.306H65.0365L67.273 21.8677C67.2966 21.7102 67.3608 21.5614 67.4593 21.4358L68.0187 21.3117H71.7459C72.1185 21.3117 72.3048 21.4967 72.2428 21.8666L68.5156 37.5356C68.3911 38.0819 68.1346 38.5899 67.7683 39.0159C67.5512 39.2343 67.2885 39.4028 66.9988 39.5093C66.709 39.6159 66.3992 39.6581 66.0913 39.6328H64.0427L63.5457 39.4479L63.1108 39.0779C62.959 38.8901 62.8336 38.6825 62.7382 38.461L60.3779 32.9707L59.0115 29.7017H58.8247Z" fill="white"/>
</svg>
