<svg width="89" height="24" viewBox="0 0 89 24" fill="none" xmlns="http://www.w3.org/2000/svg">
<rect width="89" height="24" rx="3" fill="#1B5685"/>
<path d="M36.5719 8.36225L36.2255 10.4026C35.6601 10.1777 35.0646 10.0303 34.4565 9.96485C34.1536 9.94939 33.8504 9.99158 33.5645 10.089C33.2785 10.1864 33.0155 10.3371 32.7903 10.5325C32.5652 10.7279 32.3825 10.9641 32.2526 11.2275C32.1227 11.4909 32.0483 11.7764 32.0336 12.0675C32.0336 13.6194 33.0348 14.0074 34.1694 13.9567C34.6039 13.9337 35.0299 13.8323 35.4253 13.6577L36.1607 13.4325L36.4839 15.3341L35.8902 15.5548C35.1303 15.8838 34.2998 16.0341 33.4673 15.9935C32.9178 16.0236 32.368 15.9372 31.8571 15.7404C31.3461 15.5436 30.8865 15.2412 30.5108 14.8547C30.1351 14.4681 29.8525 14.0069 29.683 13.5037C29.5135 13.0005 29.4614 12.4677 29.5302 11.943C29.5916 11.3245 29.7841 10.7247 30.0958 10.1803C30.4075 9.636 30.8319 9.15871 31.3427 8.7778C32.1673 8.24591 33.1442 7.97464 34.137 8.00187C34.9578 8.01679 35.7728 8.13801 36.5598 8.36225H36.5719ZM59.2419 8.17983L57.7155 15.8538H60.0578L60.6506 12.8319L62.1769 15.8538H66.5744L69.3205 10.7604L69.6197 13.6657L68.675 13.2777L67.9433 14.6934L69.8975 15.8574H72.1111L70.9802 8.18428H68.4518L64.459 15.2024L62.7465 11.9163L66.4697 8.18428H63.6912L61.0794 10.6936L61.5758 8.18428L59.2419 8.17983ZM51.2703 8.17983L54.1979 8.09441C55.4983 8.06771 56.9524 8.37382 57.408 9.70857C57.5403 10.1084 57.5299 10.5393 57.3786 10.9329C57.2273 11.3264 56.9437 11.6603 56.5726 11.8816C56.836 12.0903 57.0451 12.3553 57.1832 12.6553C57.3213 12.9554 57.3847 13.2822 57.3682 13.6099C57.3518 13.9376 57.256 14.2571 57.0884 14.543C56.9209 14.8289 56.6862 15.0733 56.4031 15.2567C55.5708 15.7876 54.5676 16.0135 53.5765 15.8929L49.8773 15.8538L51.2703 8.17983ZM53.0235 9.91057L52.8096 11.1323H54.2674C54.6712 11.1323 55.1102 11.1323 55.289 10.6821C55.3278 10.5892 55.3404 10.4882 55.3257 10.3892C55.311 10.2902 55.2694 10.1967 55.205 10.118C55.1407 10.0394 55.056 9.97836 54.9593 9.94116C54.8627 9.90397 54.7576 9.89188 54.6545 9.90612L53.0235 9.91057ZM52.2604 13.9762H53.8191C54.3035 13.9762 54.9129 13.8908 55.0306 13.3284C55.0425 13.2518 55.0386 13.1736 55.0191 13.0984C54.9996 13.0232 54.9649 12.9524 54.9169 12.8901C54.8689 12.8278 54.8086 12.7751 54.7394 12.7352C54.6702 12.6953 54.5936 12.6689 54.5138 12.6575H54.5091C54.4608 12.6517 54.412 12.6517 54.3637 12.6575H52.4984L52.2604 13.9923V13.9762ZM45.7345 8.18339L41.3537 15.8538H42.6096C43.6673 15.8111 43.9137 15.5246 44.1035 15.2843C45.0566 13.7662 45.7549 12.3309 46.6024 10.7559L46.8858 13.7084L45.9411 13.3204L45.2057 14.7477L47.435 15.8387H49.4013L48.2621 8.18428L45.7345 8.18339ZM37.4406 8.18339H43.4534L43.0496 10.3181H41.2972L40.1988 15.8538H37.8648L38.9633 10.3297H37.0526L37.4406 8.18339Z" fill="#00C9F7"/>
<path d="M27.9872 15.8502H29.9702L27.0953 11.6875L30.762 8.19581H27.4991L20.2305 15.2175L21.5596 8.17979H19.7628L17 9.91498V11.8815L18.6597 11.1403L18.4337 11.7881C18.179 13.1424 17.9206 14.5039 17.6706 15.8502H23.009L25.218 13.5847L26.1219 14.907C26.3305 15.1974 26.609 15.4351 26.9338 15.6C27.2586 15.7648 27.6199 15.8519 27.9872 15.8538V15.8502ZM23.6786 11.054L21.7522 8.17979H23.9537C24.2638 8.19681 24.567 8.27448 24.8448 8.40806C25.1225 8.54164 25.369 8.72831 25.569 8.95662L25.6986 9.12747L23.6786 11.054Z" fill="white"/>
</svg>
