<svg width="83" height="30" viewBox="0 0 83 30" fill="none" xmlns="http://www.w3.org/2000/svg">
<rect width="83" height="30" rx="3" fill="#1B5685"/>
<path d="M33.5325 11.3623L33.1868 13.4026C32.6226 13.1777 32.0283 13.0303 31.4214 12.9648C31.119 12.9494 30.8165 12.9916 30.5311 13.089C30.2458 13.1864 29.9832 13.3371 29.7585 13.5325C29.5339 13.7279 29.3515 13.9641 29.2219 14.2275C29.0923 14.4909 29.018 14.7764 29.0034 15.0675C29.0034 16.6194 30.0026 17.0074 31.1348 16.9567C31.5684 16.9337 31.9936 16.8323 32.3882 16.6577L33.1221 16.4325L33.4447 18.3341L32.8522 18.5548C32.0938 18.8838 31.2649 19.0341 30.4342 18.9935C29.8857 19.0236 29.3371 18.9372 28.8272 18.7404C28.3173 18.5436 27.8586 18.2412 27.4836 17.8547C27.1086 17.4681 26.8266 17.0069 26.6575 16.5037C26.4884 16.0005 26.4363 15.4677 26.505 14.943C26.5663 14.3245 26.7584 13.7247 27.0695 13.1803C27.3805 12.636 27.804 12.1587 28.3138 11.7778C29.1368 11.2459 30.1117 10.9746 31.1025 11.0019C31.9216 11.0168 32.735 11.138 33.5205 11.3623H33.5325ZM56.1568 11.1798L54.6335 18.8538H56.9711L57.5626 15.8319L59.0859 18.8538H63.4745L66.2151 13.7604L66.5136 16.6657L65.5708 16.2777L64.8406 17.6934L66.7909 18.8574H69L67.8714 11.1843H65.3481L61.3634 18.2024L59.6543 14.9163L63.3701 11.1843H60.5971L57.9906 13.6936L58.486 11.1843L56.1568 11.1798ZM48.2012 11.1798L51.123 11.0944C52.4207 11.0677 53.8719 11.3738 54.3266 12.7086C54.4586 13.1084 54.4483 13.5393 54.2973 13.9329C54.1462 14.3264 53.8632 14.6603 53.4929 14.8816C53.7558 15.0903 53.9644 15.3553 54.1023 15.6553C54.2401 15.9554 54.3033 16.2822 54.2869 16.6099C54.2705 16.9376 54.1749 17.2571 54.0077 17.543C53.8405 17.8289 53.6063 18.0733 53.3238 18.2567C52.4931 18.7876 51.4919 19.0135 50.5028 18.8929L46.8111 18.8538L48.2012 11.1798ZM49.951 12.9106L49.7374 14.1323H51.1923C51.5953 14.1323 52.0334 14.1323 52.2118 13.6821C52.2505 13.5892 52.2632 13.4882 52.2485 13.3892C52.2338 13.2902 52.1923 13.1967 52.1281 13.118C52.0639 13.0394 51.9793 12.9784 51.8829 12.9412C51.7864 12.904 51.6815 12.8919 51.5787 12.9061L49.951 12.9106ZM49.1893 16.9762H50.7449C51.2284 16.9762 51.8366 16.8908 51.9539 16.3284C51.9659 16.2518 51.962 16.1736 51.9425 16.0984C51.9231 16.0232 51.8884 15.9524 51.8405 15.8901C51.7926 15.8278 51.7324 15.7751 51.6634 15.7352C51.5943 15.6953 51.5178 15.6689 51.4382 15.6575H51.4336C51.3854 15.6517 51.3366 15.6517 51.2884 15.6575H49.4269L49.1893 16.9923V16.9762ZM42.6767 11.1834L38.3047 18.8538H39.558C40.6136 18.8111 40.8595 18.5246 41.049 18.2843C42.0001 16.7662 42.697 15.3309 43.5427 13.7559L43.8256 16.7084L42.8828 16.3204L42.1489 17.7477L44.3737 18.8387H46.336L45.1991 11.1843L42.6767 11.1834ZM34.3995 11.1834H40.4001L39.9971 13.3181H38.2483L37.1521 18.8538H34.8228L35.919 13.3297H34.0122L34.3995 11.1834Z" fill="#00C9F7"/>
<path d="M24.9651 18.8502H26.944L24.075 14.6876L27.7343 11.1958H24.478L17.224 18.2175L18.5504 11.1798H16.7572L14 12.915V14.8815L15.6564 14.1403L15.4308 14.7881C15.1766 16.1424 14.9188 17.5039 14.6692 18.8502H19.9969L22.2014 16.5847L23.1035 17.907C23.3117 18.1974 23.5897 18.4352 23.9138 18.6C24.2379 18.7648 24.5985 18.8519 24.9651 18.8538V18.8502ZM20.6652 14.054L18.7426 11.1798H20.9397C21.2492 11.1968 21.5518 11.2745 21.829 11.4081C22.1062 11.5417 22.3521 11.7283 22.5517 11.9566L22.6811 12.1275L20.6652 14.054Z" fill="white"/>
</svg>
