<svg width="85" height="40" viewBox="0 0 85 40" fill="none" xmlns="http://www.w3.org/2000/svg">
<rect width="85" height="40" rx="5" fill="#1B5685"/>
<path d="M33.5998 15.1658L33.1909 17.5821C32.5235 17.3157 31.8204 17.1411 31.1025 17.0636C30.7449 17.0453 30.387 17.0953 30.0494 17.2106C29.7119 17.326 29.4013 17.5045 29.1355 17.7358C28.8697 17.9672 28.654 18.2469 28.5007 18.5589C28.3474 18.8708 28.2595 19.2089 28.2422 19.5536C28.2422 21.3914 29.4241 21.8508 30.7636 21.7908C31.2765 21.7636 31.7795 21.6435 32.2462 21.4367L33.1144 21.1701L33.496 23.422L32.7951 23.6833C31.898 24.0729 30.9175 24.2509 29.9348 24.2028C29.2859 24.2385 28.6369 24.1362 28.0337 23.9031C27.4305 23.67 26.8879 23.3119 26.4444 22.8542C26.0008 22.3965 25.6672 21.8503 25.4671 21.2544C25.2671 20.6585 25.2055 20.0275 25.2867 19.4061C25.3592 18.6737 25.5865 17.9634 25.9545 17.3188C26.3225 16.6742 26.8234 16.109 27.4265 15.6579C28.4 15.028 29.5532 14.7068 30.7253 14.739C31.6943 14.7567 32.6564 14.9003 33.5856 15.1658H33.5998ZM60.363 14.9498L58.5611 24.0374H61.3263L62.0261 20.4588L63.828 24.0374H69.0195L72.2614 18.0057L72.6146 21.4462L71.4993 20.9867L70.6355 22.6633L72.9426 24.0416H75.5558L74.2208 14.955H71.2358L66.5222 23.266L64.5005 19.3745L68.8959 14.955H65.6157L62.5323 17.9266L63.1184 14.955L60.363 14.9498ZM50.9521 14.9498L54.4084 14.8486C55.9435 14.817 57.6601 15.1795 58.1981 16.7601C58.3542 17.2337 58.342 17.7439 58.1633 18.2099C57.9847 18.676 57.6499 19.0714 57.2118 19.3334C57.5228 19.5806 57.7696 19.8944 57.9327 20.2497C58.0957 20.605 58.1705 20.9921 58.1511 21.3802C58.1317 21.7682 58.0186 22.1466 57.8208 22.4851C57.623 22.8237 57.346 23.113 57.0117 23.3303C56.0292 23.959 54.8448 24.2264 53.6747 24.0837L49.3076 24.0374L50.9521 14.9498ZM53.0219 16.9993L52.7693 18.4461H54.4904C54.9671 18.4461 55.4854 18.4461 55.6964 17.9129C55.7422 17.803 55.7571 17.6834 55.7398 17.5662C55.7224 17.4489 55.6732 17.3381 55.5973 17.245C55.5214 17.1518 55.4214 17.0796 55.3073 17.0356C55.1932 16.9915 55.0691 16.9772 54.9474 16.9941L53.0219 16.9993ZM52.121 21.8139H53.9612C54.533 21.8139 55.2525 21.7128 55.3913 21.0468C55.4054 20.956 55.4009 20.8634 55.3778 20.7744C55.3548 20.6853 55.3138 20.6015 55.2571 20.5277C55.2005 20.4539 55.1293 20.3916 55.0476 20.3443C54.9659 20.2971 54.8754 20.2658 54.7812 20.2523H54.7757C54.7187 20.2454 54.6611 20.2454 54.6041 20.2523H52.402L52.121 21.8329V21.8139ZM44.4169 14.954L39.2451 24.0374H40.7277C41.9764 23.9868 42.2672 23.6475 42.4914 23.363C43.6165 21.5653 44.4409 19.8655 45.4414 18.0004L45.776 21.4968L44.6607 21.0373L43.7925 22.7275L46.4243 24.0194H48.7456L47.4007 14.955L44.4169 14.954ZM34.6255 14.954H41.7238L41.2471 17.482H39.1784L37.8816 24.0374H35.1262L36.423 17.4956H34.1673L34.6255 14.954Z" fill="#00C9F7"/>
<path d="M23.4652 24.0331H25.8061L22.4122 19.1036L26.741 14.9687H22.8889L14.3079 23.2839L15.877 14.9497H13.7558L10.4941 17.0045V19.3333L12.4535 18.4556L12.1867 19.2227C11.886 20.8265 11.581 22.4387 11.2858 24.0331H17.5881L20.1959 21.3502L21.263 22.9161C21.5093 23.26 21.8381 23.5416 22.2215 23.7368C22.6049 23.932 23.0316 24.0351 23.4652 24.0373V24.0331ZM18.3787 18.3533L16.1044 14.9497H18.7034C19.0695 14.9699 19.4274 15.0618 19.7553 15.22C20.0832 15.3782 20.3742 15.5993 20.6103 15.8696L20.7634 16.072L18.3787 18.3533Z" fill="white"/>
</svg>
