<svg width="17" height="17" viewBox="0 0 17 17" fill="none" xmlns="http://www.w3.org/2000/svg">
<g opacity="0.8">
<path d="M13.6705 5.60999V9.25792C13.6705 11.4396 12.4239 12.3746 10.5539 12.3746H4.3276C4.00885 12.3746 3.70427 12.3463 3.42093 12.2825C3.24385 12.2542 3.07386 12.2046 2.91802 12.1479C1.85552 11.7513 1.21094 10.8304 1.21094 9.25792V5.60999C1.21094 3.42832 2.4576 2.49335 4.3276 2.49335H10.5539C12.1405 2.49335 13.2809 3.16626 13.5855 4.70334C13.6351 4.98668 13.6705 5.27707 13.6705 5.60999Z" stroke="white" stroke-miterlimit="10" stroke-linecap="round" stroke-linejoin="round"/>
<path d="M15.7965 7.73507V11.383C15.7965 13.5647 14.5498 14.4996 12.6798 14.4996H6.45354C5.92937 14.4996 5.4548 14.4289 5.04396 14.273C4.20105 13.9614 3.62729 13.3168 3.42188 12.2826C3.70521 12.3464 4.00979 12.3746 4.32854 12.3746H10.5548C12.4248 12.3746 13.6715 11.4397 13.6715 9.25801V5.61007C13.6715 5.27716 13.6431 4.97968 13.5865 4.70343C14.9323 4.98676 15.7965 5.93591 15.7965 7.73507Z" stroke="white" stroke-miterlimit="10" stroke-linecap="round" stroke-linejoin="round"/>
<path d="M7.43642 9.3074C8.46919 9.3074 9.30643 8.47017 9.30643 7.43739C9.30643 6.40462 8.46919 5.56738 7.43642 5.56738C6.40364 5.56738 5.56641 6.40462 5.56641 7.43739C5.56641 8.47017 6.40364 9.3074 7.43642 9.3074Z" stroke="white" stroke-miterlimit="10" stroke-linecap="round" stroke-linejoin="round"/>
<path d="M3.38574 5.87915V8.99583" stroke="white" stroke-miterlimit="10" stroke-linecap="round" stroke-linejoin="round"/>
<path d="M11.4902 5.87939V8.99608" stroke="white" stroke-miterlimit="10" stroke-linecap="round" stroke-linejoin="round"/>
</g>
</svg>
