<svg width="20" height="20" viewBox="0 0 20 20" fill="none" xmlns="http://www.w3.org/2000/svg">
<path d="M9.99992 18.3333C14.5999 18.3333 18.3333 14.6 18.3333 10C18.3333 5.40001 14.5999 1.66668 9.99992 1.66668C5.39992 1.66668 1.66659 5.40001 1.66659 10C1.66659 14.6 5.39992 18.3333 9.99992 18.3333ZM7.05825 9.97501C7.18325 9.85001 7.34159 9.79168 7.49992 9.79168C7.65825 9.79168 7.81659 9.85001 7.94159 9.97501L9.37492 11.4083L9.37492 7.08334C9.37492 6.74168 9.65825 6.45834 9.99992 6.45834C10.3416 6.45834 10.6249 6.74168 10.6249 7.08334L10.6249 11.4083L12.0583 9.97501C12.2999 9.73334 12.6999 9.73334 12.9416 9.97501C13.1833 10.2167 13.1833 10.6167 12.9416 10.8583L10.4416 13.3583C10.1999 13.6 9.79992 13.6 9.55825 13.3583L7.05825 10.8583C6.81659 10.6167 6.81659 10.2167 7.05825 9.97501Z" fill="#FD213A"/>
</svg>
