<svg width="19" height="19" viewBox="0 0 19 19" fill="none" xmlns="http://www.w3.org/2000/svg">
<path d="M19 3.16699H0V15.8338H19V3.16699Z" fill="#0052B4"/>
<path d="M8.29012 9.49981C8.30025 9.48853 8.31027 9.47721 8.32029 9.46582C8.31027 9.47725 8.30002 9.48846 8.28986 9.49981H8.29012Z" fill="#F0F0F0"/>
<path d="M7.02171 11.0557L7.42836 11.906L8.3467 11.6938L7.93542 12.5418L8.6739 13.1274L7.75448 13.3347L7.75704 14.2772L7.02171 13.6875L6.28643 14.2772L6.28899 13.3347L5.36957 13.1274L6.10804 12.5418L5.69676 11.6938L6.61507 11.906L7.02171 11.0557Z" fill="#F0F0F0"/>
<path d="M14.3641 12.1123L14.5581 12.5179L14.9961 12.4166L14.7999 12.8211L15.1522 13.1005L14.7136 13.1993L14.7148 13.6489L14.3641 13.3676L14.0134 13.6489L14.0146 13.1993L13.5761 13.1005L13.9283 12.8211L13.7322 12.4166L14.1702 12.5179L14.3641 12.1123Z" fill="#F0F0F0"/>
<path d="M12.5598 7.80957L12.7538 8.21518L13.1918 8.1139L12.9956 8.51843L13.3478 8.79779L12.9093 8.89662L12.9105 9.3462L12.5598 9.06491L12.2091 9.3462L12.2103 8.89662L11.7717 8.79779L12.1239 8.51843L11.9278 8.1139L12.3658 8.21518L12.5598 7.80957Z" fill="#F0F0F0"/>
<path d="M14.3641 5.35156L14.5581 5.75717L14.9961 5.65586L14.7999 6.06043L15.1521 6.33975L14.7136 6.43861L14.7148 6.88815L14.3641 6.60686L14.0134 6.88815L14.0146 6.43861L13.5761 6.33975L13.9283 6.06043L13.7322 5.65586L14.1702 5.75717L14.3641 5.35156Z" fill="#F0F0F0"/>
<path d="M15.9402 7.19531L16.1342 7.60088L16.5722 7.49965L16.3761 7.90414L16.7283 8.18346L16.2897 8.28232L16.291 8.73186L15.9402 8.45065L15.5896 8.73186L15.5907 8.28232L15.1522 8.18346L15.5044 7.90414L15.3083 7.49965L15.7463 7.60088L15.9402 7.19531Z" fill="#F0F0F0"/>
<path d="M14.8133 9.34668L14.9658 9.81619H15.4595L15.0601 10.1064L15.2127 10.5759L14.8133 10.2857L14.4138 10.5759L14.5664 10.1064L14.167 9.81619H14.6607L14.8133 9.34668Z" fill="#F0F0F0"/>
<path d="M9.5 3.16699V4.30079L7.82388 5.2322H9.5V7.43498H7.30672L9.5 8.65347V9.50019H8.50992L5.78261 7.98516V9.50019H3.71739V7.69768L0.472922 9.50019H0V8.36639L1.67612 7.43498H0V5.2322H2.19328L0 4.01331V3.16699H0.990078L3.71739 4.68206V3.16699H5.78261V4.96951L9.02708 3.16699H9.5Z" fill="#F0F0F0"/>
<path d="M5.34375 3.16699H4.15625V5.73986H0V6.92736H4.15625V9.5003H5.34375V6.92736H9.5V5.73986H5.34375V3.16699Z" fill="#D80027"/>
<path d="M5.78259 7.43457L9.49999 9.49978V8.91579L6.83379 7.43457H5.78259Z" fill="#0052B4"/>
<path d="M5.78259 7.43457L9.49999 9.49978V8.91579L6.83379 7.43457H5.78259Z" fill="#F0F0F0"/>
<path d="M5.78259 7.43457L9.49999 9.49978V8.91579L6.83379 7.43457H5.78259Z" fill="#D80027"/>
<path d="M2.66616 7.43457L0 8.91579V9.49978L3.71739 7.43457H2.66616Z" fill="#D80027"/>
<path d="M3.71739 5.2322L0 3.16699V3.75098L2.6662 5.2322H3.71739Z" fill="#0052B4"/>
<path d="M3.71739 5.2322L0 3.16699V3.75098L2.6662 5.2322H3.71739Z" fill="#F0F0F0"/>
<path d="M3.71739 5.2322L0 3.16699V3.75098L2.6662 5.2322H3.71739Z" fill="#D80027"/>
<path d="M6.83383 5.2322L9.49999 3.75098V3.16699L5.78259 5.2322H6.83383Z" fill="#D80027"/>
</svg>
