<svg width="22" height="22" viewBox="0 0 22 22" fill="none" xmlns="http://www.w3.org/2000/svg">
<path fill-rule="evenodd" clip-rule="evenodd" d="M10.8191 20.2399C5.71599 20.2399 1.5791 16.103 1.5791 10.9999C1.5791 5.89678 5.71599 1.75989 10.8191 1.75989C15.9222 1.75989 20.0591 5.89678 20.0591 10.9999C20.0591 16.103 15.9222 20.2399 10.8191 20.2399ZM10.1198 5.03404L7.92066 3.43624C7.84277 3.37965 7.78889 3.30228 7.76112 3.21726C6.1223 3.8617 4.73624 5.0088 3.79277 6.4687C3.80669 6.49141 3.81874 6.51572 3.82864 6.54148L4.81897 9.12139L7.54852 9.45141L7.33891 10.3061L4.74092 9.99196L2.49781 11.8084C2.63068 13.1935 3.10153 14.4799 3.82692 15.5842L6.55676 15.6319L8.48427 13.2002L9.18283 13.7354L7.34019 16.06L8.21364 18.9169C8.21691 18.9276 8.21974 18.9383 8.22216 18.949C9.03967 19.2159 9.91261 19.3602 10.8193 19.3602C11.733 19.3602 12.6125 19.2136 13.4355 18.9427C13.4353 18.8969 13.4422 18.8503 13.4572 18.8043L14.3293 16.1201L12.5287 14.0302L13.2265 13.4939L14.9968 15.5487H17.8348C18.5073 14.5135 18.9569 13.3202 19.1156 12.0367C19.0362 12.0245 18.959 11.9905 18.8939 11.9338L16.5516 9.89772C16.544 9.89105 16.5366 9.88416 16.5294 9.87706L14.049 10.2672L13.8032 9.42222L16.6106 8.98066L17.6479 6.53693C17.6774 6.4674 17.7227 6.4094 17.7779 6.36533C16.7898 4.88491 15.3419 3.73756 13.6383 3.12747C13.6254 3.24668 13.5641 3.36021 13.4595 3.43624L10.9998 5.22328V7.61801H10.1198V5.03404ZM17.3701 9.44296L18.2973 7.25861C18.8616 8.38426 19.1792 9.65499 19.1792 10.9999V11.0155L17.3701 9.44296ZM3.24051 7.46578C2.77849 8.45476 2.50436 9.54911 2.46405 10.7029L4.00434 9.45562L3.24051 7.46578ZM10.6899 4.36037L8.69629 2.91191C9.37416 2.73448 10.0856 2.64001 10.8191 2.64001C11.4835 2.64001 12.1298 2.71752 12.7495 2.864L10.6899 4.36037ZM14.4738 18.5205C15.5137 18.0142 16.4329 17.2985 17.1765 16.4283H15.1536L14.4738 18.5205ZM6.55809 16.5118L7.17373 18.5255C6.14878 18.0281 5.24074 17.3274 4.502 16.4759L6.55809 16.5118Z" fill="#006BDB"/>
<path fill-rule="evenodd" clip-rule="evenodd" d="M14.2527 9.33758L10.905 6.90532C10.7508 6.79328 10.542 6.79328 10.3878 6.90532L7.04005 9.33758C6.88583 9.44963 6.8213 9.64823 6.88021 9.82952L8.15892 13.765C8.21783 13.9463 8.38677 14.069 8.57739 14.069H12.7154C12.906 14.069 13.075 13.9463 13.1339 13.765L14.4126 9.82952C14.4715 9.64823 14.407 9.44963 14.2527 9.33758ZM8.89761 13.1888L7.81646 9.86142L10.6469 7.80497L13.4774 9.86142L12.3963 13.1888H8.89761Z" fill="#006BDB"/>
</svg>
