<svg width="12" height="12" viewBox="0 0 12 12" fill="none" xmlns="http://www.w3.org/2000/svg">
<path fill-rule="evenodd" clip-rule="evenodd" d="M6 0C2.69175 0 0 2.69175 0 6C0 9.30825 2.69175 12 6 12C9.30825 12 12 9.30825 12 6C12 2.69175 9.30825 0 6 0ZM6.381 1.94925L7.92375 1.11975C8.778 1.458 9.5235 2.01225 10.0905 2.71725L9.723 4.41375L8.54625 4.9905L6.381 3.41325V1.94925ZM4.089 1.11525L5.63175 1.94775V3.41325L3.468 4.9905L2.28525 4.413L1.91775 2.706C2.48625 2.0025 3.23325 1.45125 4.089 1.11525ZM1.6725 8.9655C1.18275 8.253 0.864 7.41525 0.77625 6.51L2.046 5.13075L3.204 5.697L4.07625 8.17425L3.339 9.05775L1.6725 8.9655ZM7.33725 11.0707C6.909 11.184 6.46275 11.25 6 11.25C5.4405 11.25 4.902 11.16 4.39575 10.9973L3.924 9.52875L4.67625 8.625H7.32675L8.0655 9.4995L7.33725 11.0707ZM8.6505 9.03225L7.92525 8.1735L8.8095 5.697L9.96225 5.13225L11.2245 6.51075C11.1487 7.2915 10.8975 8.01975 10.5158 8.664L8.6505 9.03225Z" fill="#999999"/>
</svg>
