<svg width="30" height="30" viewBox="0 0 30 30" fill="none" xmlns="http://www.w3.org/2000/svg">
<circle cx="15" cy="15" r="15" fill="#71CF4D"/>
<path fill-rule="evenodd" clip-rule="evenodd" d="M15 5C9.48625 5 5 9.48625 5 15C5 20.5137 9.48625 25 15 25C20.5137 25 25 20.5137 25 15C25 9.48625 20.5137 5 15 5ZM15.635 8.24875L18.2063 6.86625C19.63 7.43 20.8725 8.35375 21.8175 9.52875L21.205 12.3563L19.2438 13.3175L15.635 10.6888V8.24875ZM11.815 6.85875L14.3862 8.24625V10.6888L10.78 13.3175L8.80875 12.355L8.19625 9.51C9.14375 8.3375 10.3887 7.41875 11.815 6.85875ZM7.7875 19.9425C6.97125 18.755 6.44 17.3588 6.29375 15.85L8.41 13.5513L10.34 14.495L11.7938 18.6238L10.565 20.0963L7.7875 19.9425ZM17.2288 23.4512C16.515 23.64 15.7713 23.75 15 23.75C14.0675 23.75 13.17 23.6 12.3262 23.3288L11.54 20.8812L12.7938 19.375H17.2113L18.4425 20.8325L17.2288 23.4512ZM19.4175 20.0538L18.2087 18.6225L19.6825 14.495L21.6038 13.5538L23.7075 15.8512C23.5813 17.1525 23.1625 18.3662 22.5263 19.44L19.4175 20.0538Z" fill="white"/>
</svg>
