<svg width="30" height="30" viewBox="0 0 30 30" fill="none" xmlns="http://www.w3.org/2000/svg">
<circle cx="15" cy="15" r="15" fill="#EBF5FF"/>
<path d="M13.2246 9.72525L10.3746 11.4586L9.07461 9.32526C8.59961 8.54193 8.84961 7.5086 9.63294 7.0336C10.4163 6.5586 11.4496 6.80858 11.9246 7.59191L13.2246 9.72525Z" stroke="#006BDB" stroke-linecap="round" stroke-linejoin="round"/>
<path d="M14.8496 12.6333L12.2163 14.2334C10.6829 15.1667 10.2163 17.05 10.9579 18.55L12.6663 22.0333C13.2163 23.1583 14.5496 23.55 15.6163 22.8917L20.9746 19.6333C22.0496 18.9833 22.3079 17.625 21.5663 16.6167L19.2579 13.5C18.2579 12.15 16.3829 11.7 14.8496 12.6333Z" stroke="#006BDB" stroke-linecap="round" stroke-linejoin="round"/>
<path d="M13.9639 9.24813L9.69336 11.8486L11.427 14.6956L15.6975 12.0951L13.9639 9.24813Z" stroke="#006BDB" stroke-linecap="round" stroke-linejoin="round"/>
<path d="M16.9248 19.0088L18.2998 21.2671" stroke="#006BDB" stroke-linecap="round" stroke-linejoin="round"/>
<path d="M14.792 20.3086L16.167 22.5669" stroke="#006BDB" stroke-linecap="round" stroke-linejoin="round"/>
<path d="M19.0586 17.708L20.4336 19.9664" stroke="#006BDB" stroke-linecap="round" stroke-linejoin="round"/>
</svg>
