<svg width="29" height="29" viewBox="0 0 29 29" fill="none" xmlns="http://www.w3.org/2000/svg">
<path d="M4.81992 17.7146L2.98326 15.8779C2.2341 15.1288 2.2341 13.8962 2.98326 13.1471L4.81992 11.3104C5.13408 10.9962 5.38783 10.38 5.38783 9.94496V7.34702C5.38783 6.28368 6.25784 5.41371 7.32117 5.41371H9.91908C10.3541 5.41371 10.9703 5.16 11.2845 4.84583L13.1212 3.00914C13.8703 2.25997 15.1028 2.25997 15.852 3.00914L17.6887 4.84583C18.0029 5.16 18.6191 5.41371 19.0541 5.41371H21.652C22.7154 5.41371 23.5853 6.28368 23.5853 7.34702V9.94496C23.5853 10.38 23.8391 10.9962 24.1532 11.3104L25.9899 13.1471C26.7391 13.8962 26.7391 15.1288 25.9899 15.8779L24.1532 17.7146C23.8391 18.0288 23.5853 18.645 23.5853 19.08V21.6778C23.5853 22.7412 22.7154 23.6113 21.652 23.6113H19.0541C18.6191 23.6113 18.0029 23.865 17.6887 24.1792L15.852 26.0159C15.1028 26.765 13.8703 26.765 13.1212 26.0159L11.2845 24.1792C10.9703 23.865 10.3541 23.6113 9.91908 23.6113H7.32117C6.25784 23.6113 5.38783 22.7412 5.38783 21.6778V19.08C5.38783 18.633 5.13408 18.0167 4.81992 17.7146Z" stroke="#006BDB" stroke-width="1.5" stroke-linecap="round" stroke-linejoin="round"/>
<path d="M10.875 18.125L18.125 10.875" stroke="#006BDB" stroke-width="1.5" stroke-linecap="round" stroke-linejoin="round"/>
<path d="M17.514 17.5209H17.5249" stroke="#006BDB" stroke-width="2" stroke-linecap="round" stroke-linejoin="round"/>
<path d="M11.4725 11.4792H11.4834" stroke="#006BDB" stroke-width="2" stroke-linecap="round" stroke-linejoin="round"/>
</svg>
