<svg width="30" height="30" viewBox="0 0 30 30" fill="none" xmlns="http://www.w3.org/2000/svg">
<path d="M3.0499 16.575L4.7499 18.55C5.0749 18.925 5.3374 19.625 5.3374 20.125V22.25C5.3374 23.575 6.4249 24.6625 7.7499 24.6625H9.8749C10.3624 24.6625 11.0749 24.925 11.4499 25.25L13.4249 26.95C14.2874 27.6875 15.6999 27.6875 16.5749 26.95L18.5374 25.2375C18.9124 24.925 19.6249 24.6625 20.1124 24.6625H22.2749C23.5999 24.6625 24.6874 23.575 24.6874 22.25V20.1125C24.6874 19.625 24.9499 18.925 25.2624 18.55L26.9499 16.5625C27.6749 15.7 27.6749 14.3 26.9499 13.4375L25.2624 11.45C24.9499 11.075 24.6874 10.375 24.6874 9.88749V7.74999C24.6874 6.42499 23.5999 5.33749 22.2749 5.33749H20.1124C19.6249 5.33749 18.9124 5.07499 18.5374 4.74999L16.5624 3.04999C15.6999 2.31249 14.2874 2.31249 13.4124 3.04999L11.4374 4.74999C11.0624 5.07499 10.3624 5.33749 9.8624 5.33749H7.7374C6.4124 5.33749 5.3249 6.42499 5.3249 7.74999V9.87499C5.3249 10.3625 5.0624 11.075 4.7374 11.45L3.0374 13.425C2.3124 14.2875 2.3124 15.7125 3.0499 16.575ZM9.1499 15L10.6124 10.55C10.7999 9.81249 11.5874 9.21249 12.3874 9.21249H14.6999C15.0999 9.21249 15.6624 9.34999 15.9124 9.59999L17.7499 11.0375C17.7874 10.2375 18.1499 9.89999 19.0374 9.89999H19.6374C20.5624 9.89999 20.9374 10.2625 20.9374 11.1375V17.1125C20.9374 17.9875 20.5624 18.35 19.6374 18.35H19.0249C18.0999 18.35 17.7249 17.9875 17.7249 17.1125V16.6625L15.2999 20.2625C15.0499 20.65 14.4124 20.925 13.8749 20.7125C13.2874 20.5125 12.9124 19.8625 13.0374 19.2875L13.3374 17.3375C13.3624 17.1625 13.3249 17 13.2124 16.875C13.1124 16.7625 12.9624 16.6875 12.7999 16.6875H10.3624C9.8874 16.6875 9.4874 16.5 9.2499 16.1625C9.0374 15.8375 8.9999 15.425 9.1499 15Z" fill="#FD213A"/>
</svg>
