<svg width="17" height="18" viewBox="0 0 17 18" fill="none" xmlns="http://www.w3.org/2000/svg">
<path d="M15.0521 6.98126C13.4159 4.41001 11.0217 2.9296 8.50002 2.9296C7.23919 2.9296 6.01377 3.29793 4.8946 3.98501C3.77544 4.67918 2.7696 5.6921 1.94794 6.98126C1.2396 8.09335 1.2396 9.8996 1.94794 11.0117C3.58419 13.59 5.97835 15.0633 8.50002 15.0633C9.76085 15.0633 10.9863 14.695 12.1054 14.0079C13.2246 13.3138 14.2304 12.3008 15.0521 11.0117C15.7604 9.90668 15.7604 8.09335 15.0521 6.98126ZM8.50002 11.8617C6.91335 11.8617 5.63835 10.5796 5.63835 9.00001C5.63835 7.42043 6.91335 6.13835 8.50002 6.13835C10.0867 6.13835 11.3617 7.42043 11.3617 9.00001C11.3617 10.5796 10.0867 11.8617 8.50002 11.8617Z" fill="white"/>
<path d="M8.50001 6.97418C7.38793 6.97418 6.48126 7.88085 6.48126 9.00002C6.48126 10.1121 7.38793 11.0188 8.50001 11.0188C9.6121 11.0188 10.5258 10.1121 10.5258 9.00002C10.5258 7.88793 9.6121 6.97418 8.50001 6.97418Z" fill="white"/>
</svg>
