<svg width="17" height="18" viewBox="0 0 17 18" fill="none" xmlns="http://www.w3.org/2000/svg">
<path d="M15.0522 6.98123C13.4159 4.40998 11.0217 2.92957 8.50008 2.92957C7.23925 2.92957 6.01383 3.2979 4.89466 3.98498C3.7755 4.67915 2.76966 5.69206 1.948 6.98123C1.23966 8.09331 1.23966 9.89957 1.948 11.0116C3.58425 13.59 5.97842 15.0633 8.50008 15.0633C9.76091 15.0633 10.9863 14.695 12.1055 14.0079C13.2247 13.3137 14.2305 12.3008 15.0522 11.0116C15.7605 9.90665 15.7605 8.09331 15.0522 6.98123ZM8.50008 11.8616C6.91341 11.8616 5.63841 10.5796 5.63841 8.99998C5.63841 7.4204 6.91341 6.13832 8.50008 6.13832C10.0867 6.13832 11.3617 7.4204 11.3617 8.99998C11.3617 10.5796 10.0867 11.8616 8.50008 11.8616Z" fill="#006BDB"/>
<path d="M8.49995 6.97418C7.38787 6.97418 6.4812 7.88085 6.4812 9.00002C6.4812 10.1121 7.38787 11.0188 8.49995 11.0188C9.61203 11.0188 10.5258 10.1121 10.5258 9.00002C10.5258 7.88793 9.61203 6.97418 8.49995 6.97418Z" fill="#006BDB"/>
</svg>
