<svg width="17" height="19" viewBox="0 0 17 19" fill="none" xmlns="http://www.w3.org/2000/svg">
<path fill-rule="evenodd" clip-rule="evenodd" d="M5.07402 7.66267C8.88709 6.41243 9.53612 3.15562 9.04935 0.16121C9.04935 0.0531646 9.1467 -0.0240109 9.24406 0.00685926C12.8949 1.70472 17 5.40914 17 10.9658C17 15.2259 13.5277 18.992 8.48144 18.992C6.6808 19.0699 4.90417 18.5752 3.43196 17.5858C1.95974 16.5965 0.875795 15.169 0.351198 13.5286C-0.1734 11.8881 -0.10877 10.1282 0.534885 8.52659C1.17854 6.92498 2.36456 5.57287 3.90576 4.68369C4.00312 4.62195 4.13292 4.68369 4.13292 4.79174C4.1816 5.36284 4.34386 6.7983 5.00912 7.66267H5.07402Z" fill="url(#paint0_linear_111_15956)"/>
<defs>
<linearGradient id="paint0_linear_111_15956" x1="17" y1="0" x2="-1.88308" y2="16.8954" gradientUnits="userSpaceOnUse">
<stop stop-color="#FF7854"/>
<stop offset="1" stop-color="#FD267D"/>
</linearGradient>
</defs>
</svg>
