<svg width="20" height="20" viewBox="0 0 20 20" fill="none" xmlns="http://www.w3.org/2000/svg">
<g clip-path="url(#clip0_901_19829)">
<path d="M17.4824 8.41857C17.3723 7.91503 17.2306 7.44296 17.0261 6.98662C16.8373 6.54603 16.617 6.1369 16.3494 5.74351C16.0662 5.31865 15.7515 4.94099 15.3896 4.57907C15.0119 4.20141 14.6028 3.87097 14.1622 3.58772C13.7373 3.32022 13.2967 3.08418 12.8247 2.89536C12.3998 2.72226 11.9435 2.58064 11.4714 2.48623C11.3612 2.47049 11.2511 2.43902 11.141 2.42329C11.1095 2.42329 11.078 2.40755 11.0465 2.40755C10.9679 2.39182 10.8892 2.39182 10.8105 2.37608C10.779 2.37608 10.7318 2.36034 10.7004 2.36034C10.6059 2.34461 10.4958 2.34461 10.4014 2.34461H10.3699C10.244 2.34461 10.1181 2.32887 9.99225 2.32887C9.86636 2.32887 9.72474 2.32887 9.59886 2.34461H9.56739C9.45724 2.34461 9.34709 2.36034 9.23694 2.37608C9.20547 2.37608 9.15826 2.39182 9.12679 2.39182C9.04811 2.40755 8.9537 2.40755 8.87502 2.42329C8.84355 2.42329 8.79634 2.43902 8.76487 2.43902C8.65472 2.45476 8.52883 2.47049 8.41868 2.50196C7.91514 2.61211 7.44307 2.75373 6.98674 2.9583C6.54614 3.14713 6.13702 3.36743 5.74363 3.63493C5.31876 3.91817 4.94111 4.23289 4.57919 4.59481C4.20153 4.97246 3.87108 5.38159 3.58784 5.82219C3.32034 6.24705 3.0843 6.68765 2.89547 7.15972C2.72238 7.58458 2.58076 8.04091 2.48635 8.51298C2.39193 9.00078 2.34473 9.48859 2.34473 10.0079C2.34473 10.5429 2.40767 11.0779 2.50208 11.5814C2.61223 12.085 2.75385 12.557 2.95842 13.0134C3.14724 13.454 3.36754 13.8631 3.63505 14.2565C3.91829 14.6814 4.233 15.059 4.59492 15.4209C4.97258 15.7986 5.38171 16.129 5.8223 16.4123C6.24717 16.6798 6.68776 16.9158 7.15983 17.1046C7.5847 17.2777 8.04103 17.4194 8.5131 17.5138C8.62325 17.5295 8.7334 17.561 8.84355 17.5767C8.87502 17.5767 8.90649 17.5924 8.93796 17.5924C9.01664 17.6082 9.09532 17.6082 9.174 17.6239C9.20547 17.6239 9.25267 17.6397 9.28414 17.6397C9.37856 17.6554 9.48871 17.6554 9.58312 17.6554C9.72474 17.6554 9.85063 17.6711 9.99225 17.6711C10.5273 17.6711 11.0623 17.6082 11.5658 17.5138C12.0694 17.4036 12.5414 17.262 12.9978 17.0574C13.4384 16.8686 13.8475 16.6483 14.2409 16.3808C14.6657 16.0976 15.0434 15.7828 15.4053 15.4209C15.783 15.0433 16.1134 14.6341 16.3967 14.1935C16.6642 13.7687 16.9002 13.3281 17.089 12.856C17.2621 12.4312 17.4037 11.9748 17.4981 11.5028C17.5926 11.0149 17.6398 10.5271 17.6398 10.0079C17.6398 9.45712 17.5926 8.92211 17.4824 8.41857ZM11.2668 2.45476C11.2511 2.45476 11.2196 2.43902 11.2039 2.43902C11.2196 2.45476 11.2354 2.45476 11.2668 2.45476ZM11.0151 2.42329C10.9521 2.42329 10.9049 2.40755 10.842 2.40755C10.9049 2.40755 10.9521 2.40755 11.0151 2.42329ZM10.7004 2.37608C10.6059 2.36034 10.5115 2.36034 10.4171 2.36034C10.5115 2.36034 10.6059 2.37608 10.7004 2.37608ZM9.56739 2.36034C9.45724 2.36034 9.36282 2.37608 9.25267 2.39182C9.36282 2.37608 9.45724 2.37608 9.56739 2.36034ZM9.09532 2.40755C9.03237 2.40755 8.96943 2.42329 8.90649 2.43902C8.98517 2.42329 9.04811 2.40755 9.09532 2.40755ZM8.7334 2.45476C8.70193 2.45476 8.68619 2.47049 8.67045 2.47049C8.68619 2.47049 8.71766 2.45476 8.7334 2.45476ZM8.7334 17.5295C8.74913 17.5295 8.7806 17.5452 8.79634 17.5452C8.7806 17.5452 8.74913 17.5452 8.7334 17.5295ZM8.96943 17.5767C9.03237 17.5924 9.07958 17.5924 9.14252 17.5924C9.09532 17.5924 9.03237 17.5767 8.96943 17.5767ZM9.28414 17.6082C9.37856 17.6239 9.47297 17.6239 9.56739 17.6239C9.48871 17.6239 9.39429 17.6239 9.28414 17.6082Z" fill="#EA8242"/>
<path d="M2.56484 13.1707C2.36028 12.6829 2.20292 12.1794 2.09278 11.6601C2.04557 11.4398 2.0141 11.2195 1.98263 10.9992L0.0786133 11.2352C0.110085 11.5185 0.157291 11.786 0.220234 12.0535C0.361855 12.6987 0.550682 13.3281 0.818188 13.926C0.865395 14.0362 0.912602 14.1463 0.975545 14.2565L2.70647 13.4382C2.64352 13.3438 2.61205 13.2651 2.56484 13.1707Z" fill="white"/>
<path d="M18.3636 15.4839L16.7585 14.4296C16.4596 14.8859 16.0976 15.3265 15.72 15.7199C15.5154 15.9245 15.2794 16.129 15.0591 16.3179L16.255 17.8127C16.5382 17.5767 16.8215 17.3407 17.0732 17.0732C17.5453 16.5854 17.9859 16.0504 18.3636 15.4839Z" fill="white"/>
<path d="M6.98657 17.498C6.62465 17.3564 6.26273 17.1833 5.93229 16.9788L4.97241 18.631C5.39727 18.8828 5.83787 19.0873 6.29421 19.2762C6.81348 19.4807 7.34849 19.6538 7.91498 19.764L8.3241 17.8914C7.85203 17.797 7.41144 17.6554 6.98657 17.498Z" fill="white"/>
<path d="M17.4195 6.81353C17.624 7.30134 17.7814 7.80488 17.8915 8.32416C17.9387 8.54446 17.9702 8.76475 18.0017 8.98505L19.9057 8.74902C19.8742 8.46578 19.827 8.19827 19.7641 7.93077C19.6224 7.2856 19.4336 6.65618 19.1661 6.05822C19.1189 5.94807 19.0717 5.83793 19.0088 5.72778L17.2778 6.54603C17.3408 6.64044 17.388 6.73486 17.4195 6.81353Z" fill="white"/>
<path d="M12.9977 2.50197C13.3596 2.64359 13.7215 2.81668 14.052 3.02125L15.0118 1.369C14.587 1.11723 14.1464 0.912671 13.6901 0.723843C13.1708 0.51928 12.6358 0.346188 12.0693 0.236038L11.6602 2.10858C12.148 2.20299 12.5886 2.32888 12.9977 2.50197Z" fill="white"/>
<path d="M19.9213 8.74902L18.0173 8.98505C17.9858 8.76475 17.9544 8.54445 17.9072 8.32415C17.797 7.80488 17.6397 7.2856 17.4351 6.81353C17.4036 6.71912 17.3564 6.64044 17.3092 6.54603L19.0401 5.72777C18.8356 5.28718 18.5838 4.84658 18.3163 4.43745C17.9544 3.8867 17.5295 3.38316 17.0732 2.92683C16.5854 2.43902 16.0504 1.99843 15.4681 1.62077C15.3265 1.52636 15.1849 1.44768 15.0433 1.35327L14.0834 3.00551C13.7372 2.80094 13.391 2.62785 13.0134 2.48623C12.5885 2.31314 12.1637 2.18725 11.7073 2.09284L12.1164 0.220299C12.0692 0.204563 12.022 0.204563 11.9748 0.188828C11.3139 0.0629426 10.6688 0 9.99213 0C9.28403 0 8.6074 0.0786782 7.93076 0.220299C7.2856 0.36192 6.65618 0.550747 6.05822 0.818253C5.49174 1.05429 4.95673 1.35327 4.43745 1.69945C4.20142 1.85681 3.96538 2.0299 3.74508 2.20299L4.94099 3.69788C4.70496 3.8867 4.48466 4.07553 4.28009 4.29583C3.8867 4.68922 3.52478 5.12982 3.22581 5.60189L3.24154 5.58615L1.63651 4.53186L1.62077 4.5476C1.25885 5.08261 0.959874 5.66483 0.708104 6.27852C0.487805 6.845 0.314713 7.42722 0.188828 8.04091C0.0629426 8.67034 0 9.33123 0 9.99213C0 10.417 0.0314713 10.8261 0.0786782 11.2352L1.98269 10.9992C2.01416 11.2195 2.04563 11.4398 2.09284 11.6601C2.20299 12.1794 2.36035 12.6987 2.56491 13.1707C2.59638 13.2651 2.64359 13.3438 2.69079 13.4382L0.959874 14.2565C1.16444 14.7128 1.41621 15.1377 1.68371 15.5468C2.04563 16.0976 2.4705 16.6011 2.92683 17.0574C3.41463 17.5452 3.94965 17.9858 4.53186 18.3635C4.67349 18.4579 4.81511 18.5366 4.95673 18.631L5.9166 16.9788C6.26278 17.1833 6.60897 17.3564 6.98662 17.498C7.44296 17.6869 7.91503 17.8285 8.41857 17.9229C8.37136 17.9072 8.33989 17.9072 8.29268 17.8914L7.88356 19.764C7.93076 19.7797 7.97797 19.7797 8.02518 19.7954C8.6546 19.9213 9.3155 19.9843 9.9764 19.9843C10.6845 19.9843 11.3769 19.9056 12.0378 19.764C12.6829 19.6223 13.3124 19.4335 13.9103 19.166C14.4768 18.93 15.0118 18.631 15.5311 18.2848C15.7671 18.1275 16.0031 17.9544 16.2234 17.7813L15.0275 16.2864C15.2636 16.0976 15.4839 15.9087 15.6884 15.6884C16.0818 15.295 16.428 14.8702 16.727 14.3981L18.332 15.4524L18.3478 15.4367C18.7097 14.8859 19.0087 14.3037 19.2604 13.69C19.4807 13.1235 19.6696 12.5413 19.7797 11.9276C19.9056 11.2982 19.9685 10.6373 19.9685 9.9764C20 9.56727 19.9685 9.15814 19.9213 8.74902ZM17.1991 6.32573C17.1833 6.29426 17.1676 6.26279 17.1518 6.24705C17.1676 6.27852 17.1833 6.30999 17.1991 6.32573ZM16.8843 5.79072C16.8214 5.6963 16.7742 5.60189 16.7113 5.50747C16.7742 5.60189 16.8371 5.6963 16.8843 5.79072ZM17.0574 6.05822C17.026 6.01101 17.0102 5.96381 16.9788 5.9166C16.9945 5.97954 17.026 6.01101 17.0574 6.05822ZM5.50747 3.27301C5.41306 3.33596 5.31865 3.3989 5.22423 3.47758C5.31865 3.41463 5.41306 3.35169 5.50747 3.27301ZM1.95122 10.7317V10.7632V10.7317ZM1.91975 10.2282C1.91975 10.2439 1.91975 10.2754 1.91975 10.2911C1.91975 10.2754 1.91975 10.2596 1.91975 10.2282ZM1.93548 10.4799C1.93548 10.4957 1.93548 10.5114 1.93548 10.5429C1.93548 10.5114 1.93548 10.4957 1.93548 10.4799ZM2.80094 13.6585C2.81668 13.69 2.83242 13.7215 2.84815 13.7372C2.83242 13.7215 2.81668 13.69 2.80094 13.6585ZM3.09992 14.1935C3.16286 14.288 3.21007 14.3824 3.27301 14.4768C3.22581 14.3824 3.16286 14.288 3.09992 14.1935ZM2.94256 13.926C2.97404 13.9732 2.98977 14.0205 3.02124 14.0677C2.98977 14.0205 2.97404 13.9732 2.94256 13.926ZM14.4768 16.7113C14.5712 16.6483 14.6656 16.5854 14.76 16.5067C14.6814 16.5854 14.5712 16.6483 14.4768 16.7113ZM15.8773 13.8316C15.6098 14.2408 15.3108 14.6184 14.9646 14.9646C14.6341 15.295 14.288 15.5783 13.8946 15.8458C13.5327 16.0818 13.155 16.2864 12.7616 16.4595C12.3367 16.6326 11.8961 16.7742 11.4398 16.8686C10.9677 16.963 10.4957 17.026 9.99213 17.026C9.52006 17.026 9.06373 16.9788 8.62313 16.8843C8.19827 16.8057 7.78914 16.6798 7.38002 16.5224C6.95515 16.3493 6.54603 16.129 6.15264 15.8773C5.74351 15.6098 5.36585 15.3108 5.01967 14.9646C4.68922 14.6341 4.40598 14.288 4.13847 13.8946C3.90244 13.5327 3.69788 13.155 3.52478 12.7616C3.35169 12.3367 3.21007 11.8961 3.11566 11.4398C3.02124 10.9677 2.9583 10.4957 2.9583 9.99213C2.9583 9.52006 3.00551 9.06373 3.09992 8.62313C3.1786 8.19827 3.30448 7.78914 3.46184 7.38002C3.63493 6.95515 3.85523 6.54603 4.107 6.15264C4.37451 5.74351 4.67349 5.36585 5.01967 5.01967C5.35012 4.68922 5.6963 4.40598 6.08969 4.13847C6.45161 3.90244 6.82927 3.69788 7.22266 3.52478C7.64752 3.35169 8.08812 3.21007 8.54445 3.11566C9.01652 3.02124 9.48859 2.9583 9.99213 2.9583C10.4642 2.9583 10.9205 3.00551 11.3611 3.09992C11.786 3.1786 12.1951 3.30448 12.6042 3.46184C13.0291 3.63493 13.4382 3.85523 13.8316 4.107C14.2408 4.37451 14.6184 4.67349 14.9646 5.01967C15.295 5.35012 15.5783 5.6963 15.8458 6.08969C16.0818 6.45161 16.2864 6.82927 16.4595 7.22266C16.6326 7.64752 16.7742 8.08812 16.8686 8.54445C16.963 9.01652 17.026 9.48859 17.026 9.99213C17.026 10.4642 16.9788 10.9205 16.8843 11.3611C16.8057 11.786 16.6798 12.1951 16.5224 12.6042C16.3336 13.0291 16.129 13.4382 15.8773 13.8316ZM18.033 9.22109V9.25256V9.22109ZM18.0488 9.45712C18.0488 9.47286 18.0488 9.48859 18.0488 9.50433C18.0488 9.48859 18.0488 9.47286 18.0488 9.45712ZM18.0645 9.69315C18.0645 9.70889 18.0645 9.72463 18.0645 9.7561C18.0645 9.74036 18.0645 9.72463 18.0645 9.69315Z" fill="#EA8242"/>
<path d="M4.28006 4.2801C4.48463 4.07553 4.72066 3.87097 4.94096 3.68214L3.74505 2.18726C3.46181 2.42329 3.17857 2.65933 2.9268 2.92683C2.43899 3.41464 2.01413 3.93391 1.63647 4.51613L3.24151 5.57042C3.54049 5.09835 3.90241 4.67349 4.28006 4.2801Z" fill="white"/>
<path d="M16.3179 8.67033C16.2235 8.24547 16.0976 7.85208 15.9402 7.45869C15.7829 7.09677 15.5941 6.75059 15.3738 6.42014C15.1377 6.07395 14.8702 5.74351 14.5712 5.44453C14.2565 5.12982 13.9103 4.84657 13.5327 4.61054C13.1865 4.3745 12.8088 4.18568 12.4155 4.02832C12.0535 3.8867 11.6759 3.76081 11.2825 3.68214C10.8734 3.60346 10.4485 3.55625 10.0236 3.55625C9.5673 3.55625 9.1267 3.60346 8.68611 3.69787C8.26124 3.79229 7.86785 3.91817 7.47446 4.07553C7.11254 4.23288 6.76636 4.42171 6.43591 4.64201C6.08972 4.87805 5.75928 5.14555 5.4603 5.44453C5.14559 5.75924 4.86234 6.10543 4.62631 6.48308C4.39027 6.82926 4.20145 7.20692 4.04409 7.60031C3.90247 7.96223 3.77658 8.33989 3.69791 8.73328C3.61923 9.1424 3.57202 9.56727 3.57202 9.99213C3.57202 10.4485 3.61923 10.8891 3.71364 11.3297C3.80806 11.7545 3.93394 12.1479 4.0913 12.5413C4.24865 12.9032 4.43748 13.2494 4.65778 13.5799C4.89382 13.926 5.16132 14.2565 5.4603 14.5555C5.77501 14.8702 6.1212 15.1534 6.49885 15.3895C6.84503 15.6255 7.22269 15.8143 7.61608 15.9717C7.978 16.1133 8.35566 16.2392 8.74905 16.3179C9.06376 16.3808 9.37847 16.4123 9.69319 16.428C9.37847 16.4123 9.06376 16.3808 8.76478 16.3179C8.37139 16.2392 7.99374 16.129 7.64755 15.9874C7.25416 15.8301 6.89224 15.6412 6.53032 15.4052C6.15267 15.1692 5.82222 14.8859 5.50751 14.5712C5.20853 14.2722 4.94102 13.9575 4.72072 13.5956C4.50042 13.2651 4.3116 12.9347 4.15424 12.5728C3.99688 12.1951 3.871 11.786 3.77658 11.3769C3.66644 10.9677 3.61923 10.5271 3.61923 10.0708C3.61923 9.64595 3.66644 9.22108 3.74511 8.82769C3.82379 8.4343 3.93394 8.05664 4.07556 7.71046C4.23292 7.31707 4.42175 6.95515 4.65778 6.59323C4.89382 6.21557 5.17706 5.88513 5.49177 5.57041C5.79075 5.27144 6.10546 5.00393 6.46738 4.7679C6.79783 4.5476 7.12828 4.35877 7.4902 4.20141C7.86785 4.04406 8.27698 3.91817 8.68611 3.82376C9.11097 3.72934 9.55157 3.68214 10.0079 3.68214C10.4328 3.68214 10.8576 3.72934 11.251 3.80802C11.6444 3.8867 12.0221 3.99685 12.3682 4.13847C12.7616 4.29583 13.1236 4.48465 13.4855 4.72069C13.8631 4.95672 14.1936 5.23996 14.5083 5.55468C14.8073 5.85365 15.0748 6.16837 15.2951 6.53029C15.5154 6.86074 15.7042 7.19118 15.8616 7.5531C16.0189 7.93076 16.1448 8.33989 16.2392 8.74901C16.3336 9.17388 16.3808 9.61447 16.3808 10.0708C16.3808 10.4957 16.3336 10.9205 16.255 11.3139C16.1763 11.7073 16.0661 12.085 15.9245 12.4312C15.7671 12.8245 15.5783 13.1865 15.3423 13.5484C15.1062 13.926 14.823 14.2565 14.5083 14.5712C14.2093 14.8702 13.8946 15.1377 13.5327 15.358C13.2022 15.5783 12.8718 15.7671 12.5099 15.9245C12.1322 16.0818 11.7231 16.2077 11.314 16.3021C10.8891 16.3965 10.4485 16.4437 9.99216 16.4437C10.4485 16.4437 10.8891 16.3965 11.3297 16.3021C11.7546 16.2077 12.1479 16.0818 12.5413 15.9245C12.9033 15.7671 13.2494 15.5783 13.5799 15.358C13.9261 15.1219 14.2565 14.8544 14.5555 14.5555C14.8702 14.2408 15.1535 13.8946 15.3895 13.5169C15.6255 13.1707 15.8144 12.7931 15.9717 12.3997C16.1133 12.0378 16.2392 11.6601 16.3179 11.2667C16.3966 10.8576 16.4438 10.4327 16.4438 10.0079C16.4438 9.5358 16.3966 9.0952 16.3179 8.67033Z" fill="#EA8242"/>
<path d="M4.01258 6.08969C3.76081 6.48308 3.54051 6.90794 3.36742 7.33281C3.21006 7.74193 3.08418 8.16679 2.98977 8.59166C2.89535 9.04799 2.84814 9.52006 2.84814 9.99213C2.84814 10.4799 2.89535 10.9835 3.0055 11.4713C3.09991 11.9276 3.24154 12.3682 3.43036 12.8088C3.60346 13.2022 3.80802 13.5956 4.05979 13.9575C4.31156 14.3352 4.61054 14.6971 4.95672 15.0433C5.31864 15.4052 5.6963 15.7042 6.10542 15.9717C6.49881 16.2234 6.92368 16.4437 7.34854 16.6168C7.75766 16.7742 8.18253 16.9001 8.60739 16.9945C9.06372 17.0889 9.53579 17.1361 10.0079 17.1361C10.4957 17.1361 10.9992 17.0889 11.487 16.9788C11.9433 16.8843 12.3839 16.7427 12.8245 16.5539C13.2179 16.3808 13.6113 16.1762 13.9732 15.9245C14.3509 15.6727 14.7128 15.3737 15.059 15.0275C15.4209 14.6656 15.7199 14.288 15.9874 13.8788C16.2392 13.4854 16.4595 13.0606 16.6326 12.6357C16.7899 12.2266 16.9158 11.8017 17.0102 11.3769C17.1046 10.9205 17.1518 10.4485 17.1518 9.97639C17.1518 9.48859 17.1046 8.98505 16.9945 8.49724C16.9001 8.04091 16.7585 7.60031 16.5696 7.15971C16.3965 6.76632 16.192 6.37293 15.9402 6.01101C15.6884 5.63336 15.3895 5.27144 15.0433 4.92525C14.6813 4.56333 14.3037 4.26436 13.8946 3.99685C13.5012 3.74508 13.0763 3.52478 12.6514 3.35169C12.2423 3.19433 11.8175 3.06845 11.3926 2.97403C10.9363 2.87962 10.4642 2.83241 9.99213 2.83241C9.50432 2.83241 9.00078 2.87962 8.51298 2.98977C8.05664 3.08418 7.61604 3.2258 7.17545 3.41463C6.78205 3.58772 6.38866 3.79229 6.02674 4.04406C5.64909 4.29583 5.28717 4.5948 4.94098 4.94099C4.5948 5.30291 4.28009 5.68056 4.01258 6.08969ZM7.41148 3.96538C7.80487 3.79229 8.22973 3.6664 8.63886 3.57199C9.07946 3.47757 9.53579 3.43037 9.99213 3.43037C10.417 3.43037 10.8576 3.47757 11.2824 3.55625C11.6758 3.63493 12.0692 3.74508 12.4469 3.90244C12.8403 4.05979 13.2337 4.26436 13.5956 4.50039C13.9732 4.75216 14.3194 5.0354 14.6499 5.35012C14.9646 5.66483 15.2321 5.99528 15.4681 6.34146C15.6884 6.68764 15.893 7.03383 16.0346 7.41148C16.2077 7.80487 16.3336 8.22974 16.428 8.63886C16.5224 9.07946 16.5696 9.5358 16.5696 9.99213C16.5696 10.417 16.5224 10.8576 16.4437 11.2825C16.3651 11.6758 16.2549 12.0692 16.0976 12.4469C15.9402 12.8403 15.7356 13.2337 15.4996 13.5956C15.2478 13.9575 14.9646 14.3194 14.6341 14.6341C14.3194 14.9489 13.989 15.2164 13.6428 15.4524C13.2966 15.6727 12.9504 15.8773 12.5728 16.0189C12.1794 16.192 11.7545 16.3179 11.3454 16.4123C10.9048 16.5067 10.4485 16.5539 9.99213 16.5539C9.56726 16.5539 9.12666 16.5067 8.7018 16.428C8.30841 16.3493 7.91502 16.2392 7.53737 16.0818C7.14397 15.9245 6.75058 15.7199 6.38866 15.4839C6.01101 15.2321 5.66482 14.9489 5.33438 14.6341C5.01966 14.3194 4.75216 13.989 4.51612 13.6428C4.29582 13.2966 4.09126 12.9504 3.94964 12.5728C3.77655 12.1794 3.65066 11.7545 3.55625 11.3454C3.46183 10.9048 3.41463 10.4485 3.41463 9.99213C3.41463 9.56727 3.46183 9.12667 3.54051 8.70181C3.61919 8.30842 3.72934 7.91503 3.8867 7.53737C4.04405 7.14398 4.24862 6.75059 4.48465 6.38867C4.72069 6.01101 5.01966 5.66483 5.33438 5.33438C5.64909 5.01967 5.97954 4.75216 6.32572 4.51613C6.68764 4.31156 7.04956 4.12274 7.41148 3.96538Z" fill="white"/>
<path d="M15.3579 6.42014L15.83 6.10543C15.5782 5.72778 15.2793 5.36586 14.9488 5.03541L14.5554 5.4288C14.8544 5.72778 15.1219 6.05822 15.3579 6.42014Z" fill="white"/>
<path d="M15.9244 7.4587L16.4437 7.2384C16.2706 6.84501 16.066 6.46735 15.83 6.10543L15.3579 6.42014C15.5782 6.73486 15.767 7.09678 15.9244 7.4587Z" fill="#EA8242"/>
<path d="M16.3178 8.67034L16.8686 8.56019C16.7742 8.10386 16.6326 7.66326 16.4595 7.2384L15.9402 7.45869C16.0975 7.83635 16.2234 8.24548 16.3178 8.67034Z" fill="white"/>
<path d="M14.5554 14.5555L14.9488 14.9489C15.295 14.6027 15.594 14.225 15.8615 13.8159L15.3894 13.5012C15.1534 13.8946 14.8701 14.2408 14.5554 14.5555Z" fill="#EA8242"/>
<path d="M4.01254 7.60032L3.49327 7.39575C3.33591 7.78914 3.21003 8.19827 3.13135 8.63887L3.6821 8.74902C3.74504 8.33989 3.85519 7.96223 4.01254 7.60032Z" fill="#EA8242"/>
<path d="M3.6821 11.3297L3.13135 11.4398C3.22576 11.8961 3.36738 12.3367 3.54047 12.7616L4.05975 12.5413C3.90239 12.1479 3.77651 11.7388 3.6821 11.3297Z" fill="white"/>
<path d="M3.66649 8.73328L3.11574 8.62313C3.02133 9.06373 2.97412 9.52006 2.97412 9.99213H3.5406C3.5406 9.56727 3.58781 9.14241 3.66649 8.73328Z" fill="white"/>
<path d="M3.5406 9.99213H2.97412C2.97412 10.4957 3.02133 10.9677 3.13148 11.4398L3.68222 11.3297C3.58781 10.8891 3.5406 10.4485 3.5406 9.99213Z" fill="#EA8242"/>
<path d="M4.0598 12.5413L3.54053 12.7616C3.71362 13.155 3.91818 13.5327 4.15422 13.8946L4.62629 13.5799C4.40599 13.2494 4.21716 12.9032 4.0598 12.5413Z" fill="#EA8242"/>
<path d="M5.42879 14.5555L5.0354 14.9646C5.38158 15.3108 5.75924 15.6098 6.16837 15.8773L6.48308 15.4052C6.10542 15.1534 5.7435 14.8702 5.42879 14.5555Z" fill="#EA8242"/>
<path d="M4.62637 13.5799L4.1543 13.8946C4.40607 14.2722 4.70504 14.6341 5.03549 14.9646L5.42888 14.5712C5.12991 14.2565 4.8624 13.926 4.62637 13.5799Z" fill="white"/>
<path d="M6.4673 15.4052L6.15259 15.8773C6.53024 16.129 6.93937 16.3493 7.37997 16.5224L7.58453 16.0032C7.20688 15.8301 6.82922 15.6255 6.4673 15.4052Z" fill="white"/>
<path d="M4.59477 6.46735L4.1227 6.15263C3.87093 6.53029 3.65063 6.93942 3.47754 7.38001L3.99682 7.58458C4.16991 7.20692 4.35874 6.82927 4.59477 6.46735Z" fill="white"/>
<path d="M9.99211 3.54052V2.97404C9.48857 2.97404 9.0165 3.02124 8.54443 3.13139L8.65458 3.68214C9.09518 3.58773 9.53578 3.54052 9.99211 3.54052Z" fill="#EA8242"/>
<path d="M7.45873 4.0598L7.23844 3.54052C6.84504 3.71361 6.46739 3.91818 6.10547 4.15421L6.42018 4.62628C6.73489 4.40598 7.09681 4.21715 7.45873 4.0598Z" fill="#EA8242"/>
<path d="M8.67022 3.68214L8.56008 3.13139C8.10374 3.22581 7.66314 3.36743 7.23828 3.54052L7.45858 4.0598C7.83624 3.90244 8.24536 3.77655 8.67022 3.68214Z" fill="white"/>
<path d="M5.42886 5.4288L5.03547 5.03541C4.68929 5.38159 4.39031 5.75925 4.1228 6.16837L4.59487 6.48309C4.83091 6.10543 5.11415 5.74351 5.42886 5.4288Z" fill="#EA8242"/>
<path d="M6.42014 4.62627L6.10542 4.15421C5.72777 4.40598 5.36585 4.70495 5.0354 5.0354L5.42879 5.42879C5.72777 5.12982 6.05822 4.86231 6.42014 4.62627Z" fill="white"/>
<path d="M16.3179 8.67034C16.4123 9.0952 16.4595 9.55153 16.4595 10.0079H17.026C17.026 9.50433 16.9788 9.03226 16.8686 8.56019L16.3179 8.67034Z" fill="#EA8242"/>
<path d="M16.3179 11.251L16.8686 11.3611C16.963 10.9205 17.0102 10.4642 17.0102 9.99213H16.4438C16.4438 10.4327 16.4123 10.8576 16.3179 11.251Z" fill="white"/>
<path d="M14.5555 5.4288L14.9489 5.03541C14.6027 4.68922 14.2251 4.39025 13.8159 4.12274L13.5012 4.59481C13.8946 4.84658 14.2408 5.11409 14.5555 5.4288Z" fill="#EA8242"/>
<path d="M15.9873 12.3997L16.5066 12.6042C16.6639 12.2109 16.7898 11.8017 16.8685 11.3611L16.3178 11.251C16.2391 11.6444 16.1289 12.0378 15.9873 12.3997Z" fill="#EA8242"/>
<path d="M7.60032 15.9874L7.39575 16.5067C7.78914 16.664 8.19827 16.7899 8.63887 16.8686L8.74902 16.3179C8.33989 16.2392 7.96223 16.129 7.60032 15.9874Z" fill="#EA8242"/>
<path d="M13.5169 4.59481L13.8316 4.12274C13.4539 3.87097 13.0448 3.65067 12.6042 3.47758L12.3997 3.99685C12.793 4.16995 13.1707 4.35877 13.5169 4.59481Z" fill="white"/>
<path d="M12.3997 4.01259L12.6042 3.49331C12.2109 3.33596 11.8017 3.21007 11.3611 3.13139L11.251 3.68214C11.6444 3.74508 12.0378 3.85523 12.3997 4.01259Z" fill="#EA8242"/>
<path d="M15.4053 13.5169L15.8773 13.8316C16.1291 13.454 16.3494 13.0448 16.5225 12.6043L16.0032 12.3997C15.8301 12.7931 15.6256 13.1707 15.4053 13.5169Z" fill="white"/>
<path d="M9.99219 16.4437V17.0102C10.4957 17.0102 10.9678 16.963 11.4399 16.8529L11.3297 16.3021C10.8891 16.3965 10.4485 16.4437 9.99219 16.4437Z" fill="#EA8242"/>
<path d="M11.251 3.66641L11.3612 3.11566C10.9206 3.02124 10.4643 2.97404 9.99219 2.97404V3.54052C10.4328 3.54052 10.8576 3.58773 11.251 3.66641Z" fill="white"/>
<path d="M8.7332 16.3179L8.62305 16.8686C9.06364 16.963 9.51998 17.0102 9.99205 17.0102V16.4437C9.56719 16.4437 9.14232 16.4123 8.7332 16.3179Z" fill="white"/>
<path d="M11.3296 16.3179L11.4397 16.8686C11.8961 16.7742 12.3367 16.6326 12.7615 16.4595L12.5412 15.9402C12.1478 16.0976 11.7387 16.2234 11.3296 16.3179Z" fill="white"/>
<path d="M12.5413 15.9245L12.7616 16.4437C13.155 16.2707 13.5326 16.0661 13.8945 15.8301L13.5798 15.358C13.2494 15.5783 12.9032 15.7671 12.5413 15.9245Z" fill="#EA8242"/>
<path d="M13.5798 15.358L13.8945 15.8301C14.2722 15.5783 14.6341 15.2793 14.9646 14.9489L14.5712 14.5555C14.2565 14.8544 13.926 15.1219 13.5798 15.358Z" fill="white"/>
<path d="M2.01416 11.2667C2.01416 11.2825 2.01416 11.3139 2.0299 11.3297C2.0299 11.3139 2.0299 11.2825 2.01416 11.2667Z" fill="#EA8242"/>
<path d="M15.7041 15.7042C16.0975 15.3108 16.4437 14.8859 16.7427 14.4138C16.4437 14.8859 16.0975 15.3108 15.7041 15.7042Z" fill="#EA8242"/>
<path d="M7.63184 17.7183C7.85213 17.7813 8.07243 17.8442 8.29273 17.8914C8.07243 17.8442 7.85213 17.7813 7.63184 17.7183Z" fill="#EA8242"/>
<path d="M7.31714 17.6082C7.41155 17.6397 7.49023 17.6711 7.58464 17.6869C7.49023 17.6711 7.41155 17.6397 7.31714 17.6082Z" fill="#EA8242"/>
<path d="M3.72926 4.89378C3.55617 5.11408 3.39881 5.33438 3.24146 5.55468C3.39881 5.33438 3.55617 5.11408 3.72926 4.89378Z" fill="white"/>
<path d="M3.99689 4.57907C3.91821 4.67348 3.8238 4.7679 3.74512 4.86231C3.83953 4.78363 3.91821 4.67348 3.99689 4.57907Z" fill="white"/>
<path d="M1.08583 14.1935C1.03862 14.0834 0.991414 13.9732 0.944207 13.8631C0.692437 13.2809 0.503609 12.6515 0.361988 12.022C0.299046 11.7545 0.267574 11.487 0.236103 11.2195L0.0944824 11.2352C0.125954 11.5185 0.173161 11.786 0.236103 12.0535C0.377724 12.6987 0.566552 13.3281 0.834058 13.926C0.881265 14.0362 0.928471 14.1463 0.991414 14.2565L1.08583 14.1935Z" fill="url(#paint0_linear_901_19829)"/>
<path d="M16.963 16.963C16.7113 17.2148 16.428 17.4666 16.1448 17.6869L16.2392 17.797C16.5224 17.561 16.8057 17.3249 17.0574 17.0574C17.5452 16.5696 17.9701 16.0346 18.3478 15.4681L18.2219 15.3895C17.86 15.9559 17.4351 16.491 16.963 16.963Z" fill="url(#paint1_linear_901_19829)"/>
<path d="M6.32579 19.1503C5.86945 18.9772 5.44459 18.7569 5.03547 18.5209L4.95679 18.6467C5.38165 18.8985 5.82225 19.1031 6.27858 19.2919C6.79786 19.4965 7.33287 19.6696 7.89935 19.7797L7.93082 19.6381C7.38008 19.5122 6.84506 19.3548 6.32579 19.1503Z" fill="url(#paint2_linear_901_19829)"/>
<path d="M19.0559 6.12117C19.3077 6.70339 19.4965 7.33281 19.6381 7.96224C19.7011 8.22974 19.7325 8.49725 19.764 8.76475L19.9056 8.74902C19.8742 8.46578 19.827 8.19827 19.764 7.93077C19.6224 7.2856 19.4336 6.65618 19.1661 6.05822C19.1188 5.94807 19.0716 5.83793 19.0087 5.72778L18.8828 5.79072C18.9615 5.90087 19.0087 6.01102 19.0559 6.12117Z" fill="url(#paint3_linear_901_19829)"/>
<path d="M13.6585 0.849724C14.1148 1.02282 14.5397 1.24312 14.9488 1.47915L15.0275 1.35327C14.6026 1.10149 14.162 0.896931 13.7057 0.708104C13.1864 0.50354 12.6514 0.330448 12.0849 0.220299L12.0535 0.36192C12.6199 0.487805 13.155 0.645161 13.6585 0.849724Z" fill="url(#paint4_linear_901_19829)"/>
<path d="M0.220299 11.2195C0.173092 10.8104 0.141621 10.4013 0.141621 9.99214C0.141621 9.33124 0.204563 8.68608 0.330448 8.07239C0.456334 7.47443 0.629426 6.89221 0.849725 6.34147C1.08576 5.74351 1.38474 5.16129 1.74666 4.62628L1.76239 4.61055L1.63651 4.53187L1.62077 4.5476C1.25885 5.08262 0.959874 5.66483 0.708104 6.27852C0.487805 6.84501 0.314713 7.42723 0.188828 8.04092C0.0629426 8.67034 0 9.33124 0 9.99214C0 10.417 0.0314713 10.8261 0.0786782 11.2353L0.220299 11.2195Z" fill="#EA8242"/>
<path d="M5.03536 18.5051C4.89374 18.4264 4.75212 18.332 4.6105 18.2376C4.04401 17.86 3.509 17.4351 3.0212 16.9473C2.56486 16.4909 2.15574 15.9874 1.79382 15.4524C1.52631 15.0433 1.29028 14.6184 1.06998 14.1778L0.944092 14.2408C1.14866 14.6971 1.40043 15.1219 1.66793 15.5311C2.02985 16.0818 2.45471 16.5854 2.91105 17.0417C3.39885 17.5295 3.93386 17.9701 4.51608 18.3478C4.6577 18.4422 4.79932 18.5208 4.94094 18.6153L5.03536 18.5051Z" fill="#EA8242"/>
<path d="M16.1448 17.6869C15.9245 17.86 15.7042 18.033 15.4681 18.1904C14.9646 18.5208 14.4296 18.8198 13.8788 19.0559C13.2966 19.3076 12.6672 19.4965 12.0378 19.6381C11.3769 19.7797 10.7002 19.8426 10.0079 19.8426C9.34698 19.8426 8.70182 19.7797 8.08813 19.6538C8.04092 19.6381 7.99372 19.6381 7.94651 19.6223L7.91504 19.764C7.96225 19.7797 8.00945 19.7797 8.05666 19.7954C8.68609 19.9213 9.34698 19.9843 10.0079 19.9843C10.716 19.9843 11.4084 19.9056 12.0692 19.764C12.7144 19.6223 13.3438 19.4335 13.9418 19.166C14.5083 18.93 15.0433 18.631 15.5626 18.2848C15.7986 18.1275 16.0346 17.9544 16.2549 17.7813L16.1448 17.6869Z" fill="#EA8242"/>
<path d="M19.9213 8.74902L19.7796 8.76475C19.8268 9.17388 19.8583 9.56727 19.8583 9.99213C19.8583 10.653 19.7954 11.2982 19.6695 11.9119C19.5436 12.5098 19.3705 13.0921 19.1502 13.6428C18.9142 14.2408 18.6152 14.823 18.2533 15.358L18.2375 15.3737L18.3634 15.4524L18.3792 15.4367C18.7411 14.8859 19.0401 14.3037 19.2918 13.69C19.5121 13.1235 19.701 12.5413 19.8111 11.9276C19.937 11.2982 19.9999 10.6373 19.9999 9.9764C19.9999 9.56727 19.9685 9.15814 19.9213 8.74902Z" fill="#EA8242"/>
<path d="M14.949 1.47915C15.0906 1.55783 15.2322 1.65224 15.3738 1.74666C15.9403 2.12431 16.4753 2.54918 16.9631 3.03698C17.4195 3.49331 17.8286 3.99686 18.1905 4.53187C18.458 4.94099 18.6941 5.36586 18.9144 5.80645L19.0402 5.74351C18.8357 5.30291 18.5839 4.86232 18.3164 4.45319C17.9545 3.90244 17.5296 3.3989 17.0733 2.94257C16.5855 2.45476 16.0505 2.01416 15.4683 1.63651C15.3266 1.5421 15.185 1.46342 15.0434 1.369L14.949 1.47915Z" fill="#EA8242"/>
<path d="M3.83953 2.31314C4.05983 2.14005 4.28013 1.96696 4.51616 1.8096C5.0197 1.47915 5.55472 1.18017 6.10546 0.944138C6.68768 0.692368 7.31711 0.503541 7.94653 0.36192C8.60743 0.220299 9.28406 0.157356 9.97643 0.157356C10.6373 0.157356 11.2825 0.220299 11.8962 0.346184C11.9434 0.36192 11.9906 0.36192 12.0378 0.377655L12.0693 0.236035C12.0221 0.220299 11.9749 0.220299 11.9277 0.204563C11.314 0.0629426 10.6688 0 9.99217 0C9.28406 0 8.60743 0.0786782 7.9308 0.220299C7.28564 0.36192 6.65621 0.550747 6.05826 0.818253C5.49177 1.05429 4.95676 1.35327 4.43749 1.69945C4.20145 1.85681 3.96542 2.0299 3.74512 2.20299L3.83953 2.31314Z" fill="#EA8242"/>
<path d="M3.03708 3.03698C3.28885 2.78521 3.57209 2.53344 3.85533 2.31314L3.76092 2.20299C3.47768 2.43902 3.19444 2.67506 2.94267 2.94256C2.45486 3.43037 2.03 3.94964 1.65234 4.53186L1.77823 4.61054C2.12441 4.02832 2.54928 3.50905 3.03708 3.03698Z" fill="url(#paint5_linear_901_19829)"/>
<path d="M11.7073 18.4264C11.7073 18.2061 11.8961 18.0173 12.1164 18.0173C12.3367 18.0173 12.5255 18.2061 12.5255 18.4264C12.5255 18.6467 12.3367 18.8356 12.1164 18.8356C11.8961 18.8356 11.7073 18.6467 11.7073 18.4264Z" fill="white"/>
<path d="M7.58447 1.57356C7.58447 1.35326 7.7733 1.16444 7.9936 1.16444C8.2139 1.16444 8.40273 1.35326 8.40273 1.57356C8.40273 1.79386 8.2139 1.98269 7.9936 1.98269C7.75756 1.98269 7.58447 1.79386 7.58447 1.57356Z" fill="white"/>
<path d="M1.07007 8.46577C1.07007 8.24548 1.2589 8.05665 1.47919 8.05665C1.69949 8.05665 1.88832 8.24548 1.88832 8.46577C1.88832 8.68607 1.69949 8.8749 1.47919 8.8749C1.24316 8.8749 1.07007 8.68607 1.07007 8.46577Z" fill="white"/>
<path d="M3.33594 16.0032C3.33594 15.7829 3.52476 15.594 3.74506 15.594C3.96536 15.594 4.15419 15.7829 4.15419 16.0032C4.15419 16.2235 3.96536 16.4123 3.74506 16.4123C3.50903 16.4123 3.33594 16.2235 3.33594 16.0032Z" fill="white"/>
<path d="M18.0015 11.9906C18.0015 11.7703 18.1903 11.5814 18.4106 11.5814C18.6309 11.5814 18.8197 11.7703 18.8197 11.9906C18.8197 12.2109 18.6309 12.3997 18.4106 12.3997C18.1746 12.3997 18.0015 12.2109 18.0015 11.9906Z" fill="white"/>
<path d="M15.9873 4.21716C15.9873 3.99686 16.1761 3.80803 16.3964 3.80803C16.6167 3.80803 16.8056 3.99686 16.8056 4.21716C16.8056 4.43745 16.6167 4.62628 16.3964 4.62628C16.1761 4.62628 15.9873 4.43745 15.9873 4.21716Z" fill="white"/>
<path d="M15.4052 13.5169C15.6413 13.155 15.8301 12.7773 15.9874 12.3839C16.1291 12.0063 16.2549 11.6286 16.3179 11.251C16.3966 10.8419 16.4438 10.417 16.4438 9.99213C16.4438 9.55153 16.3966 9.0952 16.3022 8.67033C16.2235 8.26121 16.0819 7.85208 15.9245 7.45869C15.7671 7.09677 15.5783 6.75059 15.358 6.42014C15.3108 6.34146 15.2479 6.26278 15.2007 6.1841C15.1849 6.16837 15.1692 6.1369 15.1535 6.12116C15.1062 6.07395 15.0748 6.01101 15.0276 5.9638C15.0118 5.93233 14.9961 5.9166 14.9646 5.88513C14.9174 5.82218 14.8545 5.75924 14.7915 5.6963L14.7758 5.66483C14.7129 5.58615 14.6342 5.50747 14.5555 5.42879C14.4768 5.35011 14.3981 5.27144 14.3195 5.19276L14.3037 5.17702C14.2408 5.11408 14.1621 5.05114 14.0992 5.00393C14.0677 4.98819 14.052 4.95672 14.0205 4.94099C13.9575 4.89378 13.9103 4.84657 13.8474 4.8151C13.8159 4.79937 13.8002 4.78363 13.7687 4.7679C13.69 4.70495 13.6114 4.65775 13.5327 4.5948C13.1708 4.35877 12.7931 4.16994 12.3997 4.01259C12.0221 3.87096 11.6444 3.74508 11.2668 3.68214C10.8576 3.60346 10.4328 3.55625 10.0079 3.55625C9.5673 3.55625 9.11097 3.60346 8.68611 3.69787C8.27698 3.77655 7.86785 3.91817 7.47446 4.07553C7.11254 4.23288 6.76636 4.42171 6.43591 4.64201C6.08972 4.87805 5.75928 5.14555 5.4603 5.44453C5.14559 5.75924 4.86234 6.12116 4.61057 6.48308C4.37454 6.845 4.18571 7.22266 4.02836 7.61605C3.88673 7.9937 3.76085 8.37136 3.69791 8.74901C3.61923 9.15814 3.57202 9.583 3.57202 10.0079C3.57202 10.4485 3.61923 10.9048 3.71364 11.3297C3.79232 11.7388 3.93394 12.1479 4.0913 12.5413C4.24865 12.9032 4.43748 13.2494 4.65778 13.5799C4.70499 13.6585 4.76793 13.7372 4.81514 13.8159C4.83087 13.8316 4.84661 13.8631 4.86234 13.8788C4.90955 13.926 4.94102 13.989 4.98823 14.0362C5.00397 14.0677 5.0197 14.0834 5.05117 14.1149C5.09838 14.1778 5.16132 14.2408 5.22426 14.3037C5.30294 14.3824 5.38162 14.4768 5.4603 14.5555C5.77501 14.8702 6.13693 15.1534 6.49885 15.4052C6.86077 15.6412 7.23843 15.8301 7.63182 15.9874C8.00947 16.129 8.38713 16.2549 8.76478 16.3179C9.17391 16.3965 9.59877 16.4437 10.0236 16.4437C10.4642 16.4437 10.9206 16.3965 11.3454 16.3021C11.7546 16.2234 12.1637 16.0818 12.5571 15.9245C12.919 15.7671 13.2652 15.5783 13.5956 15.358C13.9418 15.1219 14.2723 14.8544 14.5712 14.5555C14.8859 14.2408 15.1692 13.8946 15.4052 13.5169ZM15.2479 6.24705C15.2321 6.23131 15.2321 6.21557 15.2164 6.19984C15.2321 6.21557 15.2321 6.23131 15.2479 6.24705ZM15.122 6.08969C15.0905 6.05822 15.059 6.01101 15.0276 5.97954C15.059 6.01101 15.0905 6.04248 15.122 6.08969ZM14.9646 5.86939C14.9174 5.80645 14.8545 5.74351 14.8073 5.68056C14.8545 5.74351 14.9017 5.80645 14.9646 5.86939ZM14.288 5.17702C14.2251 5.11408 14.1621 5.06687 14.0834 5.00393C14.1621 5.06687 14.2251 5.12982 14.288 5.17702ZM13.989 4.92525C13.9418 4.89378 13.9103 4.86231 13.8631 4.83084C13.9103 4.86231 13.9575 4.89378 13.989 4.92525ZM13.7372 4.73642C13.7215 4.72069 13.7058 4.72069 13.69 4.70495C13.7058 4.72069 13.7215 4.73642 13.7372 4.73642ZM4.73646 13.7372C4.75219 13.7529 4.75219 13.7687 4.76793 13.7844C4.76793 13.7687 4.75219 13.7529 4.73646 13.7372ZM4.86234 13.9103C4.89382 13.9418 4.92529 13.989 4.95676 14.0205C4.92529 13.989 4.89382 13.9418 4.86234 13.9103ZM5.03544 14.1149C5.08264 14.1778 5.14559 14.2408 5.19279 14.3037C5.14559 14.2408 5.08264 14.1778 5.03544 14.1149Z" fill="#EA8242"/>
<path d="M16.1763 8.70181C16.0977 8.29268 15.956 7.89929 15.7987 7.52164C15.6413 7.15972 15.4525 6.82927 15.2479 6.49882C15.0119 6.15264 14.7601 5.83792 14.4612 5.53895C14.1464 5.22423 13.816 4.95673 13.4383 4.72069C13.0922 4.50039 12.7302 4.29583 12.3368 4.15421C11.9749 4.01259 11.613 3.90244 11.2196 3.82376C11.1252 3.80803 11.0465 3.79229 10.9521 3.77655C10.9206 3.77655 10.8892 3.76082 10.8734 3.76082C10.8105 3.74508 10.7475 3.74508 10.6689 3.72935C10.6374 3.72935 10.6059 3.72935 10.5745 3.71361C10.4958 3.71361 10.4014 3.69788 10.3227 3.69788H10.2912C10.1811 3.69788 10.0866 3.69788 9.9765 3.69788C9.86635 3.69788 9.7562 3.69788 9.64605 3.71361H9.61458C9.52016 3.71361 9.44148 3.72935 9.34707 3.72935C9.3156 3.72935 9.28413 3.72935 9.25266 3.74508C9.18971 3.76082 9.11104 3.76082 9.04809 3.77655C9.01662 3.77655 8.98515 3.79229 8.95368 3.79229C8.85927 3.80803 8.76485 3.82376 8.67044 3.8395C8.26131 3.91817 7.86792 4.0598 7.49026 4.21715C7.12834 4.37451 6.7979 4.56334 6.46745 4.7679C6.12126 5.00393 5.80655 5.2557 5.50757 5.55468C5.19286 5.86939 4.92536 6.19984 4.68932 6.5775C4.46902 6.92368 4.26446 7.2856 4.12284 7.67899C3.98122 8.04091 3.87107 8.40283 3.79239 8.79622C3.71371 9.18961 3.6665 9.61448 3.6665 10.0236C3.6665 10.4642 3.71371 10.9048 3.80812 11.3297C3.8868 11.7388 4.01269 12.1322 4.18578 12.5098C4.34314 12.8718 4.53196 13.2022 4.73653 13.5327C4.97256 13.8788 5.22433 14.1935 5.52331 14.4925C5.83802 14.8072 6.16847 15.0747 6.54613 15.3108C6.89231 15.5311 7.25423 15.7356 7.64762 15.8773C8.00954 16.0189 8.37146 16.129 8.76485 16.2077C8.85927 16.2234 8.93794 16.2392 9.03236 16.2549C9.06383 16.2549 9.0953 16.2707 9.11104 16.2707C9.17398 16.2864 9.23692 16.2864 9.3156 16.3021C9.34707 16.3021 9.37854 16.3021 9.41001 16.3179C9.48869 16.3336 9.58311 16.3336 9.66178 16.3336C9.77193 16.3336 9.88208 16.3493 10.008 16.3493C10.4486 16.3493 10.8892 16.3021 11.314 16.2077C11.7232 16.129 12.1165 16.0031 12.4942 15.8301C12.8561 15.6727 13.1866 15.4839 13.517 15.2793C13.8632 15.0433 14.1779 14.7915 14.4769 14.4925C14.7916 14.1778 15.0591 13.8474 15.2951 13.4697C15.5154 13.1235 15.72 12.7616 15.8616 12.3682C16.0032 12.0063 16.1134 11.6444 16.1921 11.251C16.2708 10.8576 16.318 10.4327 16.318 10.0236C16.318 9.55153 16.2708 9.11094 16.1763 8.70181ZM11.0465 3.77655C11.0308 3.77655 11.015 3.77655 10.9836 3.76082C10.9993 3.76082 11.015 3.76082 11.0465 3.77655ZM10.842 3.74508C10.7947 3.74508 10.7475 3.72935 10.7003 3.72935C10.7475 3.72935 10.7947 3.72935 10.842 3.74508ZM10.5745 3.71361C10.4958 3.71361 10.4171 3.69788 10.3384 3.69788C10.4171 3.69788 10.4958 3.69788 10.5745 3.71361ZM9.25266 3.72935C9.20545 3.72935 9.15824 3.74508 9.0953 3.74508C9.15824 3.74508 9.20545 3.72935 9.25266 3.72935ZM8.95368 3.77655C8.93794 3.77655 8.92221 3.77655 8.89074 3.79229C8.92221 3.77655 8.93794 3.77655 8.95368 3.77655ZM8.95368 16.2234C8.96942 16.2234 8.98515 16.2234 9.01662 16.2392C8.98515 16.2234 8.96942 16.2234 8.95368 16.2234ZM9.15824 16.2549C9.20545 16.2549 9.25266 16.2707 9.29986 16.2707C9.25266 16.2707 9.20545 16.2549 9.15824 16.2549ZM9.41001 16.2864C9.48869 16.2864 9.56737 16.3021 9.64605 16.3021C9.56737 16.3021 9.48869 16.2864 9.41001 16.2864Z" fill="#EA8242"/>
<path d="M10.9344 10.9911H9.85146V11.4714H11.799V12.24H9.85146V13.1133H8.655V12.24H8V11.4714H8.655V10.9911H8V9.93438H8.655V7H10.9344C11.5108 7 11.9969 7.19795 12.3928 7.59386C12.7946 7.98977 12.9954 8.46719 12.9954 9.02612C12.9954 9.58505 12.7975 10.0537 12.4016 10.4322C12.0057 10.8048 11.5166 10.9911 10.9344 10.9911ZM9.85146 8.12659V9.93438H10.9344C11.1789 9.93438 11.3827 9.84705 11.5457 9.67238C11.7146 9.49772 11.799 9.2823 11.799 9.02612C11.799 8.76995 11.7146 8.55744 11.5457 8.38859C11.3827 8.21393 11.1789 8.12659 10.9344 8.12659H9.85146Z" fill="white"/>
</g>
<defs>
<linearGradient id="paint0_linear_901_19829" x1="0.108446" y1="12.8696" x2="0.697129" y2="12.6952" gradientUnits="userSpaceOnUse">
<stop stop-color="#908D8D"/>
<stop offset="0.082379" stop-color="#9D9B9B"/>
<stop offset="0.3703" stop-color="#C7C6C6"/>
<stop offset="0.6293" stop-color="#E6E5E5"/>
<stop offset="0.8481" stop-color="#F8F8F8"/>
<stop offset="1" stop-color="white"/>
</linearGradient>
<linearGradient id="paint1_linear_901_19829" x1="17.8297" y1="17.1696" x2="16.9822" y2="16.3221" gradientUnits="userSpaceOnUse">
<stop stop-color="#908D8D"/>
<stop offset="0.082379" stop-color="#9D9B9B"/>
<stop offset="0.3703" stop-color="#C7C6C6"/>
<stop offset="0.6293" stop-color="#E6E5E5"/>
<stop offset="0.8481" stop-color="#F8F8F8"/>
<stop offset="1" stop-color="white"/>
</linearGradient>
<linearGradient id="paint2_linear_901_19829" x1="6.29661" y1="19.5445" x2="6.52176" y2="18.9614" gradientUnits="userSpaceOnUse">
<stop stop-color="#908D8D"/>
<stop offset="0.082379" stop-color="#9D9B9B"/>
<stop offset="0.3703" stop-color="#C7C6C6"/>
<stop offset="0.6293" stop-color="#E6E5E5"/>
<stop offset="0.8481" stop-color="#F8F8F8"/>
<stop offset="1" stop-color="white"/>
</linearGradient>
<linearGradient id="paint3_linear_901_19829" x1="20.1045" y1="7.09891" x2="19.0407" y2="7.34443" gradientUnits="userSpaceOnUse">
<stop stop-color="#908D8D"/>
<stop offset="0.082379" stop-color="#9D9B9B"/>
<stop offset="0.3703" stop-color="#C7C6C6"/>
<stop offset="0.6293" stop-color="#E6E5E5"/>
<stop offset="0.8481" stop-color="#F8F8F8"/>
<stop offset="1" stop-color="white"/>
</linearGradient>
<linearGradient id="paint4_linear_901_19829" x1="13.883" y1="0.0177932" x2="13.469" y2="1.02006" gradientUnits="userSpaceOnUse">
<stop stop-color="#908D8D"/>
<stop offset="0.082379" stop-color="#9D9B9B"/>
<stop offset="0.3703" stop-color="#C7C6C6"/>
<stop offset="0.6293" stop-color="#E6E5E5"/>
<stop offset="0.8481" stop-color="#F8F8F8"/>
<stop offset="1" stop-color="white"/>
</linearGradient>
<linearGradient id="paint5_linear_901_19829" x1="1.91337" y1="2.63106" x2="2.8923" y2="3.53785" gradientUnits="userSpaceOnUse">
<stop stop-color="#908D8D"/>
<stop offset="0.082379" stop-color="#9D9B9B"/>
<stop offset="0.3703" stop-color="#C7C6C6"/>
<stop offset="0.6293" stop-color="#E6E5E5"/>
<stop offset="0.8481" stop-color="#F8F8F8"/>
<stop offset="1" stop-color="white"/>
</linearGradient>
<clipPath id="clip0_901_19829">
<rect width="20" height="20" fill="white"/>
</clipPath>
</defs>
</svg>
