<svg width="29" height="29" viewBox="0 0 29 29" fill="none" xmlns="http://www.w3.org/2000/svg">
<path d="M24.1302 12.0834H4.79688V21.75C4.79688 25.375 6.00521 26.5834 9.63021 26.5834H19.2969C22.9219 26.5834 24.1302 25.375 24.1302 21.75V12.0834Z" stroke="#006BDB" stroke-width="1.5" stroke-miterlimit="10" stroke-linecap="round" stroke-linejoin="round"/>
<path d="M25.9793 8.45829V9.66663C25.9793 10.9958 25.3389 12.0833 23.5627 12.0833H5.43766C3.58891 12.0833 3.021 10.9958 3.021 9.66663V8.45829C3.021 7.12913 3.58891 6.04163 5.43766 6.04163H23.5627C25.3389 6.04163 25.9793 7.12913 25.9793 8.45829Z" stroke="#006BDB" stroke-width="1.5" stroke-miterlimit="10" stroke-linecap="round" stroke-linejoin="round"/>
<path d="M14.065 6.04166H7.39502C6.98419 5.59457 6.99627 4.90582 7.43127 4.47082L9.14711 2.75499C9.59419 2.30791 10.3313 2.30791 10.7784 2.75499L14.065 6.04166Z" stroke="#006BDB" stroke-width="1.5" stroke-miterlimit="10" stroke-linecap="round" stroke-linejoin="round"/>
<path d="M21.5929 6.04166H14.9229L18.2095 2.75499C18.6566 2.30791 19.3937 2.30791 19.8408 2.75499L21.5566 4.47082C21.9916 4.90582 22.0037 5.59457 21.5929 6.04166Z" stroke="#006BDB" stroke-width="1.5" stroke-miterlimit="10" stroke-linecap="round" stroke-linejoin="round"/>
<path d="M10.8027 12.0834V18.2942C10.8027 19.2609 11.8661 19.8288 12.6757 19.3092L13.8115 18.56C14.2223 18.2942 14.7419 18.2942 15.1407 18.56L16.2161 19.285C17.0136 19.8167 18.089 19.2488 18.089 18.2821V12.0834H10.8027Z" stroke="#006BDB" stroke-width="1.5" stroke-miterlimit="10" stroke-linecap="round" stroke-linejoin="round"/>
</svg>
