<svg width="7" height="21" viewBox="0 0 7 21" fill="none" xmlns="http://www.w3.org/2000/svg">
<path d="M0.599976 20.248V19.3776L1.60638 19.2689C2.09598 19.2145 2.34078 18.8881 2.34078 18.2896V10.592L0.899176 9.36805V8.98725L4.65278 8.00805H4.87038V19.2689L6.63838 19.3776V20.248H0.599976ZM3.61918 4.30885C3.12958 4.30885 2.71251 4.13658 2.36798 3.79205C2.04158 3.44752 1.87838 3.03045 1.87838 2.54085C1.87838 2.05125 2.04158 1.64325 2.36798 1.31685C2.71251 0.972315 3.12958 0.800049 3.61918 0.800049C4.09064 0.800049 4.49864 0.972315 4.84318 1.31685C5.18771 1.64325 5.35998 2.05125 5.35998 2.54085C5.35998 3.03045 5.18771 3.44752 4.84318 3.79205C4.49864 4.13658 4.09064 4.30885 3.61918 4.30885Z" fill="#006BDB"/>
</svg>
