<svg width="20" height="20" viewBox="0 0 20 20" fill="none" xmlns="http://www.w3.org/2000/svg">
<g clip-path="url(#clip0_131_18650)">
<path d="M17.0716 17.0716C20.9768 13.1663 20.9768 6.83466 17.0716 2.92942C13.1664 -0.975824 6.83471 -0.975823 2.92947 2.92942C-0.975776 6.83466 -0.975777 13.1663 2.92947 17.0716C6.83471 20.9768 13.1664 20.9768 17.0716 17.0716Z" fill="#2D2D2D"/>
<path d="M10.0162 19.9484C15.5086 19.9484 19.9611 15.4959 19.9611 10.0035C19.9611 4.51107 15.5086 0.0585938 10.0162 0.0585938C4.52377 0.0585938 0.0712891 4.51107 0.0712891 10.0035C0.0712891 15.4959 4.52377 19.9484 10.0162 19.9484Z" fill="url(#paint0_radial_131_18650)"/>
<path d="M3.32245 6.61768C3.32245 6.61768 3.41751 6.98621 3.73575 7.00481C4.054 7.02341 5.51229 7.3265 6.35337 7.70468C6.35337 7.70468 6.67507 7.84245 6.91065 7.77976C7.14624 7.71708 6.91065 8.33773 6.91065 8.33773C6.91065 8.33773 6.99607 8.02568 6.29069 7.76116C5.6783 7.53246 4.94399 7.17978 3.71096 7.08678C3.50501 7.08462 3.30309 7.14386 3.13095 7.25693C2.38699 7.72259 2.84163 6.96692 2.84163 6.96692L3.11717 6.83535L3.29627 6.61768" fill="#2D2D2D"/>
<path d="M16.9432 6.59863C16.9432 6.59863 16.8488 6.96717 16.5299 6.98645C16.211 7.00574 14.7534 7.30746 13.9123 7.68563C13.9123 7.68563 13.5913 7.8234 13.355 7.76072C13.1187 7.69803 13.355 8.31869 13.355 8.31869C13.355 8.31869 13.2696 8.00664 13.975 7.74212C14.5874 7.51342 15.3217 7.16073 16.5547 7.06774C16.7607 7.06558 16.9626 7.12481 17.1347 7.23788C17.8787 7.70423 17.424 6.94788 17.424 6.94788L17.1485 6.81631L16.9687 6.59863" fill="#2D2D2D"/>
<path d="M1.58375 9.67966C1.58375 9.67966 1.51487 9.7637 1.50798 10.3217C1.50109 10.8796 1.80143 13.128 2.66111 13.9312C3.52079 14.7344 3.64409 14.5457 3.64409 14.5457L2.70864 14.1957C2.51419 13.9391 2.34029 13.6676 2.18856 13.3836C1.71601 12.5232 1.42325 11.0016 1.40396 10.1136C1.38467 9.22571 1.25586 9.53776 1.25586 9.53776C1.25586 9.53776 1.40672 9.37725 1.43565 9.35797C1.46458 9.33868 1.58375 9.67966 1.58375 9.67966Z" fill="#2D2D2D"/>
<path d="M18.5021 9.51298C18.5021 9.51298 18.6047 9.55018 18.6158 10.1075C18.6268 10.6647 18.3843 13.0213 17.526 13.8272C16.6677 14.6332 16.5479 14.4431 16.5479 14.4431L17.4799 14.0883C17.6724 13.832 17.8444 13.5609 17.9944 13.2775C18.4649 12.4165 18.6998 10.7874 18.7163 9.90218C18.7329 9.01701 18.923 9.4317 18.923 9.4317C18.923 9.4317 18.7715 9.2712 18.7432 9.2526C18.715 9.234 18.5021 9.51298 18.5021 9.51298Z" fill="#2D2D2D"/>
<path d="M7.88694 11.4749C7.88694 11.4749 8.0192 11.6816 7.78292 12.0894C7.54665 12.4972 5.95886 14.8393 5.95886 14.8393C5.95886 14.8393 5.86449 14.9908 5.42982 14.9812C4.99516 14.9715 5.9809 15.6425 6.01534 15.69C6.04662 15.7585 6.06596 15.8319 6.07252 15.907C6.07252 15.907 5.89824 15.2595 6.06287 14.8462C6.22751 14.4329 7.86834 12.1176 7.86834 12.1176C7.99867 11.9538 8.17209 11.8295 8.36913 11.7587C8.67154 11.6644 8.36913 11.4185 8.36913 11.4185L7.88694 11.4749Z" fill="#2D2D2D"/>
<path d="M12.209 11.3475C12.209 11.3475 12.076 11.5542 12.3123 11.962C12.5486 12.3698 14.1377 14.7118 14.1377 14.7118C14.1377 14.7118 14.2321 14.8634 14.6668 14.8537C15.1014 14.8441 14.1191 15.515 14.0813 15.5626C14.0501 15.6311 14.031 15.7045 14.0248 15.7795C14.0248 15.7795 14.1984 15.1279 14.0337 14.7215C13.8691 14.3151 12.2289 11.9902 12.2289 11.9902C12.0986 11.8263 11.9252 11.7021 11.7282 11.6313C11.4257 11.5369 11.7282 11.291 11.7282 11.291L12.209 11.3475Z" fill="#2D2D2D"/>
<path d="M7.75459 17.7311C7.75459 17.7311 7.96125 18.1561 10.0168 18.2133C12.0723 18.2705 12.6123 17.5327 12.6123 17.5327L12.5648 17.7593C12.5648 17.7593 11.9951 18.2939 10.0161 18.2553C8.13208 18.2195 7.75391 17.842 7.75391 17.842L7.75459 17.7311Z" fill="#2D2D2D"/>
<path d="M3.28464 4.17521C3.60185 3.40307 4.13736 2.7402 4.82559 2.26779C5.98768 1.4584 7.33919 1.32545 7.33919 1.32545V1.24072C7.33919 1.24072 5.92361 1.40536 4.76911 2.26848C3.6146 3.13161 3.12207 4.16075 3.12207 4.16075V4.35914L3.28464 4.17521Z" fill="#2D2D2D"/>
<path d="M16.6858 4.07658C16.368 3.30515 15.8323 2.64304 15.1442 2.17123C13.9814 1.36183 12.6299 1.22957 12.6299 1.22957V1.14209C12.6299 1.14209 14.0455 1.30672 15.1979 2.17123C16.3503 3.03573 16.8449 4.06349 16.8449 4.06349V4.26188L16.6858 4.07658Z" fill="#2D2D2D"/>
<path d="M9.89104 2.13343C9.8997 2.1344 9.90824 2.13625 9.91653 2.13894C9.97232 2.15478 10.1039 2.2216 10.1232 2.48819C10.1487 2.82848 10.0295 5.43025 10.0295 5.43025C10.0295 5.43025 10.0295 5.70097 9.69472 5.84356C9.35994 5.98615 10.0853 5.92553 10.0853 5.92553L10.3057 5.81807C10.3057 5.81807 10.0729 5.57216 10.0853 5.4275C10.0977 5.28284 10.1542 2.73273 10.1866 2.45374C10.2355 2.06454 10.407 2.00668 10.407 2.00668L10.0295 1.9502L9.89104 2.13343Z" fill="#2D2D2D"/>
<path d="M5.93945 18.6857C5.97719 18.7036 6.01057 18.7294 6.03727 18.7615C6.0786 18.8118 6.2825 19.1748 6.47813 19.3009C6.31251 19.1451 6.17971 18.9577 6.08755 18.7498L6.04967 18.6348L5.93945 18.6857Z" fill="#2D2D2D"/>
<path d="M14.2184 18.6534C14.1808 18.6715 14.1475 18.6974 14.1206 18.7292C14.0799 18.7795 13.8753 19.1425 13.6797 19.2686C13.8453 19.1127 13.9781 18.9254 14.0703 18.7175L14.1082 18.6011L14.2184 18.6534Z" fill="#2D2D2D"/>
<path d="M2.81696 16.1956C2.81696 16.1956 2.30721 16.1901 1.97656 15.8574C1.97656 15.8574 2.23626 16.2094 2.85002 16.257L2.81696 16.1956Z" fill="#2D2D2D"/>
<path d="M17.3749 16.1185C17.3749 16.1185 17.8103 16.1137 18.0927 15.7803C18.0927 15.7803 17.8709 16.133 17.3467 16.1798L17.3749 16.1185Z" fill="#2D2D2D"/>
<path d="M0.515892 8.85718C0.515892 8.85718 0.150114 9.2016 0.0839844 9.49298L0.0991391 9.25395C0.0991391 9.25395 0.374678 8.86338 0.515892 8.80069C0.657106 8.73801 0.515892 8.85718 0.515892 8.85718Z" fill="#2D2D2D"/>
<path d="M1.80733 4.79362C1.80733 4.79362 1.74602 4.5415 1.8273 4.35895L1.96025 4.1709C1.96025 4.1709 1.75773 4.5353 1.80733 4.79362Z" fill="#2D2D2D"/>
<path d="M19.5099 8.84561C19.5099 8.84561 19.8756 9.19003 19.9418 9.48073L19.9266 9.24238C19.9266 9.24238 19.6511 8.85181 19.5133 8.78843C19.3755 8.72506 19.5099 8.84561 19.5099 8.84561Z" fill="#2D2D2D"/>
<path d="M18.2216 4.7819C18.2216 4.7819 18.2829 4.52978 18.2023 4.34723L18.0693 4.15918C18.0693 4.15918 18.2705 4.52358 18.2216 4.7819Z" fill="#2D2D2D"/>
<path d="M11.832 6.67416C11.1693 6.24501 10.0293 5.60645 10.0293 5.60645C10.0293 5.60645 8.88991 6.24501 8.22655 6.67416C7.56319 7.10331 6.60156 7.89342 6.60156 7.89342C6.60156 7.89342 6.69593 8.53611 7.20637 9.99096C7.42883 10.6044 7.68761 11.2041 7.98132 11.7868C8.66128 11.8633 9.34502 11.9012 10.0293 11.9004C11.0426 11.9004 12.0779 11.7868 12.0779 11.7868C12.3716 11.2041 12.6304 10.6044 12.8529 9.99096C13.3633 8.53611 13.4577 7.89342 13.4577 7.89342C13.4577 7.89342 12.5036 7.10882 11.832 6.67416Z" fill="#030303"/>
<path d="M1.82629 4.67439C1.82629 4.67439 0.47822 6.76573 0.46582 8.84468C0.46582 8.84468 0.74136 9.77669 1.43572 9.99092C1.43572 9.99092 2.49448 7.63506 3.48986 7.01785C3.48986 7.01785 2.92294 5.34189 3.3762 3.94353C3.3762 3.94353 2.73351 3.89324 1.82629 4.67439Z" fill="#030303"/>
<path d="M18.2196 4.67439C18.2196 4.67439 19.5677 6.76573 19.5787 8.84468C19.5787 8.84468 19.3032 9.77669 18.6081 9.99092C18.6081 9.99092 17.5501 7.63506 16.5547 7.01785C16.5547 7.01785 17.1216 5.34189 16.6677 3.94353C16.6697 3.94353 17.3124 3.89324 18.2196 4.67439Z" fill="#030303"/>
<path d="M7.68574 0.440766C7.68574 0.440766 9.81497 -0.215017 12.0579 0.364993C12.0579 0.364993 12.8769 0.654308 13.2675 1.297C13.2675 1.297 11.2512 1.54912 10.1429 2.26759C10.1429 2.26759 8.66804 1.38518 6.90528 1.41066C6.90459 1.41342 6.98036 0.919515 7.68574 0.440766Z" fill="#030303"/>
<path d="M2.68284 14.0361C2.68284 14.0361 2.27987 14.9179 2.7965 16.2535C2.7965 16.2535 3.70372 17.8289 6.08506 18.7988C6.08506 18.7988 7.31948 18.6859 8.01383 17.9171C8.01383 17.9171 6.04855 15.9511 5.98587 14.9433C5.98449 14.9433 4.52276 15.0694 2.68284 14.0361Z" fill="#030303"/>
<path d="M17.5126 13.9507C17.5126 13.9507 17.9156 14.8324 17.399 16.1681C17.399 16.1681 16.4918 17.7428 14.1104 18.7168C14.1104 18.7168 12.876 18.6032 12.1816 17.8344C12.1816 17.8344 14.1469 15.8691 14.2103 14.8613C14.2062 14.8593 15.67 14.984 17.5126 13.9507Z" fill="#030303"/>
<path d="M7.83594 11.1882C7.83594 11.1882 7.97371 11.6167 8.08806 11.6801C8.08806 11.6801 10.2552 11.9191 11.9945 11.6801C11.9945 11.6801 12.1633 11.4045 12.1798 11.1882C12.1798 11.1882 11.7038 11.7579 10.1822 11.6945C8.66049 11.6312 8.06257 11.554 7.83594 11.1882Z" fill="#595959"/>
</g>
<defs>
<radialGradient id="paint0_radial_131_18650" cx="0" cy="0" r="1" gradientUnits="userSpaceOnUse" gradientTransform="translate(6.75311 6.85407) scale(16.6632)">
<stop offset="0.27" stop-color="white"/>
<stop offset="0.34" stop-color="#FAFAFA"/>
<stop offset="0.42" stop-color="#ECECEC"/>
<stop offset="0.5" stop-color="#D6D5D5"/>
<stop offset="0.59" stop-color="#B6B4B4"/>
<stop offset="0.66" stop-color="#969494"/>
<stop offset="0.7" stop-color="#A3A2A2"/>
<stop offset="0.78" stop-color="#CAC9CA"/>
<stop offset="0.8" stop-color="#DADADA"/>
<stop offset="0.82" stop-color="#EBEBEB"/>
<stop offset="0.84" stop-color="#F6F6F6"/>
<stop offset="0.88" stop-color="#FDFDFD"/>
<stop offset="0.99" stop-color="white"/>
</radialGradient>
<clipPath id="clip0_131_18650">
<rect width="20" height="20" fill="white"/>
</clipPath>
</defs>
</svg>
