<svg width="25" height="25" viewBox="0 0 25 25" fill="none" xmlns="http://www.w3.org/2000/svg">
<g id="iconspace_Archery_25px">
<path id="path" fill-rule="evenodd" clip-rule="evenodd" d="M12.3244 13.3746L4.85335 20.837C4.65797 21.0321 4.34139 21.0319 4.14624 20.8366C3.95109 20.6412 3.95128 20.3246 4.14665 20.1295L11.6173 12.6675L6.14645 7.19669C5.95118 7.00142 5.95118 6.68484 6.14645 6.48958C9.40493 3.2311 14.6508 3.17124 17.9823 6.31001L20.796 3.49957C20.9914 3.30442 21.308 3.30461 21.5031 3.49999C21.6983 3.69536 21.6981 4.01194 21.5027 4.20709L18.6695 7.03699C21.4773 10.3766 21.3099 15.3678 18.1673 18.5104C17.972 18.7057 17.6554 18.7057 17.4602 18.5104L12.3244 13.3746ZM17.959 7.74669L13.0319 12.668L17.8021 17.4381C20.2217 14.6776 20.2739 10.5656 17.959 7.74669ZM17.2744 7.01708L12.3248 11.9608L7.2187 6.85473C10.1006 4.32876 14.4556 4.38287 17.2744 7.01708Z" fill="#2E2E2E"/>
<path id="path_2" fill-rule="evenodd" clip-rule="evenodd" d="M18.4913 3.99993L20.9909 4.04356L20.9473 6.54318C20.9424 6.81928 21.1624 7.04701 21.4385 7.05183C21.7146 7.05664 21.9423 6.83673 21.9471 6.56063L21.9995 3.56108C22.0043 3.28498 21.7844 3.05725 21.5083 3.05243L18.5087 3.00008C18.2326 2.99526 18.0049 3.21518 18.0001 3.49128C17.9953 3.76738 18.2152 3.99511 18.4913 3.99993ZM3.49128 18.9999L5.99089 19.0436L5.94726 21.5432C5.94244 21.8193 6.16236 22.047 6.43846 22.0518C6.71456 22.0566 6.94229 21.8367 6.94711 21.5606L6.99947 18.5611C7.00429 18.285 6.78437 18.0573 6.50827 18.0524L3.50873 18.0001C3.23263 17.9953 3.0049 18.2152 3.00008 18.4913C2.99526 18.7674 3.21518 18.9951 3.49128 18.9999Z" fill="#2E2E2E"/>
</g>
</svg>
