<svg width="30" height="30" viewBox="0 0 30 30" fill="none" xmlns="http://www.w3.org/2000/svg">
<path d="M26.9501 13.425L25.2501 11.45C24.9251 11.075 24.6626 10.375 24.6626 9.87501V7.75001C24.6626 6.42501 23.5751 5.33751 22.2501 5.33751H20.1251C19.6376 5.33751 18.9251 5.07501 18.5501 4.75001L16.5751 3.05001C15.7126 2.31251 14.3001 2.31251 13.4251 3.05001L11.4626 4.76251C11.0876 5.07501 10.3751 5.33751 9.8876 5.33751H7.7251C6.4001 5.33751 5.3126 6.42501 5.3126 7.75001V9.88751C5.3126 10.375 5.0501 11.075 4.7376 11.45L3.0501 13.4375C2.3251 14.3 2.3251 15.7 3.0501 16.5625L4.7376 18.55C5.0501 18.925 5.3126 19.625 5.3126 20.1125V22.25C5.3126 23.575 6.4001 24.6625 7.7251 24.6625H9.8876C10.3751 24.6625 11.0876 24.925 11.4626 25.25L13.4376 26.95C14.3001 27.6875 15.7126 27.6875 16.5876 26.95L18.5626 25.25C18.9376 24.925 19.6376 24.6625 20.1376 24.6625H22.2626C23.5876 24.6625 24.6751 23.575 24.6751 22.25V20.125C24.6751 19.6375 24.9376 18.925 25.2626 18.55L26.9626 16.575C27.6876 15.7125 27.6876 14.2875 26.9501 13.425ZM20.8501 15L19.3876 19.45C19.2001 20.1875 18.4126 20.7875 17.6126 20.7875H15.3001C14.9001 20.7875 14.3376 20.65 14.0876 20.4L12.2501 18.9625C12.2126 19.7625 11.8501 20.1 10.9626 20.1H10.3626C9.4376 20.1 9.0626 19.7375 9.0626 18.8625V12.8875C9.0626 12.0125 9.4376 11.65 10.3626 11.65H10.9751C11.9001 11.65 12.2751 12.0125 12.2751 12.8875V13.3375L14.7001 9.73751C14.9501 9.35001 15.5876 9.07501 16.1251 9.28751C16.7126 9.48751 17.0876 10.1375 16.9626 10.7125L16.6626 12.6625C16.6376 12.8375 16.6751 13 16.7876 13.125C16.8876 13.2375 17.0376 13.3125 17.2001 13.3125H19.6376C20.1126 13.3125 20.5126 13.5 20.7501 13.8375C20.9626 14.1625 21.0001 14.575 20.8501 15Z" fill="#71CF4D"/>
</svg>
