<svg width="29" height="29" viewBox="0 0 29 29" fill="none" xmlns="http://www.w3.org/2000/svg">
<path d="M22.9582 10.8751C22.9582 12.6272 22.4386 14.2343 21.5444 15.5755C20.2394 17.5088 18.1732 18.8743 15.7686 19.2247C15.3578 19.2972 14.9348 19.3334 14.4998 19.3334C14.0648 19.3334 13.6419 19.2972 13.2311 19.2247C10.8265 18.8743 8.76025 17.5088 7.45525 15.5755C6.56109 14.2343 6.0415 12.6272 6.0415 10.8751C6.0415 6.19883 9.82359 2.41675 14.4998 2.41675C19.1761 2.41675 22.9582 6.19883 22.9582 10.8751Z" stroke="#006BDB" stroke-width="1.5" stroke-linecap="round" stroke-linejoin="round"/>
<path d="M25.6769 22.3178L23.6831 22.7891C23.2361 22.8978 22.8856 23.2362 22.789 23.6833L22.3661 25.4595C22.1365 26.4262 20.904 26.7162 20.2636 25.9549L14.4998 19.3332L8.73606 25.967C8.09564 26.7282 6.86314 26.4382 6.63356 25.4716L6.21064 23.6953C6.10189 23.2482 5.75148 22.8978 5.31648 22.8012L3.32273 22.3299C2.40439 22.1124 2.07814 20.9645 2.74273 20.2999L7.45523 15.5874C8.76023 17.5207 10.8265 18.8862 13.2311 19.2366C13.6419 19.3091 14.0648 19.3453 14.4998 19.3453C14.9348 19.3453 15.3577 19.3091 15.7686 19.2366C18.1731 18.8862 20.2394 17.5207 21.5444 15.5874L26.2569 20.2999C26.9215 20.9524 26.5952 22.1003 25.6769 22.3178Z" stroke="#006BDB" stroke-width="1.5" stroke-linecap="round" stroke-linejoin="round"/>
<path d="M14.7058 7.58L15.4187 9.00582C15.5153 9.19916 15.7691 9.3925 15.9987 9.42875L17.2916 9.64624C18.1133 9.77916 18.3066 10.3833 17.7145 10.9754L16.7116 11.9783C16.5424 12.1475 16.4458 12.4738 16.5062 12.7154L16.7962 13.96C17.0258 14.9387 16.5062 15.3254 15.6362 14.8058L14.4278 14.0929C14.2103 13.96 13.8478 13.96 13.6303 14.0929L12.422 14.8058C11.552 15.3133 11.0324 14.9387 11.262 13.96L11.552 12.7154C11.6003 12.4858 11.5158 12.1475 11.3466 11.9783L10.3437 10.9754C9.7516 10.3833 9.94493 9.79124 10.7666 9.64624L12.0595 9.42875C12.277 9.3925 12.5308 9.19916 12.6274 9.00582L13.3403 7.58C13.6908 6.80667 14.3191 6.80667 14.7058 7.58Z" stroke="#006BDB" stroke-width="1.5" stroke-linecap="round" stroke-linejoin="round"/>
</svg>
