<svg width="29" height="29" viewBox="0 0 29 29" fill="none" xmlns="http://www.w3.org/2000/svg">
<path d="M23.321 9.57004V15.793C23.321 19.5147 21.1943 21.1096 18.0043 21.1096H7.38307C6.83932 21.1096 6.31973 21.0613 5.8364 20.9526C5.53432 20.9043 5.24433 20.8197 4.97849 20.723C3.16599 20.0463 2.06641 18.4755 2.06641 15.793V9.57004C2.06641 5.84837 4.19307 4.25342 7.38307 4.25342H18.0043C20.711 4.25342 22.6564 5.40133 23.176 8.02341C23.2606 8.50675 23.321 9.00212 23.321 9.57004Z" stroke="#006BDB" stroke-width="1.5" stroke-miterlimit="10" stroke-linecap="round" stroke-linejoin="round"/>
<path d="M26.9475 13.1951V19.418C26.9475 23.1397 24.8208 24.7346 21.6308 24.7346H11.0096C10.1154 24.7346 9.30582 24.6139 8.60498 24.348C7.16707 23.8164 6.18831 22.7168 5.83789 20.9526C6.32122 21.0614 6.84081 21.1096 7.38456 21.1096H18.0058C21.1958 21.1096 23.3225 19.5147 23.3225 15.793V9.57007C23.3225 9.00215 23.2741 8.49469 23.1775 8.02344C25.4733 8.50677 26.9475 10.1259 26.9475 13.1951Z" stroke="#006BDB" stroke-width="1.5" stroke-miterlimit="10" stroke-linecap="round" stroke-linejoin="round"/>
<path d="M12.6856 15.8773C14.4474 15.8773 15.8756 14.4491 15.8756 12.6873C15.8756 10.9255 14.4474 9.49731 12.6856 9.49731C10.9238 9.49731 9.49561 10.9255 9.49561 12.6873C9.49561 14.4491 10.9238 15.8773 12.6856 15.8773Z" stroke="#006BDB" stroke-width="1.5" stroke-miterlimit="10" stroke-linecap="round" stroke-linejoin="round"/>
<path d="M5.77588 10.0293V15.346" stroke="#006BDB" stroke-width="1.5" stroke-miterlimit="10" stroke-linecap="round" stroke-linejoin="round"/>
<path d="M19.6016 10.0295V15.3462" stroke="#006BDB" stroke-width="1.5" stroke-miterlimit="10" stroke-linecap="round" stroke-linejoin="round"/>
</svg>
