<svg width="19" height="19" viewBox="0 0 19 19" fill="none" xmlns="http://www.w3.org/2000/svg">
<path fill-rule="evenodd" clip-rule="evenodd" d="M9.34426 17.48C4.93703 17.48 1.36426 13.9073 1.36426 9.50002C1.36426 5.09279 4.93703 1.52002 9.34426 1.52002C13.7515 1.52002 17.3243 5.09279 17.3243 9.50002C17.3243 13.9073 13.7515 17.48 9.34426 17.48ZM8.73989 4.34739L6.84059 2.96747C6.77332 2.91859 6.7268 2.85178 6.70281 2.77835C5.28747 3.33491 4.09041 4.32559 3.2756 5.58641C3.28762 5.60603 3.29803 5.62702 3.30657 5.64927L4.16186 7.87737L6.5192 8.16239L6.33817 8.90052L4.09445 8.62923L2.15723 10.198C2.27197 11.3942 2.67862 12.5052 3.30509 13.4589L5.66268 13.5L7.32735 11.4L7.93065 11.8622L6.33928 13.8698L7.09362 16.3371C7.09644 16.3464 7.09889 16.3556 7.10098 16.3648C7.80701 16.5954 8.56091 16.72 9.34392 16.72C10.1331 16.72 10.8926 16.5934 11.6034 16.3594C11.6032 16.3199 11.6092 16.2796 11.6221 16.2399L12.3754 13.9217L10.8203 12.1168L11.4229 11.6537L12.9518 13.4282H15.4028C15.9836 12.5342 16.3719 11.5036 16.509 10.3951C16.4403 10.3846 16.3737 10.3552 16.3175 10.3063L14.2946 8.54784C14.288 8.54208 14.2816 8.53613 14.2754 8.52999L12.1333 8.86693L11.921 8.13718L14.3455 7.75583L15.2414 5.64534C15.2669 5.58529 15.306 5.5352 15.3536 5.49714C14.5003 4.21859 13.2499 3.2277 11.7786 2.70081C11.7674 2.80376 11.7145 2.90181 11.6241 2.96747L9.49989 4.51082V6.579H8.73989V4.34739ZM15.0019 8.15539L15.8027 6.26891C16.29 7.24106 16.5643 8.33851 16.5643 9.50002V9.51351L15.0019 8.15539ZM2.7993 6.44766C2.40029 7.30178 2.16354 8.2469 2.12873 9.24337L3.45897 8.16616L2.7993 6.44766ZM9.23269 3.76579L7.51091 2.51484C8.09635 2.36161 8.71077 2.28003 9.34425 2.28003C9.91807 2.28003 10.4763 2.34697 11.0114 2.47346L9.23269 3.76579ZM12.5011 15.9951C13.3992 15.5578 14.193 14.9397 14.8352 14.1882H13.0882L12.5011 15.9951ZM5.66424 14.2602L6.19593 15.9993C5.31074 15.5697 4.52653 14.9646 3.88853 14.2292L5.66424 14.2602Z" fill="#006BDB"/>
<path fill-rule="evenodd" clip-rule="evenodd" d="M12.3096 8.06428L9.41842 5.96369C9.28524 5.86692 9.10489 5.86692 8.97171 5.96369L6.0805 8.06428C5.94731 8.16104 5.89158 8.33256 5.94245 8.48913L7.0468 11.888C7.09767 12.0445 7.24357 12.1505 7.4082 12.1505H10.9819C11.1466 12.1505 11.2925 12.0445 11.3433 11.888L12.4477 8.48913C12.4986 8.33256 12.4428 8.16104 12.3096 8.06428ZM7.68469 11.3905L6.75098 8.51681L9.19547 6.74078L11.64 8.51681L10.7063 11.3905H7.68469Z" fill="#006BDB"/>
</svg>
