<svg width="29" height="29" viewBox="0 0 29 29" fill="none" xmlns="http://www.w3.org/2000/svg">
<path d="M11.0681 13.1345C10.9473 13.1225 10.8023 13.1225 10.6693 13.1345C7.79352 13.0379 5.50977 10.6816 5.50977 7.78163C5.50977 4.82121 7.90227 2.41663 10.8748 2.41663C13.8352 2.41663 16.2398 4.82121 16.2398 7.78163C16.2277 10.6816 13.9439 13.0379 11.0681 13.1345Z" stroke="#006BDB" stroke-width="1.5" stroke-linecap="round" stroke-linejoin="round"/>
<path d="M19.829 4.83337C22.1731 4.83337 24.0581 6.73046 24.0581 9.06254C24.0581 11.3463 22.2456 13.2071 19.986 13.2917C19.8894 13.2796 19.7806 13.2796 19.6719 13.2917" stroke="#006BDB" stroke-width="1.5" stroke-linecap="round" stroke-linejoin="round"/>
<path d="M5.02662 17.5934C2.10245 19.5509 2.10245 22.7409 5.02662 24.6863C8.34954 26.9096 13.7991 26.9096 17.122 24.6863C20.0462 22.7288 20.0462 19.5388 17.122 17.5934C13.8112 15.3821 8.36162 15.3821 5.02662 17.5934Z" stroke="#006BDB" stroke-width="1.5" stroke-linecap="round" stroke-linejoin="round"/>
<path d="M22.1606 24.1666C23.0306 23.9854 23.8523 23.635 24.529 23.1154C26.414 21.7016 26.414 19.3695 24.529 17.9558C23.8644 17.4483 23.0548 17.11 22.1969 16.9166" stroke="#006BDB" stroke-width="1.5" stroke-linecap="round" stroke-linejoin="round"/>
</svg>
