<svg width="22" height="22" viewBox="0 0 22 22" fill="none" xmlns="http://www.w3.org/2000/svg">
<path d="M6.11384 12.8334H3.66634C2.65801 12.8334 1.83301 13.6584 1.83301 14.6667V19.25C1.83301 19.7542 2.24551 20.1667 2.74967 20.1667H6.11384C6.61801 20.1667 7.03051 19.7542 7.03051 19.25V13.75C7.03051 13.2459 6.61801 12.8334 6.11384 12.8334Z" fill="#292D32"/>
<path d="M12.2193 9.16663H9.77181C8.76348 9.16663 7.93848 9.99163 7.93848 11V19.25C7.93848 19.7541 8.35098 20.1666 8.85514 20.1666H13.136C13.6401 20.1666 14.0526 19.7541 14.0526 19.25V11C14.0526 9.99163 13.2368 9.16663 12.2193 9.16663Z" fill="#292D32"/>
<path d="M18.3329 15.5834H15.8854C15.3812 15.5834 14.9688 15.9959 14.9688 16.5V19.25C14.9688 19.7542 15.3812 20.1667 15.8854 20.1667H19.2496C19.7538 20.1667 20.1663 19.7542 20.1663 19.25V17.4167C20.1663 16.4084 19.3413 15.5834 18.3329 15.5834Z" fill="#292D32"/>
<path d="M13.7596 4.44586C14.0438 4.16169 14.1538 3.82252 14.0621 3.52919C13.9705 3.23586 13.6863 3.02502 13.283 2.96086L12.403 2.81419C12.3663 2.81419 12.2838 2.75002 12.2655 2.71336L11.7796 1.74169C11.413 0.999189 10.5788 0.999189 10.2121 1.74169L9.72631 2.71336C9.71714 2.75002 9.63464 2.81419 9.59797 2.81419L8.71797 2.96086C8.31464 3.02502 8.03964 3.23586 7.93881 3.52919C7.84714 3.82252 7.95714 4.16169 8.24131 4.44586L8.91964 5.13336C8.95631 5.16086 8.98381 5.27086 8.97464 5.30752L8.78214 6.15086C8.63547 6.78336 8.87381 7.06752 9.02964 7.17752C9.18547 7.28752 9.52464 7.43419 10.0838 7.10419L10.9088 6.61836C10.9455 6.59086 11.0646 6.59086 11.1013 6.61836L11.9171 7.10419C12.1738 7.26002 12.3846 7.30586 12.5496 7.30586C12.7421 7.30586 12.8796 7.23252 12.9621 7.17752C13.118 7.06752 13.3563 6.78336 13.2096 6.15086L13.0171 5.30752C13.008 5.26169 13.0355 5.16086 13.0721 5.13336L13.7596 4.44586Z" fill="#292D32"/>
</svg>
