<svg width="19" height="19" viewBox="0 0 19 19" fill="none" xmlns="http://www.w3.org/2000/svg">
<path d="M10.8694 2.77875L12.2627 5.56541C12.4527 5.95333 12.9594 6.32541 13.3869 6.39666L15.9123 6.81625C17.5273 7.08541 17.9073 8.25708 16.7436 9.41291L14.7802 11.3762C14.4477 11.7087 14.2656 12.35 14.3686 12.8092L14.9306 15.2396C15.374 17.1633 14.3527 17.9075 12.6506 16.9021L10.2836 15.5008C9.85606 15.2475 9.15147 15.2475 8.71606 15.5008L6.34897 16.9021C4.65481 17.9075 3.62564 17.1554 4.06897 15.2396L4.63106 12.8092C4.73397 12.35 4.55189 11.7087 4.21939 11.3762L2.25606 9.41291C1.10022 8.25708 1.47231 7.08541 3.08731 6.81625L5.61272 6.39666C6.03231 6.32541 6.53897 5.95333 6.72897 5.56541L8.12231 2.77875C8.88231 1.26666 10.1173 1.26666 10.8694 2.77875Z" fill="#FAD32E" stroke="#FAD32E" stroke-width="1.3" stroke-linecap="round" stroke-linejoin="round"/>
</svg>
