<svg width="19" height="19" viewBox="0 0 19 19" fill="none" xmlns="http://www.w3.org/2000/svg">
<path fill-rule="evenodd" clip-rule="evenodd" d="M7.23712 2.06348C8.67197 6.2306 6.45703 10.7719 2.28991 12.2067L2.04248 11.4882C5.81273 10.19 7.81672 6.08116 6.51852 2.31091L7.23712 2.06348ZM17.0217 6.94995L16.7126 6.25566C12.6864 8.04824 10.8756 12.7653 12.6682 16.7915L13.3625 16.4824C11.7407 12.8396 13.3789 8.57182 17.0217 6.94995Z" fill="#006BDB"/>
<path fill-rule="evenodd" clip-rule="evenodd" d="M1.52002 9.49953C1.52002 13.9068 5.09279 17.4795 9.50002 17.4795C13.9073 17.4795 17.48 13.9068 17.48 9.49953C17.48 5.0923 13.9073 1.51953 9.50002 1.51953C5.09279 1.51953 1.52002 5.0923 1.52002 9.49953ZM16.72 9.49954C16.72 13.487 13.4875 16.7195 9.50001 16.7195C5.51252 16.7195 2.28002 13.487 2.28002 9.49954C2.28002 5.51204 5.51252 2.27954 9.50001 2.27954C13.4875 2.27954 16.72 5.51204 16.72 9.49954Z" fill="#006BDB"/>
</svg>
