<svg width="29" height="29" viewBox="0 0 29 29" fill="none" xmlns="http://www.w3.org/2000/svg">
<path d="M10.8748 26.5834H18.1248C24.1665 26.5834 26.5832 24.1667 26.5832 18.125V10.875C26.5832 4.83335 24.1665 2.41669 18.1248 2.41669H10.8748C4.83317 2.41669 2.4165 4.83335 2.4165 10.875V18.125C2.4165 24.1667 4.83317 26.5834 10.8748 26.5834Z" stroke="#006BDB" stroke-width="1.5" stroke-linecap="round" stroke-linejoin="round"/>
<path d="M10.9956 14.5001V12.7117C10.9956 10.4038 12.6269 9.47338 14.6206 10.6213L16.1673 11.5155L17.7139 12.4096C19.7077 13.5576 19.7077 15.4425 17.7139 16.5905L16.1673 17.4846L14.6206 18.3788C12.6269 19.5267 10.9956 18.5842 10.9956 16.2884V14.5001Z" stroke="#006BDB" stroke-width="1.5" stroke-miterlimit="10" stroke-linecap="round" stroke-linejoin="round"/>
</svg>
