<svg width="29" height="29" viewBox="0 0 29 29" fill="none" xmlns="http://www.w3.org/2000/svg">
<path d="M26.5832 18.1251V10.8751C26.5832 4.83341 24.1665 2.41675 18.1248 2.41675H10.8748C4.83317 2.41675 2.4165 4.83341 2.4165 10.8751V18.1251C2.4165 24.1667 4.83317 26.5834 10.8748 26.5834H18.1248C24.1665 26.5834 26.5832 24.1667 26.5832 18.1251Z" stroke="#006BDB" stroke-width="1.5" stroke-linecap="round" stroke-linejoin="round"/>
<path d="M3.04492 8.59131H25.9549" stroke="#006BDB" stroke-width="1.5" stroke-linecap="round" stroke-linejoin="round"/>
<path d="M10.2949 2.54956V8.42206" stroke="#006BDB" stroke-width="1.5" stroke-linecap="round" stroke-linejoin="round"/>
<path d="M18.7051 2.54956V7.87831" stroke="#006BDB" stroke-width="1.5" stroke-linecap="round" stroke-linejoin="round"/>
<path d="M11.7812 17.4604V16.0104C11.7812 14.1496 13.0983 13.3883 14.7054 14.3187L15.9621 15.0437L17.2187 15.7687C18.8258 16.6991 18.8258 18.2216 17.2187 19.1521L15.9621 19.8771L14.7054 20.6021C13.0983 21.5325 11.7812 20.7712 11.7812 18.9104V17.4604V17.4604Z" stroke="#006BDB" stroke-width="1.5" stroke-miterlimit="10" stroke-linecap="round" stroke-linejoin="round"/>
</svg>
