<svg width="17" height="17" viewBox="0 0 17 17" fill="none" xmlns="http://www.w3.org/2000/svg">
<g opacity="0.8">
<path d="M6.37533 15.5834H10.6253C14.167 15.5834 15.5837 14.1667 15.5837 10.625V6.37502C15.5837 2.83335 14.167 1.41669 10.6253 1.41669H6.37533C2.83366 1.41669 1.41699 2.83335 1.41699 6.37502V10.625C1.41699 14.1667 2.83366 15.5834 6.37533 15.5834Z" stroke="white" stroke-linecap="round" stroke-linejoin="round"/>
<path d="M6.44629 8.49999V7.45166C6.44629 6.09874 7.40254 5.55333 8.57129 6.22624L9.47796 6.75041L10.3846 7.27458C11.5534 7.94749 11.5534 9.05249 10.3846 9.72541L9.47796 10.2496L8.57129 10.7737C7.40254 11.4467 6.44629 10.8942 6.44629 9.54833V8.49999Z" stroke="white" stroke-miterlimit="10" stroke-linecap="round" stroke-linejoin="round"/>
</g>
</svg>
