<svg width="19" height="19" viewBox="0 0 19 19" fill="none" xmlns="http://www.w3.org/2000/svg">
<path d="M12.9551 9.12034H16.7195V9.88034H12.9579C13.0539 11.5902 13.755 13.2724 15.0612 14.5786L14.5238 15.116C13.0692 13.6614 12.2935 11.7849 12.1969 9.88034H9.87953V17.148H9.11953V9.88034H6.6623C6.55899 11.7745 5.78387 13.6388 4.33693 15.0858L3.79953 14.5484C5.09806 13.2498 5.79856 11.5797 5.90105 9.88034H1.51953V9.12034H5.90705C5.82973 7.38158 5.12723 5.66544 3.79953 4.33774L4.33693 3.80034C5.81303 5.27644 6.58997 7.18694 6.66773 9.12034H9.11953V1.99023H9.87953V9.12034H12.1943C12.2789 7.19729 13.0554 5.29901 14.5238 3.83062L15.0612 4.36802C13.7412 5.68801 13.0392 7.39194 12.9551 9.12034Z" fill="#333333"/>
<path fill-rule="evenodd" clip-rule="evenodd" d="M1.51953 9.49953C1.51953 13.9068 5.0923 17.4795 9.49953 17.4795C13.9068 17.4795 17.4795 13.9068 17.4795 9.49953C17.4795 5.0923 13.9068 1.51953 9.49953 1.51953C5.0923 1.51953 1.51953 5.0923 1.51953 9.49953ZM16.7195 9.49954C16.7195 13.487 13.487 16.7195 9.4995 16.7195C5.512 16.7195 2.2795 13.487 2.2795 9.49954C2.2795 5.51204 5.512 2.27954 9.4995 2.27954C13.487 2.27954 16.7195 5.51204 16.7195 9.49954Z" fill="#333333"/>
</svg>
