<svg width="19" height="19" viewBox="0 0 19 19" fill="none" xmlns="http://www.w3.org/2000/svg">
<path d="M15.5645 5.94966V4.43734C15.5641 3.90904 15.3602 3.40251 14.9976 3.02899C14.635 2.65547 14.1433 2.44549 13.6305 2.44519H10.7501C10.5992 2.09332 10.352 1.79442 10.0387 1.58509C9.72547 1.37576 9.35977 1.26508 8.98639 1.26662H4.14241C3.62968 1.26697 3.13805 1.47697 2.77548 1.85048C2.4129 2.224 2.20904 2.73051 2.20864 3.25876V5.74473C1.60116 6.4616 1.26647 7.38103 1.2666 8.33268V12.436C1.26783 13.5279 1.68938 14.5747 2.43877 15.3468C3.18816 16.1189 4.2042 16.5532 5.264 16.5545H7.11254C7.85976 17.3078 8.86292 17.7307 9.90834 17.7333H12.1822C13.2421 17.732 14.2582 17.2976 15.0076 16.5255C15.757 15.7533 16.1785 14.7064 16.1796 13.6144V12.7615C16.6422 12.5483 17.0349 12.2018 17.3106 11.7638C17.5863 11.3257 17.7331 10.8149 17.7333 10.2928V9.51125C17.735 8.76719 17.5323 8.03781 17.1485 7.40751C16.7647 6.77722 16.2155 6.27177 15.5645 5.94966ZM14.9133 4.43734V5.69374C14.8932 5.68818 14.8733 5.68243 14.8532 5.67725H14.8519C14.5375 5.59288 14.214 5.55042 13.8892 5.55092H11.9772C11.6704 5.23053 11.313 4.96624 10.9202 4.76936V3.25876C10.9202 3.21103 10.9133 3.16291 10.9099 3.11614H13.6305C13.9706 3.11644 14.2966 3.25573 14.5371 3.50342C14.7776 3.75112 14.9129 4.08699 14.9133 4.43734ZM4.14241 1.93757H8.98639C9.32641 1.93792 9.6524 2.07723 9.89284 2.32492C10.1333 2.57261 10.2685 2.90845 10.2689 3.25876V4.51689C10.2503 4.51152 10.2317 4.50462 10.2116 4.49945C9.89578 4.41421 9.57058 4.37136 9.24409 4.37197H5.11291C4.30309 4.37168 3.51412 4.63651 2.85987 5.12822V3.25876C2.86026 2.90845 2.99552 2.57261 3.23596 2.32492C3.4764 2.07723 3.80239 1.93792 4.14241 1.93757ZM1.91783 12.436V8.33249C1.91734 7.49878 2.22542 6.69625 2.7793 6.08845C2.8154 6.04589 2.85503 6.00544 2.89559 5.96538C3.48995 5.3722 4.28543 5.04126 5.11291 5.04292H9.24465C9.51591 5.0424 9.78609 5.0781 10.0484 5.14912C10.1917 5.18627 10.3319 5.23511 10.4676 5.29519H10.4699C11.0521 5.54496 11.5497 5.96662 11.8998 6.50709C12.25 7.04756 12.4371 7.68267 12.4377 8.33249V9.11424C12.4374 9.45362 12.3546 9.78751 12.197 10.0855C12.0394 10.3835 11.8119 10.6361 11.5353 10.8204V8.27076C11.5353 8.18179 11.501 8.09646 11.4399 8.03355C11.3788 7.97063 11.296 7.93529 11.2097 7.93529C11.1233 7.93529 11.0405 7.97063 10.9794 8.03355C10.9184 8.09646 10.8841 8.18179 10.8841 8.27076V11.3541V12.4351C10.8835 13.3493 10.5308 14.226 9.90344 14.8726C9.27606 15.5191 8.42527 15.8827 7.53789 15.8836H5.264C4.37678 15.8827 3.52613 15.5193 2.89877 14.8729C2.27141 14.2265 1.91861 13.3501 1.91783 12.436ZM17.082 10.2928C17.0815 10.7078 16.9578 11.1127 16.7276 11.4532C16.4973 11.7936 16.1714 12.0534 15.7937 12.1975H14.9069C14.6865 12.1973 14.4751 12.107 14.3193 11.9465C14.1634 11.7859 14.0757 11.5681 14.0754 11.341V10.4849C14.0758 10.2578 14.1635 10.0402 14.3194 9.87971C14.4753 9.71921 14.6866 9.62897 14.9069 9.62877C14.9933 9.62877 15.0761 9.59342 15.1372 9.53051C15.1983 9.46759 15.2326 9.38226 15.2326 9.29329C15.2326 9.20432 15.1983 9.11899 15.1372 9.05607C15.0761 8.99316 14.9933 8.95782 14.9069 8.95782C14.5139 8.95822 14.137 9.11927 13.859 9.40564C13.581 9.692 13.4246 10.0803 13.4242 10.4853V11.342C13.4249 11.7468 13.5814 12.1348 13.8594 12.421C14.1373 12.7071 14.514 12.868 14.9069 12.8685H15.5284V13.6138C15.5275 14.5279 15.1746 15.4043 14.5473 16.0507C13.92 16.6971 13.0694 17.0607 12.1822 17.0617H9.90834C9.26498 17.063 8.63523 16.8708 8.09626 16.5089C8.96297 16.3818 9.76526 15.9652 10.3801 15.3232C10.995 14.6811 11.3884 13.849 11.5001 12.9544H12.2514C12.6165 12.9546 12.9666 13.1042 13.2248 13.3702C13.4829 13.6361 13.6281 13.9968 13.6283 14.373C13.6283 14.4619 13.6626 14.5473 13.7237 14.6102C13.7847 14.6731 13.8676 14.7084 13.9539 14.7084C14.0403 14.7084 14.1231 14.6731 14.1842 14.6102C14.2452 14.5473 14.2795 14.4619 14.2795 14.373C14.2791 13.8189 14.0653 13.2877 13.685 12.8959C13.3048 12.5042 12.7892 12.2839 12.2514 12.2834H11.5353V11.583C11.9978 11.3697 12.3905 11.0232 12.6662 10.5851C12.9418 10.1471 13.0887 9.63629 13.0889 9.11424V8.33249C13.0893 7.58516 12.8836 6.8531 12.4956 6.22168H13.8892C14.1602 6.22114 14.4302 6.25671 14.6924 6.3275C14.8366 6.36497 14.9778 6.4142 15.1144 6.47472C15.6979 6.72243 16.1966 7.14349 16.5471 7.68426C16.8975 8.22504 17.0837 8.86104 17.082 9.51125V10.2928Z" fill="#333333"/>
</svg>
