<svg width="19" height="19" viewBox="0 0 19 19" fill="none" xmlns="http://www.w3.org/2000/svg">
<path fill-rule="evenodd" clip-rule="evenodd" d="M4.17969 16.7197V13.6797H4.93969V16.7197H4.17969ZM14.0597 16.7197V13.6797H14.8197V16.7197H14.0597Z" fill="#333333"/>
<path fill-rule="evenodd" clip-rule="evenodd" d="M9.53694 5.36852L10.6617 2.15486C10.7151 2.00244 10.8589 1.90039 11.0204 1.90039H13.3004C13.5622 1.90039 13.7455 2.15886 13.6591 2.40592L11.0351 9.14298C11.0216 9.18137 11.0036 9.21542 10.9819 9.24512L12.6976 13.8478L15.819 13.4101C16.4437 13.332 17.0135 13.7752 17.0916 14.3999C17.0975 14.4468 17.1004 14.494 17.1004 14.5413V15.9604C17.1004 16.59 16.59 17.1004 15.9604 17.1004H11.5596C11.0752 17.1004 10.6436 16.7942 10.4836 16.337L9.47428 13.6024L8.51718 16.337C8.35715 16.7942 7.92562 17.1004 7.44118 17.1004H3.04039C2.41079 17.1004 1.90039 16.59 1.90039 15.9604V14.5413C1.90039 14.494 1.90333 14.4468 1.90919 14.3999C1.98729 13.7752 2.55705 13.332 3.18179 13.4101L6.3032 13.8478L7.89072 9.31201L5.34172 2.40592C5.25525 2.15886 5.43863 1.90039 5.70039 1.90039H7.98039C8.14187 1.90039 8.28571 2.00244 8.33906 2.15486L9.53694 5.36852ZM9.95222 6.4826L10.0816 6.82975L10.6617 7.98039L12.7648 2.66039H11.29L9.95222 6.4826ZM9.04221 12.5363L8.27994 10.5005L6.91917 14.3884C6.86004 14.5574 6.691 14.6622 6.51337 14.64L3.08752 14.1642C2.87927 14.1382 2.68935 14.2859 2.66332 14.4942C2.66137 14.5098 2.66039 14.5255 2.66039 14.5413V15.9604C2.66039 16.1703 2.83052 16.3404 3.04039 16.3404H7.44118C7.60266 16.3404 7.7465 16.2383 7.79985 16.0859L9.04221 12.5363ZM6.23599 2.66039L11.2009 16.0859C11.2543 16.2383 11.3981 16.3404 11.5596 16.3404H15.9604C16.1703 16.3404 16.3404 16.1703 16.3404 15.9604V14.5413C16.3404 14.5255 16.3394 14.5098 16.3375 14.4942C16.3114 14.2859 16.1215 14.1382 15.9133 14.1642L12.4874 14.64C12.3098 14.6622 12.1407 14.5574 12.0816 14.3884L7.71078 2.66039H6.23599Z" fill="#333333"/>
</svg>
