<svg width="19" height="19" viewBox="0 0 19 19" fill="none" xmlns="http://www.w3.org/2000/svg">
<path fill-rule="evenodd" clip-rule="evenodd" d="M9.34426 17.4795C4.93703 17.4795 1.36426 13.9068 1.36426 9.49953C1.36426 5.0923 4.93703 1.51953 9.34426 1.51953C13.7515 1.51953 17.3243 5.0923 17.3243 9.49953C17.3243 13.9068 13.7515 17.4795 9.34426 17.4795ZM8.74022 4.34691L6.84093 2.96699C6.77366 2.91811 6.72713 2.8513 6.70314 2.77787C5.2878 3.33443 4.09074 4.3251 3.27593 5.58593C3.28796 5.60555 3.29836 5.62654 3.30691 5.64879L4.16219 7.87689L6.51953 8.16191L6.3385 8.90003L4.09479 8.62875L2.15756 10.1975C2.27231 11.3937 2.67895 12.5047 3.30543 13.4584L5.66302 13.4996L7.32769 11.3995L7.93098 11.8617L6.33961 13.8693L7.09396 16.3367C7.09678 16.3459 7.09923 16.3551 7.10132 16.3644C7.80734 16.5949 8.56125 16.7195 9.34426 16.7195C10.1334 16.7195 10.893 16.5929 11.6038 16.3589C11.6036 16.3194 11.6096 16.2791 11.6225 16.2394L12.3757 13.9212L10.8206 12.1163L11.4232 11.6532L12.9521 13.4277H15.4031C15.9839 12.5337 16.3723 11.5031 16.5093 10.3946C16.4407 10.3841 16.3741 10.3547 16.3178 10.3058L14.2949 8.54736C14.2883 8.5416 14.2819 8.53564 14.2758 8.52951L12.1336 8.86645L11.9213 8.1367L14.3459 7.75535L15.2417 5.64486C15.2672 5.58481 15.3063 5.53472 15.354 5.49666C14.5007 4.21811 13.2502 3.22722 11.7789 2.70032C11.7678 2.80328 11.7148 2.90132 11.6245 2.96699L9.50022 4.51034V6.57852H8.74022V4.34691ZM15.0019 8.1549L15.8027 6.26842C16.29 7.24057 16.5643 8.33802 16.5643 9.49953V9.51302L15.0019 8.1549ZM2.7993 6.44717C2.40029 7.30129 2.16354 8.24641 2.12873 9.24288L3.45897 8.16567L2.7993 6.44717ZM9.23269 3.7653L7.51091 2.51436C8.09635 2.36112 8.71077 2.27954 9.34425 2.27954C9.91807 2.27954 10.4763 2.34648 11.0114 2.47298L9.23269 3.7653ZM12.5011 15.9946C13.3992 15.5573 14.193 14.9393 14.8352 14.1877H13.0882L12.5011 15.9946ZM5.66424 14.2597L6.19593 15.9988C5.31074 15.5692 4.52653 14.9641 3.88853 14.2287L5.66424 14.2597Z" fill="#333333"/>
<path fill-rule="evenodd" clip-rule="evenodd" d="M12.3096 8.06379L9.41842 5.9632C9.28524 5.86643 9.10489 5.86643 8.97171 5.9632L6.0805 8.06379C5.94731 8.16055 5.89158 8.33207 5.94245 8.48864L7.0468 11.8875C7.09767 12.044 7.24357 12.15 7.4082 12.15H10.9819C11.1466 12.15 11.2925 12.044 11.3433 11.8875L12.4477 8.48864C12.4986 8.33207 12.4428 8.16055 12.3096 8.06379ZM7.68429 11.39L6.75057 8.51635L9.19507 6.74032L11.6396 8.51635L10.7059 11.39H7.68429Z" fill="#333333"/>
</svg>
