<svg width="19" height="19" viewBox="0 0 19 19" fill="none" xmlns="http://www.w3.org/2000/svg">
<path fill-rule="evenodd" clip-rule="evenodd" d="M7.23663 2.06348C8.67148 6.2306 6.45654 10.7719 2.28942 12.2067L2.04199 11.4882C5.81224 10.19 7.81624 6.08116 6.51803 2.31091L7.23663 2.06348ZM17.0212 6.94995L16.7121 6.25566C12.6859 8.04824 10.8752 12.7653 12.6677 16.7915L13.362 16.4824C11.7402 12.8396 13.3784 8.57182 17.0212 6.94995Z" fill="#333333"/>
<path fill-rule="evenodd" clip-rule="evenodd" d="M1.51953 9.49953C1.51953 13.9068 5.0923 17.4795 9.49953 17.4795C13.9068 17.4795 17.4795 13.9068 17.4795 9.49953C17.4795 5.0923 13.9068 1.51953 9.49953 1.51953C5.0923 1.51953 1.51953 5.0923 1.51953 9.49953ZM16.7195 9.49954C16.7195 13.487 13.487 16.7195 9.49953 16.7195C5.51203 16.7195 2.27953 13.487 2.27953 9.49954C2.27953 5.51204 5.51203 2.27954 9.49953 2.27954C13.487 2.27954 16.7195 5.51204 16.7195 9.49954Z" fill="#333333"/>
</svg>
