<svg width="19" height="19" viewBox="0 0 19 19" fill="none" xmlns="http://www.w3.org/2000/svg">
<path fill-rule="evenodd" clip-rule="evenodd" d="M7.54757 7.7145C7.44105 7.89533 7.20811 7.95556 7.02728 7.84904C6.84646 7.74252 6.78622 7.50958 6.89274 7.32876C7.10767 6.9639 7.55478 6.44072 8.27148 5.9235C9.07439 5.34407 10.0473 4.91733 11.1999 4.70633C12.7889 4.41543 14.3793 4.55718 15.9643 5.12976C16.1617 5.20107 16.2639 5.41888 16.1926 5.61627C16.1213 5.81365 15.9035 5.91586 15.7061 5.84456C14.2461 5.31713 12.7919 5.18752 11.3368 5.45391C10.298 5.64407 9.42959 6.02497 8.71623 6.53978C8.35069 6.80358 8.05012 7.08527 7.81073 7.36539C7.67072 7.52921 7.58423 7.65226 7.54757 7.7145ZM7.39283 13.0294C7.60073 13.0496 7.75302 13.2352 7.733 13.4441C7.71298 13.653 7.52822 13.8061 7.32032 13.7859C7.10412 13.765 6.74868 13.6876 6.3001 13.5177C5.56299 13.2384 4.82795 12.7939 4.14401 12.1488C3.78609 11.8112 3.45124 11.4261 3.14358 10.9906C2.5739 10.1843 2.15021 9.30907 1.87279 8.36639C1.80197 8.12576 2.25191 6.67761 2.27497 6.83957C2.46677 8.18662 2.9995 9.4739 3.76028 10.5506C4.03867 10.9446 4.3403 11.2916 4.66163 11.5947C5.26995 12.1685 5.91949 12.5612 6.56696 12.8065C6.94912 12.9514 7.23982 13.0146 7.39283 13.0294ZM13.8147 8.74712C13.8188 8.53729 13.059 8.52219 13.0548 8.73202C13.021 10.436 12.5815 11.9779 11.7358 13.3649C11.3927 13.9274 11.0052 14.4128 10.5813 14.827C9.9885 15.4064 9.35513 15.8202 8.72376 16.0963C8.35095 16.2594 8.06724 16.3397 7.91743 16.3648C7.71044 16.3994 7.57073 16.5953 7.60537 16.8023C7.64002 17.0093 7.8359 17.149 8.04289 17.1143C8.25143 17.0794 8.59482 16.9822 9.02829 16.7927C9.74072 16.4811 10.4511 16.0169 11.1125 15.3706C11.5813 14.9124 12.0085 14.3775 12.3847 13.7606C13.3013 12.2574 13.7782 10.5839 13.8147 8.74712Z" fill="#333333"/>
<path fill-rule="evenodd" clip-rule="evenodd" d="M1.51953 9.49953C1.51953 13.9068 5.0923 17.4795 9.49953 17.4795C13.9068 17.4795 17.4795 13.9068 17.4795 9.49953C17.4795 5.0923 13.9068 1.51953 9.49953 1.51953C5.0923 1.51953 1.51953 5.0923 1.51953 9.49953ZM10.0317 8.91268C9.8706 8.98976 9.7275 9.06738 9.60265 9.14232L9.59914 9.11954L9.3811 9.15602C9.29692 9.12209 9.198 9.07791 9.08701 9.0221C8.65929 8.80704 8.22963 8.5007 7.8272 8.08691C7.45943 7.70876 7.1327 7.25813 6.85806 6.7277C6.28822 5.62717 6.03126 4.43194 6.08693 3.13533C7.10311 2.5893 8.26513 2.27954 9.4995 2.27954C13.487 2.27954 16.7195 5.51204 16.7195 9.49954C16.7195 9.54604 16.7191 9.59244 16.7182 9.63873C15.6795 8.95836 14.555 8.54687 13.3486 8.40674C12.0709 8.25832 10.9595 8.46884 10.0317 8.91268ZM7.61929 12.7719C6.84068 13.7122 5.85886 14.4089 4.66802 14.8648C3.20147 13.5433 2.2795 11.6291 2.2795 9.49953C2.2795 7.06939 3.4801 4.91967 5.32051 3.61117C5.3396 4.84657 5.6272 6.00342 6.18316 7.07714C6.4924 7.67439 6.8631 8.18567 7.28237 8.61677C7.83405 9.18403 8.38949 9.55284 8.86478 9.77092C8.85241 10.0136 8.81497 10.2871 8.74352 10.5841C8.56547 11.3241 8.20572 12.0636 7.61929 12.7719ZM5.34717 15.4067C6.52165 16.2338 7.95387 16.7195 9.49953 16.7195C13.1423 16.7195 16.155 14.0218 16.6486 10.5152C15.6108 9.7537 14.4834 9.30367 13.2609 9.16167C12.1317 9.0305 11.1631 9.21397 10.3597 9.59827C9.99208 9.77414 9.74733 9.94597 9.63296 10.0508L9.61598 10.0322C9.53255 11.0244 9.1225 12.1482 8.20469 13.2566C7.43261 14.189 6.47872 14.9064 5.34717 15.4067Z" fill="#333333"/>
</svg>
