<svg width="30" height="20" viewBox="0 0 30 20" fill="none" xmlns="http://www.w3.org/2000/svg">
<path d="M29.7656 20H0.234375C0.104941 20 0 19.8946 0 19.7647V0.235322C0 0.105365 0.104941 0 0.234375 0H29.7656C29.8951 0 30 0.105365 30 0.235322V19.7647C30 19.8946 29.8951 20 29.7656 20Z" fill="#4BA543"/>
<path d="M28.1892 0V20H29.7657C29.8951 20 30 19.8946 30 19.7647V0.235322C30 0.105365 29.8951 0 29.7657 0H28.1892Z" fill="#43A047"/>
<path d="M4.10863 9.80701L14.8659 2.27571C14.9464 2.21929 15.0534 2.21929 15.134 2.27571L25.8912 9.80701C26.025 9.90067 26.025 10.0994 25.8912 10.1931L15.134 17.7244C15.0534 17.7808 14.9464 17.7808 14.8659 17.7244L4.10863 10.1931C3.97486 10.0994 3.97486 9.90067 4.10863 9.80701Z" fill="#FECE3F"/>
<path d="M15.0001 14.3635C17.4004 14.3635 19.3462 12.4098 19.3462 9.99986C19.3462 7.5899 17.4004 5.63623 15.0001 5.63623C12.5999 5.63623 10.6541 7.5899 10.6541 9.99986C10.6541 12.4098 12.5999 14.3635 15.0001 14.3635Z" fill="#2387EB"/>
<path d="M14.9999 5.63623C14.6894 5.63623 14.3866 5.66953 14.0945 5.73171C16.0601 6.15006 17.5351 7.90173 17.5351 9.99986C17.5351 12.098 16.06 13.8497 14.0945 14.268C14.3866 14.3302 14.6893 14.3635 14.9999 14.3635C17.4002 14.3635 19.346 12.4099 19.346 9.99986C19.346 7.58987 17.4002 5.63623 14.9999 5.63623Z" fill="#207BD6"/>
<path d="M10.7297 9.19125L19.1231 11.3799C19.267 10.9461 19.3461 10.4826 19.3461 10.0002C19.3461 9.84944 19.3385 9.70048 19.3236 9.55364L11.4404 7.49805C11.0924 7.99616 10.8457 8.57041 10.7297 9.19125Z" fill="#EFEFEF"/>
<path d="M17.4339 10.9391L19.123 11.3795C19.2669 10.9458 19.346 10.4822 19.346 9.99989C19.346 9.84911 19.3384 9.70015 19.3235 9.55331L17.4338 9.06055C17.5 9.36311 17.5351 9.67732 17.5351 9.99989C17.5351 10.3223 17.5 10.6366 17.4339 10.9391Z" fill="#DCDCDC"/>
</svg>
