<svg width="31" height="20" viewBox="0 0 31 20" fill="none" xmlns="http://www.w3.org/2000/svg">
<path d="M30.5262 6.66671H0V0.526339C0 0.235684 0.235684 0 0.526339 0H30C30.2906 0 30.5263 0.235684 30.5263 0.526339L30.5262 6.66671Z" fill="#82AFFF"/>
<path d="M29.9999 19.9997H0.526339C0.235684 19.9997 0 19.764 0 19.4733V13.333H30.5262V19.4733C30.5262 19.764 30.2906 19.9997 29.9999 19.9997Z" fill="#82AFFF"/>
<path d="M30.5262 6.66699H0V13.3333H30.5262V6.66699Z" fill="#F5F5F5"/>
<path d="M19.2633 9.50005H17.3683C17.4036 9.47322 17.4316 9.44681 17.4569 9.42189C17.5031 9.37664 17.5399 9.34068 17.6375 9.30056C17.7356 9.25942 17.787 9.25894 17.8521 9.25793C17.9304 9.25739 18.0192 9.2559 18.1641 9.19622C18.3088 9.13606 18.372 9.07435 18.4278 9.01992C18.4741 8.97467 18.5108 8.93872 18.6087 8.89805C18.7061 8.85745 18.7573 8.85691 18.822 8.85644C18.9001 8.85536 18.9887 8.85441 19.1337 8.79425L19.0324 8.55159C18.9351 8.59219 18.8838 8.59273 18.8192 8.59321C18.741 8.59428 18.6524 8.59524 18.5077 8.65492C18.363 8.71507 18.2998 8.77678 18.244 8.83122C18.1977 8.87647 18.1609 8.91242 18.0633 8.95255C17.9652 8.99369 17.9138 8.99416 17.8488 8.99518C17.7704 8.99571 17.6817 8.9972 17.5368 9.05736C17.3921 9.11698 17.3289 9.17923 17.273 9.23366C17.2275 9.27796 17.1899 9.31344 17.0962 9.35303L18.5856 7.86386L18.3995 7.67778L17.0589 9.01825C17.0648 8.97443 17.0664 8.93544 17.0668 8.90008C17.0675 8.83479 17.0681 8.78388 17.1087 8.68574C17.1493 8.5876 17.1852 8.55106 17.2305 8.50485C17.2855 8.4488 17.3475 8.38513 17.4076 8.24019C17.4674 8.09525 17.4685 8.00683 17.4693 7.92873C17.47 7.86398 17.4706 7.81252 17.5109 7.71492C17.5515 7.61726 17.5872 7.58077 17.6324 7.53451C17.6872 7.47846 17.7491 7.41521 17.809 7.2708L17.566 7.1701C17.5254 7.26776 17.4897 7.30425 17.4444 7.35052C17.3897 7.40656 17.3278 7.46982 17.2678 7.61422C17.2079 7.75916 17.2069 7.84758 17.2061 7.92568C17.2053 7.99043 17.2048 8.04189 17.1645 8.13949C17.1239 8.23762 17.0879 8.27417 17.0426 8.32038C16.9876 8.37642 16.9257 8.4401 16.8656 8.58504C16.8057 8.72998 16.8047 8.81893 16.8037 8.89704C16.8032 8.96042 16.8014 9.01163 16.7634 9.10571V7H16.5002V8.89495C16.4734 8.85984 16.447 8.83193 16.4224 8.80665C16.3769 8.76039 16.3412 8.72336 16.3005 8.62576C16.2599 8.52762 16.2591 8.47623 16.2583 8.41089C16.2576 8.33272 16.2566 8.24383 16.1965 8.09889C16.1366 7.95448 16.0746 7.89128 16.0199 7.83518C15.9746 7.78891 15.939 7.75242 15.8983 7.65476C15.858 7.5571 15.8575 7.50571 15.8567 7.44096C15.8559 7.3628 15.8549 7.27444 15.795 7.12998L15.5519 7.23068C15.5922 7.32834 15.5927 7.37925 15.5935 7.44394C15.5943 7.52211 15.5953 7.61047 15.6552 7.75541C15.7151 7.89981 15.7771 7.96301 15.8318 8.01911C15.8771 8.06538 15.9127 8.10187 15.9534 8.19953C15.994 8.29766 15.9948 8.34906 15.9955 8.4144C15.9963 8.49257 15.9973 8.58146 16.0574 8.7264C16.1173 8.87134 16.1793 8.93454 16.234 8.99059C16.2786 9.0359 16.3139 9.07376 16.3535 9.16718L14.864 7.6779L14.678 7.86398L16.1651 9.35094C16.0835 9.31391 16.0442 9.27987 16.0014 9.23837C15.9452 9.1834 15.8817 9.12122 15.7362 9.06106C15.5913 9.00144 15.5026 8.99989 15.4242 8.99887C15.359 8.99834 15.3076 8.99738 15.2086 8.95624C15.1097 8.91564 15.0727 8.87969 15.0257 8.83396C14.9694 8.77947 14.9057 8.71734 14.7599 8.65665C14.6145 8.59649 14.5255 8.59547 14.4469 8.59446C14.3814 8.59339 14.3298 8.59243 14.2308 8.55129L14.1301 8.79491C14.2756 8.85507 14.3645 8.85608 14.4431 8.85709C14.5086 8.85817 14.5603 8.85912 14.6592 8.90026C14.7584 8.94086 14.7954 8.97681 14.8425 9.02254C14.8987 9.07751 14.9625 9.13916 15.1079 9.19938C15.2534 9.26002 15.3423 9.26109 15.4207 9.2621C15.4859 9.26318 15.5373 9.26359 15.6358 9.30473C15.7342 9.34533 15.771 9.38129 15.8175 9.4266C15.8414 9.45003 15.8681 9.47483 15.9004 9.50011H14V9.76328H16.1019C16.0188 9.79488 15.9669 9.79888 15.9074 9.79977C15.829 9.80031 15.7403 9.8018 15.5951 9.86148C15.4499 9.92164 15.3861 9.98376 15.3299 10.0383C15.2831 10.084 15.2464 10.12 15.148 10.1606C15.049 10.2017 14.9973 10.2028 14.9318 10.2038C14.8532 10.2048 14.7643 10.2058 14.6188 10.266C14.4731 10.3266 14.4094 10.3882 14.3531 10.4433C14.306 10.489 14.2691 10.5249 14.1701 10.5656L14.2708 10.8092C14.4163 10.7485 14.48 10.6869 14.5362 10.6318C14.5833 10.5861 14.6202 10.5502 14.7195 10.5096C14.8184 10.4684 14.8701 10.4674 14.9356 10.4664C15.0142 10.4653 15.1031 10.4644 15.2489 10.4037C15.3938 10.3435 15.4573 10.2818 15.5136 10.2268C15.5601 10.1816 15.5971 10.1456 15.6958 10.105C15.794 10.0638 15.8456 10.0634 15.9107 10.0623C15.944 10.0622 15.9815 10.06 16.0221 10.055L14.6777 11.3992L14.8637 11.5853L16.3502 10.0991C16.3136 10.1803 16.2798 10.2194 16.2381 10.2623C16.1834 10.3184 16.1215 10.382 16.0613 10.527C16.0011 10.6719 15.9998 10.7614 15.9991 10.8395C15.998 10.9047 15.9976 10.9561 15.9567 11.0548C15.9158 11.154 15.8796 11.191 15.8341 11.2378C15.7791 11.2938 15.7172 11.358 15.6568 11.5035C15.5964 11.649 15.5953 11.7379 15.5943 11.8165C15.5933 11.8818 15.5926 11.9337 15.5517 12.0324L15.7948 12.1331C15.8552 11.9876 15.8563 11.8986 15.8572 11.82C15.8583 11.7548 15.859 11.7029 15.8998 11.6042C15.9407 11.505 15.9769 11.468 16.0224 11.4212C16.0774 11.3652 16.1393 11.301 16.1997 11.1555C16.2599 11.0106 16.2612 10.9211 16.2619 10.843C16.263 10.7777 16.2634 10.7264 16.3044 10.6277C16.345 10.529 16.3809 10.4925 16.4264 10.4457C16.4498 10.4217 16.4747 10.395 16.4999 10.3625V12.2632H16.7631V10.1614C16.7945 10.2442 16.7985 10.2961 16.7994 10.3558C16.8001 10.434 16.8014 10.5229 16.8615 10.6678C16.9214 10.8133 16.9836 10.877 17.0384 10.933C17.0838 10.9798 17.1198 11.0168 17.1607 11.1154C17.2015 11.2141 17.2023 11.266 17.2033 11.3313C17.2044 11.4099 17.2053 11.4988 17.2657 11.6443C17.3261 11.7898 17.388 11.854 17.443 11.91C17.4885 11.9568 17.5247 11.9938 17.5656 12.093L17.8087 11.9923C17.7483 11.8468 17.6864 11.7825 17.6314 11.7266C17.5859 11.6798 17.5497 11.6428 17.5088 11.5436C17.4679 11.4449 17.4672 11.393 17.4662 11.3278C17.4651 11.2491 17.4641 11.1602 17.4037 11.0147C17.3436 10.8693 17.2817 10.8055 17.2269 10.7495C17.1815 10.7027 17.1455 10.6658 17.1046 10.5671C17.0638 10.469 17.0632 10.4176 17.0622 10.3522C17.0618 10.319 17.0597 10.2815 17.0547 10.2409L18.3992 11.5853L18.5853 11.3992L17.2449 10.0591C17.2884 10.0648 17.3274 10.0666 17.3625 10.0671C17.4275 10.0676 17.4787 10.0681 17.5769 10.1087C17.675 10.1498 17.7118 10.1852 17.7583 10.231C17.8143 10.2854 17.8778 10.3476 18.0228 10.4078C18.1675 10.4674 18.2561 10.4684 18.3343 10.469C18.399 10.47 18.4502 10.4705 18.5478 10.5111C18.6455 10.5512 18.682 10.5872 18.7282 10.6324C18.7843 10.6869 18.8475 10.7491 18.9922 10.8093L19.0929 10.5657C18.9952 10.5256 18.9587 10.4896 18.9125 10.4443C18.8564 10.3898 18.7932 10.3277 18.6485 10.2675C18.5039 10.2079 18.4152 10.2069 18.3371 10.2063C18.2723 10.2053 18.2211 10.2048 18.1235 10.1642C18.0254 10.1236 17.9886 10.0881 17.9421 10.0423C17.886 9.98782 17.8226 9.92569 17.6776 9.86601C17.5326 9.80537 17.444 9.8043 17.3656 9.80382C17.3018 9.80275 17.2501 9.80156 17.1555 9.76322H19.2631V9.50005H19.2633Z" fill="#F09146"/>
<path d="M15.2631 11.3163C15.9898 11.3163 16.579 10.7271 16.579 10.0004C16.579 9.2737 15.9898 8.68457 15.2631 8.68457C14.5364 8.68457 13.9473 9.2737 13.9473 10.0004C13.9473 10.7271 14.5364 11.3163 15.2631 11.3163Z" fill="#FFE15A"/>
</svg>
