<svg width="31" height="20" viewBox="0 0 31 20" fill="none" xmlns="http://www.w3.org/2000/svg">
<path d="M29.9998 6.05135e-05H12.4999L12.0487 0.514345H10.0305L9.49982 0H0.999841L0.473145 0.615277V18.4252C0.473145 18.9775 0.920888 19.4252 1.47314 19.4252H30.3943L30.9998 19.0001V11.5L30.4852 10.8931V9.04642L30.9998 8.50004V1.00005C30.9998 0.447744 30.5521 6.05135e-05 29.9998 6.05135e-05Z" fill="#F2F2F6"/>
<path d="M0.999991 16V0C0.447744 0 0 0.447683 0 0.999991V8.49998L0.393554 8.97067V10.8628L0 11.5V18.9999C0 19.5523 0.447744 19.9999 0.999991 19.9999H9.49997L10.0962 19.5512H11.9429L12.5 19.9999H30C30.5522 19.9999 31 19.5522 31 18.9999H4.00002C2.34316 18.9999 0.999991 17.6568 0.999991 16Z" fill="#E1E1E6"/>
<path d="M31 8.49998H12.5V0H9.49997V8.49998H0.999992L0.499512 9.25827V10.7417L0.999992 11.5H9.49997V18.9999L10.0962 19.4604H12.0185L12.5 18.9999V11.5H31V8.49998Z" fill="#5055A0"/>
<path d="M0 8.5H0.999991V11.5H0V8.5Z" fill="#3F3F8F"/>
<path d="M9.5 19H12.5V20H9.5V19Z" fill="#3F3F8F"/>
</svg>
