<svg width="160" height="179" viewBox="0 0 160 179" fill="none" xmlns="http://www.w3.org/2000/svg">
<path d="M158.156 176.839C156.49 173.462 144.409 164.743 137.866 162.762C131.639 160.872 125.471 158.726 120.323 156.294C120.368 156.249 120.398 156.234 120.398 156.234L119.603 155.049C119.858 154.809 119.918 154.644 119.723 154.599C117.802 154.119 114.651 136.335 114.651 136.335C114.636 136.44 114.621 136.561 114.621 136.666V136.335C111.454 135.6 108.483 134.94 105.422 134.385C104.491 128.247 103.756 121.524 103.936 118.627C107.087 114.921 109.909 110.974 110.884 107.852C113.195 100.409 114.006 96.1471 114.006 96.1471C114.006 96.1471 116.092 96.1471 117.487 94.4214C118.883 92.6956 119.228 81.6806 120.263 78.5742C121.029 76.3081 121.599 72.9316 120.489 71.4309C120.594 71.3709 120.699 71.3109 120.804 71.2658C123.415 69.9602 125.156 61.7665 125.156 38.8811C125.156 15.1103 115.596 14.7652 115.596 14.7652V11.6587C115.596 11.6587 104.281 16.1308 105.016 11.6587C105.752 7.18672 95.142 3.04483 95.142 3.04483L92.2157 3.38999C92.2157 3.38999 89.6495 3.38999 76.5035 1.31905C63.3576 -0.751891 70.2457 4.42546 62.187 4.42546C54.1284 4.42546 53.7682 7.53187 53.7682 7.53187C53.7682 7.53187 48.6359 9.60282 39.8569 17.1813C31.0629 24.7597 31.438 49.9111 32.5335 51.6219C33.629 53.3477 31.0629 61.6165 32.5335 64.0175C32.9687 64.7529 34.0492 66.6738 35.3248 68.9998C33.4039 69.1049 31.408 70.6656 31.9183 76.8484C32.6086 85.1171 33.464 78.7092 36.4353 94.0762C38.1761 103.035 41.2975 96.1471 41.2975 96.1471C41.2975 96.1471 44.2088 110.404 51.172 120.623C51.187 124.18 51.247 129.822 51.4121 134.37C48.4558 134.925 45.4844 135.585 42.5131 136.35V136.726C42.5131 136.651 42.4831 136.591 42.4681 136.515C42.4681 136.515 39.4367 154.329 37.5008 154.824C37.2307 154.899 37.4558 155.169 38.041 155.604L35.805 157.3C34.7996 158.065 33.7191 158.711 32.5786 159.251L26.6509 162.042L21.8037 163.303C17.6768 164.368 13.9101 166.484 10.8337 169.425L0.869141 178.985H158.996C159.071 179 159.116 178.775 158.156 176.839ZM41.5827 80.465C41.6127 80.525 41.6427 80.5701 41.6727 80.6301C41.7027 80.9753 41.7027 80.9752 41.7027 80.9752C41.7027 80.9752 41.6577 80.7952 41.5827 80.465Z" fill="#ACACAC"/>
</svg>
