<svg width="30" height="30" viewBox="0 0 30 30" fill="none" xmlns="http://www.w3.org/2000/svg">
<path fill-rule="evenodd" clip-rule="evenodd" d="M9.04045 23.9199C7.07045 23.6499 3.57045 23.0599 3.04045 20.7499C2.63045 18.9699 4.15045 16.6199 5.04045 15.1399C5.50045 14.3799 6.60045 12.7399 6.64045 11.8699C6.67045 11.2499 6.52045 10.5899 6.37045 9.9899L4.78045 3.5599C6.77045 4.5099 7.83045 5.0599 10.1405 5.1199C12.2405 5.1699 13.4205 4.3899 15.0005 3.1499C16.5905 4.3899 17.7605 5.1699 19.8605 5.1199C22.1705 5.0599 23.2305 4.5099 25.2205 3.5599L23.6305 9.9999C23.4805 10.5999 23.3405 11.2599 23.3605 11.8799C23.4005 12.7399 24.5005 14.3799 24.9605 15.1499C25.8505 16.6199 27.3705 18.9799 26.9605 20.7599C26.4305 23.0699 22.9305 23.6599 20.9605 23.9299C18.5505 24.2599 16.4605 24.7899 15.0005 26.8599C13.5405 24.7799 11.4505 24.2499 9.04045 23.9199Z" fill="#FFF100"/>
<path fill-rule="evenodd" clip-rule="evenodd" d="M9.09063 23.5599C7.30063 23.3099 3.88063 22.7599 3.39063 20.6599C3.01063 19.0199 4.51063 16.6999 5.34063 15.3199C5.84063 14.4799 6.94063 12.8499 6.99063 11.8899C7.02063 11.2399 6.87063 10.5399 6.71063 9.90986L5.31063 4.20986C7.12063 5.06986 8.02063 5.42986 10.1306 5.47986C12.1806 5.52986 13.4406 4.81986 15.0006 3.60986C16.5506 4.81986 17.8006 5.52986 19.8706 5.47986C21.9806 5.42986 22.8806 5.06986 24.6906 4.20986L23.2906 9.90986C23.1406 10.5399 22.9806 11.2399 23.0106 11.8899C23.0506 12.8499 24.1506 14.4899 24.6606 15.3199C25.4906 16.6999 26.9906 19.0299 26.6106 20.6599C26.1206 22.7599 22.7006 23.3099 20.9106 23.5599C18.9106 23.8399 16.2306 24.4799 15.0006 26.2199C13.7706 24.4899 11.0806 23.8399 9.09063 23.5599Z" fill="#034EA1"/>
<path fill-rule="evenodd" clip-rule="evenodd" d="M15 25.6098C14.51 24.9198 12.32 23.6498 9.13997 23.2098C7.29997 22.9598 4.15997 22.4098 3.73997 20.5898C3.41997 19.2298 4.56997 17.3198 5.64997 15.5098C6.19997 14.5998 7.29997 12.9598 7.34997 11.9098C7.37997 11.1998 7.20997 10.4098 7.05997 9.82982L5.83997 4.85982C6.82997 5.32982 7.83997 5.77982 10.12 5.83982C12.71 5.89982 14.26 4.63982 15 4.06982C15.74 4.64982 17.29 5.90982 19.88 5.83982C22.16 5.77982 23.18 5.32982 24.16 4.85982L22.94 9.82982C22.79 10.4198 22.62 11.1998 22.65 11.9098C22.7 12.9698 23.8 14.5998 24.35 15.5098C25.44 17.3198 26.58 19.2198 26.26 20.5898C25.84 22.4098 22.7 22.9598 20.86 23.2098C17.68 23.6498 15.49 24.9198 15 25.6098Z" fill="#FFF100"/>
<path fill-rule="evenodd" clip-rule="evenodd" d="M17.4809 6.57983C18.7609 6.57983 19.7909 7.61983 19.7909 8.88983C19.7909 10.1698 18.7609 11.1998 17.4809 11.1998C16.2009 11.1998 15.1709 10.1698 15.1709 8.88983C15.1709 7.61983 16.2009 6.57983 17.4809 6.57983Z" fill="white"/>
<path fill-rule="evenodd" clip-rule="evenodd" d="M17.9603 6.65998C18.5203 6.77998 19.0003 7.09998 19.3303 7.54998C19.2303 7.51998 19.1303 7.49998 19.0403 7.46998C19.0903 7.79998 19.0303 8.09998 18.9803 8.37998C19.2003 8.51998 19.3903 8.72998 19.5403 9.00998C19.6103 8.91998 19.6903 8.78998 19.7603 8.65998C19.7703 8.73998 19.7703 8.80998 19.7703 8.88998C19.7703 9.38998 19.6103 9.84998 19.3403 10.23C19.3403 10.13 19.3303 10.02 19.3203 9.93998C19.0203 10.09 18.7203 10.13 18.4403 10.16C18.3703 10.42 18.2303 10.66 18.0103 10.88C18.1203 10.92 18.2603 10.96 18.4003 10.98C18.1203 11.1 17.8103 11.17 17.4903 11.17C17.2503 11.17 17.0103 11.13 16.8003 11.06C16.8903 11.03 16.9903 10.99 17.0603 10.96C16.8303 10.72 16.7003 10.45 16.5803 10.19C16.3103 10.21 16.0403 10.15 15.7603 9.99998C15.7603 10.11 15.7603 10.26 15.7803 10.4C15.4303 9.99998 15.2103 9.47998 15.2103 8.89998C15.2703 8.97998 15.3403 9.05998 15.3903 9.11998C15.5403 8.82998 15.7603 8.61998 15.9803 8.41998C15.8803 8.16998 15.8503 7.88998 15.9003 7.57998C15.7903 7.60998 15.6503 7.65998 15.5203 7.72998C15.8003 7.24998 16.2403 6.88998 16.7803 6.70998C16.7203 6.78998 16.6703 6.88998 16.6203 6.95998C16.9503 7.00998 17.2103 7.15998 17.4703 7.29998C17.6803 7.12998 17.9303 7.01998 18.2403 6.96998C18.1603 6.87998 18.0603 6.76998 17.9603 6.65998ZM17.4803 6.47998C18.8103 6.47998 19.8903 7.55998 19.8903 8.88998C19.8903 10.22 18.8103 11.3 17.4803 11.3C16.1503 11.3 15.0703 10.22 15.0703 8.88998C15.0703 7.55998 16.1503 6.47998 17.4803 6.47998Z" fill="#034EA1"/>
<path fill-rule="evenodd" clip-rule="evenodd" d="M17.4906 8C17.7906 8.17 18.0906 8.39 18.3606 8.65C18.3206 9 18.2006 9.35 18.0606 9.67C17.6706 9.71 17.3006 9.71 16.9406 9.67C16.8006 9.37 16.7006 9 16.6406 8.65C16.8806 8.4 17.1806 8.17 17.4906 8Z" fill="#034EA1"/>
<path fill-rule="evenodd" clip-rule="evenodd" d="M15.3905 7.12988C13.6205 9.42988 15.5605 13.0699 17.6405 13.9499L15.6205 16.0999C13.4605 13.7699 13.2005 9.36988 15.3905 7.12988ZM14.8205 7.27988C12.8805 9.63988 13.3905 14.1199 15.4305 16.2999L13.5605 18.2899C10.9005 14.9999 11.7805 10.0099 14.8205 7.27988ZM13.3705 18.4899L11.4805 20.4999C7.75054 15.3699 10.6005 9.49988 14.1105 7.64988C11.2405 10.3999 10.8405 15.3899 13.3705 18.4899Z" fill="#034EA1"/>
<path d="M9.62012 21.71C9.62012 21.53 9.67012 21.39 9.79012 21.28C9.90012 21.18 10.0501 21.12 10.2201 21.12H10.2501V20.98H10.6201V21.12H10.6501C10.8301 21.12 10.9701 21.17 11.0801 21.28C11.1901 21.39 11.2501 21.53 11.2501 21.71C11.2501 21.89 11.1901 22.04 11.0801 22.14C10.9701 22.24 10.8201 22.3 10.6501 22.3H10.6201V22.47H10.2501V22.3H10.2201C10.0501 22.3 9.90012 22.25 9.79012 22.15C9.67012 22.04 9.62012 21.89 9.62012 21.71ZM10.6201 21.39V22.04C10.7001 22.04 10.7501 22.02 10.7901 21.98C10.8401 21.93 10.8601 21.84 10.8601 21.71C10.8601 21.58 10.8401 21.49 10.7901 21.44C10.7501 21.41 10.6901 21.39 10.6201 21.39ZM10.2401 22.04V21.39C10.1601 21.39 10.1101 21.41 10.0701 21.44C10.0201 21.49 10.0001 21.58 10.0001 21.71C10.0001 21.84 10.0201 21.93 10.0701 21.98C10.1101 22.02 10.1701 22.04 10.2401 22.04ZM11.8001 20.99V21.63L12.1701 20.99H12.5401L12.2101 21.48L12.5301 22.47H12.1601L11.9601 21.83L11.8001 22.06V22.47H11.4301V20.99H11.8001ZM13.6701 21.25V21.61H13.7401C13.8001 21.61 13.8601 21.6 13.9001 21.57C13.9501 21.54 13.9801 21.49 13.9801 21.43C13.9801 21.37 13.9601 21.32 13.9101 21.29C13.8701 21.26 13.8201 21.25 13.7501 21.25H13.6701ZM13.2901 22.47V20.99H13.8501C14.0001 20.99 14.1201 21.02 14.2101 21.09C14.3101 21.16 14.3601 21.27 14.3601 21.41C14.3601 21.57 14.3101 21.69 14.2001 21.77C14.1101 21.84 13.9801 21.88 13.8201 21.88C13.7701 21.88 13.7201 21.88 13.6801 21.87V22.47H13.2901ZM14.4501 21.73C14.4501 21.51 14.4901 21.34 14.5701 21.2C14.6701 21.04 14.8201 20.96 15.0201 20.96C15.2201 20.96 15.3701 21.04 15.4701 21.2C15.5501 21.33 15.5901 21.51 15.5901 21.73C15.5901 21.95 15.5501 22.12 15.4701 22.25C15.3701 22.41 15.2201 22.49 15.0201 22.49C14.8201 22.49 14.6701 22.41 14.5701 22.25C14.4901 22.12 14.4501 21.95 14.4501 21.73ZM14.8501 21.73C14.8501 21.9 14.8601 22.02 14.8801 22.08C14.9101 22.17 14.9501 22.22 15.0301 22.22C15.1001 22.22 15.1501 22.17 15.1701 22.08C15.1901 22.01 15.2001 21.89 15.2001 21.72C15.2001 21.55 15.1901 21.43 15.1701 21.36C15.1501 21.27 15.1001 21.22 15.0301 21.22C14.9601 21.22 14.9101 21.27 14.8901 21.36C14.8701 21.44 14.8501 21.56 14.8501 21.73ZM16.4701 21.93L16.7901 21.96C16.7901 22.12 16.7401 22.25 16.6501 22.35C16.5601 22.45 16.4301 22.5 16.2701 22.5C16.0601 22.5 15.9101 22.42 15.8101 22.26C15.7301 22.13 15.6901 21.95 15.6901 21.73C15.6901 21.52 15.7301 21.34 15.8101 21.21C15.9101 21.04 16.0601 20.96 16.2701 20.96C16.4401 20.96 16.5701 21.01 16.6601 21.12C16.7401 21.22 16.7801 21.35 16.7801 21.51H16.4301C16.4301 21.44 16.4201 21.38 16.4001 21.34C16.3701 21.27 16.3301 21.24 16.2701 21.24C16.2001 21.24 16.1501 21.29 16.1201 21.39C16.1001 21.46 16.0901 21.58 16.0901 21.74C16.0901 21.91 16.1001 22.03 16.1201 22.1C16.1501 22.19 16.2001 22.23 16.2801 22.23C16.3501 22.23 16.3901 22.21 16.4201 22.15C16.4601 22.1 16.4701 22.02 16.4701 21.93ZM16.9001 21.27V20.98H17.9401V21.27H17.6101V22.46H17.2401V21.27H16.9001ZM18.0301 21.73C18.0301 21.51 18.0701 21.34 18.1501 21.2C18.2501 21.04 18.4001 20.96 18.6001 20.96C18.8001 20.96 18.9501 21.04 19.0501 21.2C19.1301 21.33 19.1701 21.51 19.1701 21.73C19.1701 21.95 19.1301 22.12 19.0501 22.25C18.9501 22.41 18.8001 22.49 18.6001 22.49C18.4001 22.49 18.2501 22.41 18.1501 22.25C18.0701 22.12 18.0301 21.95 18.0301 21.73ZM18.4301 21.73C18.4301 21.9 18.4401 22.02 18.4601 22.08C18.4801 22.17 18.5301 22.22 18.6101 22.22C18.6801 22.22 18.7301 22.17 18.7601 22.08C18.7801 22.01 18.7901 21.89 18.7901 21.72C18.7901 21.55 18.7801 21.43 18.7601 21.36C18.7401 21.27 18.6901 21.22 18.6101 21.22C18.5401 21.22 18.4901 21.27 18.4701 21.36C18.4401 21.44 18.4301 21.56 18.4301 21.73ZM19.3501 22.47V20.99H19.9701C20.1001 20.99 20.2101 21.02 20.2901 21.09C20.3701 21.16 20.4101 21.24 20.4101 21.34C20.4101 21.43 20.3801 21.5 20.3301 21.57C20.2801 21.63 20.2101 21.67 20.1301 21.69C20.2301 21.72 20.3001 21.76 20.3601 21.82C20.4101 21.88 20.4401 21.96 20.4401 22.06C20.4401 22.18 20.4001 22.28 20.3101 22.36C20.2201 22.43 20.1101 22.47 19.9601 22.47H19.3501ZM19.7301 21.82V22.19H19.8701C19.9201 22.19 19.9601 22.18 19.9901 22.15C20.0301 22.12 20.0601 22.07 20.0601 22C20.0601 21.94 20.0401 21.9 20.0101 21.87C19.9801 21.84 19.9301 21.82 19.8701 21.82H19.7301ZM19.7301 21.25V21.57H19.8501C19.9101 21.57 19.9601 21.55 19.9901 21.53C20.0201 21.5 20.0401 21.46 20.0401 21.41C20.0401 21.35 20.0201 21.3 19.9801 21.28C19.9501 21.26 19.9101 21.25 19.8601 21.25H19.7301Z" fill="#034EA1"/>
<path d="M14.0907 23.1499V23.9399H14.2307V24.0999H13.7207V23.9399H13.8607V23.3799L13.7207 23.4199V23.2599C13.7507 23.2599 13.7907 23.2399 13.8407 23.2199C13.9007 23.1899 13.9407 23.1699 13.9507 23.1499H14.0907ZM14.3507 23.8599L14.5507 23.8299C14.5507 23.8599 14.5607 23.8899 14.5707 23.9099C14.5807 23.9399 14.6107 23.9499 14.6407 23.9499C14.6807 23.9499 14.7007 23.9299 14.7207 23.8799C14.7407 23.8399 14.7507 23.7699 14.7507 23.6899C14.7207 23.7099 14.6907 23.7199 14.6607 23.7299C14.6307 23.7399 14.6007 23.7499 14.5707 23.7499C14.5007 23.7499 14.4407 23.7299 14.4007 23.6799C14.3507 23.6299 14.3307 23.5699 14.3307 23.4999C14.3307 23.3899 14.3607 23.3099 14.4207 23.2399C14.4807 23.1799 14.5607 23.1399 14.6707 23.1399C14.7907 23.1399 14.8807 23.1899 14.9407 23.2999C14.9907 23.3899 15.0107 23.4899 15.0107 23.6199C15.0107 23.7499 14.9807 23.8599 14.9307 23.9499C14.8707 24.0599 14.7707 24.1199 14.6507 24.1199C14.4807 24.1099 14.3807 24.0299 14.3507 23.8599ZM14.7507 23.5499C14.7507 23.4699 14.7507 23.4099 14.7407 23.3799C14.7307 23.3199 14.7007 23.2999 14.6607 23.2999C14.6307 23.2999 14.6007 23.3199 14.5807 23.3499C14.5707 23.3799 14.5607 23.4099 14.5607 23.4499C14.5607 23.4899 14.5707 23.5299 14.5807 23.5499C14.5907 23.5699 14.6207 23.5899 14.6507 23.5899C14.6707 23.5899 14.6807 23.5899 14.7007 23.5799C14.7207 23.5699 14.7407 23.5599 14.7507 23.5499ZM15.2407 23.6999V23.5399H15.2907C15.3407 23.5399 15.3707 23.5299 15.4007 23.5099C15.4307 23.4899 15.4407 23.4599 15.4407 23.4099C15.4407 23.3799 15.4307 23.3499 15.4207 23.3299C15.4007 23.3099 15.3807 23.2999 15.3507 23.2999C15.3207 23.2999 15.2907 23.3099 15.2707 23.3299C15.2507 23.3499 15.2407 23.3799 15.2307 23.4099L15.0507 23.3299C15.0807 23.2599 15.1207 23.2099 15.1807 23.1799C15.2407 23.1399 15.3007 23.1299 15.3707 23.1299C15.4507 23.1299 15.5307 23.1499 15.5807 23.1999C15.6407 23.2499 15.6707 23.3199 15.6707 23.3999C15.6707 23.4499 15.6507 23.4999 15.6107 23.5399C15.5707 23.5699 15.5307 23.5899 15.4707 23.6099C15.5407 23.6199 15.6007 23.6399 15.6307 23.6699C15.6807 23.7099 15.7007 23.7599 15.7007 23.8299C15.7007 23.9199 15.6607 23.9899 15.5807 24.0399C15.5107 24.0899 15.4307 24.1099 15.3407 24.1099C15.2707 24.1099 15.2007 24.0899 15.1507 24.0599C15.1007 24.0299 15.0607 23.9799 15.0207 23.9099L15.1907 23.8199C15.2107 23.8699 15.2307 23.8999 15.2507 23.9099C15.2707 23.9199 15.2907 23.9299 15.3207 23.9299C15.4007 23.9299 15.4407 23.8899 15.4407 23.8199C15.4407 23.7699 15.4207 23.7299 15.3907 23.7099C15.3707 23.6999 15.3307 23.6899 15.2807 23.6899H15.2407V23.6999ZM15.7607 23.6199C15.7607 23.4799 15.7807 23.3699 15.8207 23.2799C15.8707 23.1799 15.9607 23.1299 16.0907 23.1299C16.2107 23.1299 16.3007 23.1799 16.3607 23.2799C16.4007 23.3599 16.4307 23.4699 16.4307 23.6199C16.4307 23.7599 16.4107 23.8799 16.3507 23.9599C16.2907 24.0599 16.2107 24.0999 16.0907 24.0999C15.9607 24.0999 15.8707 24.0499 15.8207 23.9599C15.7807 23.8899 15.7607 23.7699 15.7607 23.6199ZM16.0907 23.2899C16.0607 23.2899 16.0407 23.2999 16.0307 23.3299C16.0207 23.3599 16.0107 23.3999 16.0107 23.4699V23.7599C16.0107 23.8299 16.0207 23.8799 16.0307 23.9099C16.0407 23.9399 16.0607 23.9499 16.1007 23.9499C16.1307 23.9499 16.1507 23.9399 16.1607 23.9099C16.1707 23.8799 16.1807 23.8399 16.1807 23.7699V23.4799C16.1807 23.4099 16.1707 23.3599 16.1607 23.3299C16.1507 23.3099 16.1207 23.2899 16.0907 23.2899Z" fill="#034EA1"/>
<path fill-rule="evenodd" clip-rule="evenodd" d="M9.00009 6.18001C8.10009 6.04001 7.27009 5.84001 6.43009 5.51001L7.58009 10.12C7.77009 10.88 7.80009 11.4 7.80009 11.8C7.80009 12.77 7.12009 14.06 6.51009 15.12C5.56009 16.78 4.63009 18.13 4.47009 19.79C4.29009 21.74 7.53009 22.41 9.00009 22.55V6.18001Z" fill="#034EA1"/>
<path fill-rule="evenodd" clip-rule="evenodd" d="M21.0107 6.18001C21.9107 6.04001 22.7407 5.84001 23.5807 5.51001L22.4307 10.12C22.2407 10.88 22.2107 11.4 22.2107 11.8C22.2107 12.77 22.8907 14.06 23.5007 15.12C24.4507 16.78 25.3807 18.13 25.5407 19.79C25.7207 21.74 22.4807 22.41 21.0107 22.55V6.18001Z" fill="#034EA1"/>
</svg>
