<svg width="40" height="29" viewBox="0 0 40 29" fill="none" xmlns="http://www.w3.org/2000/svg">
<g clip-path="url(#clip0_98_18557)">
<path d="M20 4.92578L0 16.4801L20 28.0344L40 16.4801L20 4.92578Z" fill="#C8102E"/>
<path d="M19.2459 1.54286L17.7487 1.39429L17.1201 0L16.5144 1.38286L15.0059 1.53143L16.1259 2.53714L15.8173 4.02286L17.1201 3.25714L18.4344 4.02286L18.1144 2.53714L19.2459 1.54286Z" fill="#C5B783"/>
<path d="M30.7429 1.54286L29.2458 1.39429L28.6172 0L28.0115 1.38286L26.5029 1.53143L27.6344 2.53714L27.3144 4.02286L28.6172 3.25714L29.9315 4.02286L29.6115 2.53714L30.7429 1.54286Z" fill="#C5B783"/>
<path d="M24.9942 1.54286L23.4856 1.39429L22.8799 0L22.2628 1.38286L20.7656 1.53143L21.8856 2.53714L21.5656 4.02286L22.8799 3.25714L24.1828 4.02286L23.8628 2.53714L24.9942 1.54286Z" fill="#C5B783"/>
<path d="M13.4971 1.54286L11.9885 1.39429L11.3828 0L10.7657 1.38286L9.25708 1.54286L10.3771 2.54857L10.0571 4.03429L11.3714 3.26857L12.6742 4.03429L12.3542 2.54857L13.4971 1.54286Z" fill="#C5B783"/>
<path d="M25.0744 19.4174C23.8286 21.0746 21.8286 21.9203 20.0001 21.9203C16.8572 21.9203 13.7029 20.0346 13.7029 16.366C13.7029 13.646 16.0915 11.0746 20.0001 11.0746C21.2572 11.0746 22.4801 11.4746 23.1544 11.7717L24.2286 11.1546V13.6003L23.3944 14.0803C22.9807 13.4957 22.4235 13.0275 21.7765 12.7206C21.1294 12.4137 20.4143 12.2785 19.6998 12.328C18.9854 12.3775 18.2957 12.6101 17.6972 13.0033C17.0987 13.3965 16.6115 13.9372 16.2824 14.5733C15.9533 15.2093 15.7935 15.9194 15.8183 16.6351C15.8431 17.3508 16.0517 18.0481 16.424 18.6598C16.7963 19.2716 17.3198 19.7772 17.9441 20.1281C18.5684 20.4789 19.2725 20.6632 19.9886 20.6632C20.7486 20.6656 21.4995 20.4974 22.1858 20.171C22.8722 19.8447 23.4765 19.3684 23.9544 18.7774L25.0744 19.4174ZM37.5086 16.4803L20.0001 26.5832L2.50293 16.4803L20.0001 6.37744L37.5086 16.4803ZM20.0001 25.1432L34.9944 16.4803L29.9886 13.6003L22.4915 17.9317V18.8003C22.1562 19.1615 21.7465 19.4456 21.2907 19.6331C20.8349 19.8205 20.3439 19.9068 19.8515 19.886L20.3886 19.4974L19.4515 18.4574L18.0915 18.7546L18.3201 19.4517C17.7909 19.1516 17.3511 18.7161 17.0459 18.1899C16.7406 17.6637 16.5808 17.0658 16.5829 16.4574L17.0744 17.006L18.0115 15.966L17.5886 14.6289L16.9829 14.8917C17.2099 14.4541 17.5302 14.0717 17.9212 13.7716C18.3122 13.4714 18.7644 13.2608 19.2458 13.1546L20.0001 13.5889L20.7544 13.1546C21.2755 13.2726 21.7618 13.5107 22.1745 13.85C22.5872 14.1894 22.9149 14.6204 23.1315 15.1089L25.0058 14.0346V10.7089L20.0001 7.81744L5.00579 16.4803L10.0115 19.3603L13.0629 17.6003C13.2307 18.4515 13.5812 19.2561 14.0902 19.9585C14.5993 20.661 15.2548 21.2445 16.0115 21.6689L15.0058 22.2517L20.0001 25.1432Z" fill="white"/>
<path d="M22.5029 15.04V14.1714L23.7715 14.7428C23.7715 14.7428 23.8972 14.8342 24.1029 15.7257C24.1944 16.5828 24.1372 16.9828 24.1372 16.9828L23.2572 17.4857C23.2572 17.4857 23.5886 16.8 23.2572 15.4742C22.6858 15.1314 22.5029 15.04 22.5029 15.04Z" fill="#C8102E"/>
<path d="M19.0745 16.0686L20.183 14.8457L21.6688 15.4971L21.5087 17.1428L19.9087 17.4743L19.0745 16.0686Z" fill="#C8102E"/>
</g>
<defs>
<clipPath id="clip0_98_18557">
<rect width="40" height="28.0343" fill="white"/>
</clipPath>
</defs>
</svg>
