<svg width="40" height="40" viewBox="0 0 40 40" fill="none" xmlns="http://www.w3.org/2000/svg">
<path fill-rule="evenodd" clip-rule="evenodd" d="M34.1466 25C34.1466 25.9467 33.9066 26.8267 33.3733 27.6133C32.6266 28.72 31.4266 29.4533 30.24 30C28.8933 30.64 27.4533 31.1067 26.0666 31.6533C23.9333 32.48 21.5066 33.5333 20.2533 35.5733L19.9866 36.0133L19.72 35.5733C19.52 35.24 19.28 34.9333 19.0266 34.6533C17.7066 33.2 15.7066 32.3467 13.92 31.6533C12.5333 31.12 11.0933 30.64 9.74662 30C8.57328 29.44 7.37329 28.7067 6.62662 27.6133C6.09329 26.8267 5.85329 25.9467 5.85329 25C5.83995 23.56 6.09328 22.2 6.47995 20.8133C6.82662 19.5867 7.27995 18.4 7.61329 17.1867C7.94662 15.96 8.14662 14.7733 8.06662 13.4933C7.97329 11.9067 7.45328 10.4133 6.74662 9L6.63995 8.78667L11.9466 4L12.1333 4.09333C17.6533 6.85333 22.44 6.82667 27.96 4.09333L28.1466 4L33.3466 8.78667L33.24 9C32.52 10.4133 32.0133 11.9067 31.92 13.4933C31.84 14.76 32.04 15.96 32.3733 17.1867C32.7066 18.4133 33.16 19.6 33.5066 20.8133C33.92 22.2 34.16 23.5467 34.1466 25Z" fill="white"/>
<path fill-rule="evenodd" clip-rule="evenodd" d="M20.0002 35.3997C23.2802 30.0797 33.7468 31.2264 33.8402 24.9997C33.8268 18.9597 29.4268 15.8664 32.9735 8.85305L28.1068 4.37305C22.5202 7.14638 17.6268 7.19971 12.0002 4.37305L7.02682 8.85305C10.5735 15.853 6.17349 18.9464 6.16016 24.9997C6.26682 31.2264 16.7202 30.0797 20.0002 35.3997Z" fill="#F48120"/>
<path fill-rule="evenodd" clip-rule="evenodd" d="M19.9867 34.1602C16.9733 29.4002 7.08 30.5335 7 24.9068C7.01333 19.0935 11.4533 16.0268 7.97333 9.1335L12.0533 5.3335C14.3867 6.4135 17.6667 7.36016 19.9867 7.34683V7.3335C22.32 7.34683 25.6 6.4135 27.9333 5.3335L32.0667 9.12016C28.5867 16.0135 33.0133 19.0802 33.0267 24.8935C32.9333 30.5335 23.0133 29.3868 20 34.1468L19.9867 34.1602Z" fill="#231F20" stroke="white" stroke-width="0.382487" stroke-miterlimit="22.9256"/>
<path fill-rule="evenodd" clip-rule="evenodd" d="M19.9867 33.2001C17.0934 28.6668 7.76008 30.1201 7.66675 24.7468C7.66675 23.0535 8.08008 21.5868 8.56008 20.1734C9.64008 16.9334 11.0534 13.9734 8.72008 9.41345L12.3734 6.12012C14.6134 7.14678 17.7601 8.05345 19.9867 8.04012V8.02678C22.2267 8.04012 25.3734 7.14678 27.6134 6.12012L31.2667 9.41345C27.9201 15.9868 32.3067 19.2134 32.3201 24.7601C32.2267 30.1334 22.8934 28.6668 20.0001 33.2135H19.9867V33.2001Z" fill="#231F20"/>
<path fill-rule="evenodd" clip-rule="evenodd" d="M26.027 10.56V10.2667H26.2136C26.2536 10.2667 26.2936 10.2533 26.307 10.24C26.3336 10.2133 26.347 10.1867 26.347 10.1333C26.347 10.08 26.3336 10.04 26.307 10.0267C26.2803 10 26.2536 10 26.2136 10H26.027V9.70667H26.2136C26.4003 9.70667 26.5336 9.73334 26.587 9.77334C26.667 9.82667 26.707 9.94667 26.707 10.1333C26.707 10.32 26.667 10.44 26.6003 10.4933C26.5336 10.5467 26.4136 10.56 26.227 10.56H26.027ZM26.907 9.40001H27.267V10.56H26.907V9.40001ZM27.5336 9.40001H27.8936V10.2C27.8803 10.2267 27.8803 10.2533 27.867 10.2933C27.867 10.3067 27.867 10.32 27.867 10.32C27.867 10.32 27.8803 10.3067 27.8936 10.2933C27.907 10.28 27.907 10.2667 27.907 10.2533L28.5203 9.40001H29.107V10.56H28.747V9.76001C28.747 9.76001 28.7603 9.73334 28.7736 9.66667C28.7736 9.65334 28.7736 9.64001 28.7736 9.64001C28.7603 9.64001 28.7603 9.65334 28.747 9.66667C28.7336 9.68001 28.7336 9.69334 28.7336 9.70667L28.1203 10.56H27.5336V9.40001ZM28.6403 9.17334H28.067V9.33334H28.6403V9.17334ZM26.027 9.68001V9.97334H25.707V10.2533H26.027V10.5467H25.347V9.38667H25.707V9.66667H26.027V9.68001ZM22.6003 12.1067V11.8267H22.987C23.0536 11.8267 23.0936 11.8 23.0936 11.7467C23.0936 11.7067 23.0803 11.68 23.067 11.6667C23.0536 11.6533 23.027 11.6533 22.987 11.6533H22.6003V11.4H23.0803C23.2003 11.4 23.2936 11.4267 23.347 11.48C23.4003 11.5333 23.4403 11.6267 23.4403 11.7333C23.4403 11.88 23.4003 11.9733 23.3336 12.04C23.2803 12.0933 23.187 12.12 23.0803 12.12H22.6003V12.1067ZM22.6003 11.24V10.96H23.3336V11.24H22.6003ZM22.6003 10.56V10.2667H22.787C22.827 10.2667 22.867 10.2533 22.8803 10.24C22.907 10.2133 22.9203 10.1867 22.9203 10.1333C22.9203 10.08 22.907 10.04 22.8803 10.0267C22.8536 10.0133 22.827 10 22.787 10H22.6003V9.70667H22.787C22.9736 9.70667 23.107 9.73334 23.1603 9.77334C23.2403 9.82667 23.2803 9.96001 23.2803 10.1467C23.2803 10.3333 23.2403 10.4533 23.1603 10.52C23.0936 10.56 22.9736 10.5867 22.787 10.5867H22.6003V10.56ZM23.5603 9.40001H23.9203V9.80001H24.6936V9.40001H25.0536V10.56H24.6936V10.1067H23.9203V10.56H23.5603V9.40001ZM22.6003 9.68001V9.97334H22.2803V10.2533H22.6003V10.5467H21.9203V9.38667H22.2803V9.66667H22.6003V9.68001ZM22.6003 10.96V11.24H22.3736V11.4H22.6003V11.6533H22.3736V11.84H22.6003V12.12H22.0136V10.96H22.6003ZM19.027 11.2533V10.96H19.9336V12.12H19.5736V11.2667H19.027V11.2533ZM19.027 10.5733V10.2667C19.227 10.2667 19.347 10.2533 19.387 10.2267C19.427 10.2 19.4403 10.12 19.4403 9.97334C19.4403 9.82667 19.427 9.73334 19.387 9.72001C19.347 9.69334 19.2403 9.68001 19.027 9.68001V9.38667C19.4003 9.38667 19.6136 9.41334 19.6936 9.48001C19.7603 9.53334 19.8003 9.70667 19.8003 9.98667C19.8003 10.2667 19.7603 10.44 19.6936 10.4933C19.6136 10.5467 19.4003 10.5733 19.027 10.5733ZM21.5603 9.40001V10.56H21.2003V9.70667H20.5736C20.5736 10.04 20.547 10.2667 20.4936 10.4C20.4403 10.5067 20.347 10.5733 20.227 10.5733H20.0536V10.28C20.1336 10.28 20.187 10.24 20.2003 10.1733C20.2136 10.1067 20.227 9.85334 20.227 9.42667H21.5603V9.40001ZM21.4136 10.96H21.8136L21.4003 11.6933C21.3203 11.84 21.2803 11.9067 21.267 11.9333C21.227 12 21.1736 12.04 21.1203 12.0667C21.0536 12.0933 20.9736 12.1067 20.8536 12.1067H20.4803V11.8133H20.867C20.8936 11.8133 20.907 11.8133 20.9203 11.8133C20.9203 11.8133 20.9336 11.8 20.947 11.7867L20.2003 10.96H20.6936L21.107 11.44C21.107 11.44 21.1203 11.4667 21.1336 11.5067C21.1336 11.52 21.147 11.5333 21.147 11.5333C21.147 11.5333 21.1603 11.52 21.1603 11.48C21.1603 11.44 21.1603 11.4267 21.1736 11.4133L21.4136 10.96ZM19.027 9.38667V9.68001C18.827 9.68001 18.707 9.69334 18.667 9.72001C18.627 9.74667 18.6136 9.82667 18.6136 9.97334C18.6136 10.12 18.627 10.2 18.667 10.2267C18.707 10.2533 18.827 10.2667 19.027 10.2667V10.56C18.7603 10.56 18.5736 10.5467 18.4936 10.5333C18.387 10.5067 18.3203 10.4533 18.2936 10.3733C18.267 10.3067 18.267 10.1733 18.267 9.97334C18.267 9.69334 18.307 9.52001 18.3736 9.46667C18.4403 9.41334 18.6536 9.38667 19.027 9.38667ZM19.027 10.96V11.2533H18.947C18.947 11.5867 18.9203 11.8133 18.867 11.9467C18.8136 12.0533 18.7336 12.12 18.6003 12.12H18.427V11.8267C18.507 11.8267 18.5603 11.7867 18.5736 11.72C18.587 11.6533 18.6003 11.4 18.6003 10.9733H19.027V10.96ZM17.2403 11.68V11.3333L17.627 10.9467H18.1203L17.547 11.4933L18.2003 12.0933H17.6803L17.2403 11.68ZM17.2403 10.56V10.28H17.4936C17.5603 10.28 17.6003 10.2533 17.6003 10.2C17.6003 10.16 17.587 10.1333 17.5736 10.12C17.5603 10.1067 17.5336 10.1067 17.4936 10.1067H17.2403V9.85334H17.6003C17.7203 9.85334 17.8136 9.88001 17.867 9.93334C17.9203 9.98667 17.947 10.08 17.947 10.1867C17.947 10.3333 17.9203 10.4267 17.8403 10.4933C17.787 10.5467 17.6936 10.5733 17.587 10.5733H17.2403V10.56ZM17.2403 9.68001V9.40001H17.8536V9.68001H17.2403ZM12.5203 9.50667C12.627 9.50667 12.7203 9.54667 12.787 9.61334C12.8536 9.69334 12.8936 9.81334 12.8936 9.97334C12.8936 10.1333 12.8536 10.2533 12.787 10.3333C12.7203 10.4 12.627 10.44 12.5203 10.44H12.307V10.16H12.4003C12.4403 10.16 12.4803 10.1467 12.4936 10.12C12.5203 10.0933 12.5336 10.04 12.5336 9.98667C12.5336 9.92001 12.5203 9.88001 12.4936 9.85334C12.467 9.82667 12.427 9.81334 12.387 9.81334H12.2936V9.52001H12.5203V9.50667ZM17.2403 9.40001V9.68001H16.8803V9.84001H17.2403V10.0933H16.8803V10.28H17.2403V10.56H16.5336V9.40001H17.2403ZM17.2403 11.3333V11.68L17.2136 11.6533H17.027V12.1067H16.667V10.9467H17.027V11.3467H17.2136L17.2403 11.3333ZM14.3203 9.40001H14.7203L14.307 10.1333C14.227 10.28 14.187 10.36 14.1736 10.3733C14.1336 10.44 14.0803 10.48 14.027 10.5067C13.9603 10.5333 13.8803 10.5467 13.7603 10.5467H13.387V10.2533H13.7736C13.8003 10.2533 13.8136 10.2533 13.827 10.24C13.8403 10.24 13.8403 10.2267 13.8536 10.2133L13.107 9.38667H13.6003L14.0136 9.86667C14.0136 9.86667 14.027 9.89334 14.0403 9.93334C14.0403 9.94667 14.0536 9.96001 14.0536 9.96001C14.0536 9.96001 14.0536 9.94667 14.0536 9.90667C14.0536 9.86667 14.067 9.85334 14.067 9.84001L14.3203 9.40001ZM14.8803 9.69334V9.40001H16.267V9.69334H15.7603V10.5467H15.4003V9.69334H14.8803ZM12.307 10.4267H12.0803V10.5467H11.7203V10.4267H11.4936V10.1467H11.7203V9.80001H11.4936V9.50667H11.7203V9.40001H12.0803V9.50667H12.307V9.80001H12.0803V10.1467H12.307V10.4267ZM11.4936 10.4267H11.2803C11.1736 10.4267 11.0803 10.3867 11.0136 10.32C10.947 10.24 10.907 10.12 10.907 9.96001C10.907 9.80001 10.947 9.68001 11.0136 9.60001C11.0803 9.53334 11.1736 9.49334 11.2803 9.49334H11.4936V9.78667H11.4003C11.3603 9.78667 11.3203 9.80001 11.307 9.82667C11.2803 9.85334 11.267 9.90667 11.267 9.96001C11.267 10.0267 11.2803 10.0667 11.307 10.0933C11.3336 10.12 11.3603 10.1333 11.4003 10.1333H11.4936V10.4267Z" fill="white"/>
<path fill-rule="evenodd" clip-rule="evenodd" d="M19.9868 33.2C18.6135 31.0533 15.8402 30.2267 13.2402 29.4133C17.7468 29.4133 22.2535 29.4133 26.7602 29.4133C24.1602 30.2267 21.3735 31.0533 20.0002 33.2H19.9868ZM12.4802 29.1733C11.7868 28.9467 11.1335 28.72 10.5202 28.44C16.8402 28.44 23.1602 28.44 29.4802 28.44C28.8802 28.7067 28.2135 28.9467 27.5202 29.1733C22.5068 29.1733 17.4935 29.1733 12.4802 29.1733ZM9.8535 28.12C9.4935 27.92 9.16017 27.7067 8.86684 27.48C16.2802 27.48 23.7068 27.48 31.1202 27.48C30.8268 27.72 30.4935 27.9333 30.1335 28.12C23.3868 28.12 16.6135 28.12 9.8535 28.12ZM8.44017 27.0533C8.28017 26.88 8.1335 26.6933 8.0135 26.4933C16.0002 26.4933 24.0002 26.4933 32.0002 26.4933C31.8802 26.6933 31.7335 26.88 31.5735 27.0533C23.8535 27.0533 16.1468 27.0533 8.44017 27.0533ZM7.76017 26C7.6935 25.8533 7.6535 25.6933 7.6135 25.52C15.8802 25.52 24.1335 25.52 32.4002 25.52C32.3602 25.6933 32.3068 25.8533 32.2402 26C24.0802 26 15.9202 26 7.76017 26ZM7.52017 24.9467C7.50684 24.84 7.50684 24.7467 7.50684 24.64C7.50684 24.6133 7.50684 24.5867 7.50684 24.56C15.8402 24.56 24.1735 24.56 32.5068 24.56C32.5068 24.5867 32.5068 24.6133 32.5068 24.64C32.5068 24.7467 32.4935 24.8533 32.4935 24.9467C24.1602 24.9467 15.8402 24.9467 7.52017 24.9467ZM7.52017 23.8933C7.5335 23.7867 7.5335 23.68 7.54684 23.5733C15.8402 23.5733 24.1468 23.5733 32.4402 23.5733C32.4535 23.68 32.4535 23.7867 32.4668 23.8933C24.1602 23.8933 15.8402 23.8933 7.52017 23.8933ZM7.6535 22.84C7.66684 22.76 7.68017 22.68 7.6935 22.6133C15.8935 22.6133 24.1068 22.6133 32.3068 22.6133C32.3202 22.6933 32.3335 22.76 32.3468 22.84C24.1202 22.84 15.8802 22.84 7.6535 22.84ZM7.86684 21.7733C7.88017 21.72 7.8935 21.68 7.90684 21.6267C15.9735 21.6267 24.0402 21.6267 32.0935 21.6267C32.1068 21.68 32.1202 21.72 32.1335 21.7733C24.0402 21.7733 15.9602 21.7733 7.86684 21.7733ZM8.16017 20.72C8.16017 20.6933 8.1735 20.68 8.1735 20.6533C16.0535 20.6533 23.9335 20.6533 31.8135 20.6533C31.8135 20.68 31.8268 20.6933 31.8268 20.72C23.9468 20.72 16.0535 20.72 8.16017 20.72Z" fill="#F48120"/>
<path d="M20.0003 21.3467C20.867 21.3467 21.6937 21.6 22.4137 22.04C23.4137 22.6533 24.1737 23.6533 24.467 24.88C24.7603 26.1067 24.5203 27.3467 23.907 28.3467C23.2937 29.3467 22.2937 30.1067 21.067 30.4C20.707 30.48 20.3603 30.52 20.0137 30.52V30.4533C20.3603 30.4533 20.707 30.4133 21.0537 30.3333C22.267 30.0533 23.2537 29.2933 23.8537 28.3067C24.467 27.32 24.6937 26.1067 24.4137 24.8933C24.1337 23.68 23.3737 22.6933 22.387 22.0933C21.6803 21.6533 20.867 21.4133 20.0137 21.4133V21.3467H20.0003ZM15.5337 27C15.2403 25.7733 15.4803 24.5333 16.107 23.5333C16.7203 22.5333 17.7203 21.7733 18.947 21.48C19.2937 21.4 19.6537 21.36 20.0003 21.36V21.4267C19.6537 21.4267 19.307 21.4667 18.9603 21.5467C17.747 21.84 16.7603 22.5867 16.147 23.5733C15.5337 24.56 15.307 25.7733 15.587 26.9867C15.8803 28.2 16.627 29.1867 17.6137 29.7867C18.3203 30.2267 19.1337 30.4667 19.987 30.4667V30.5333C19.1203 30.5333 18.2937 30.28 17.5737 29.84C16.587 29.2133 15.827 28.2267 15.5337 27Z" fill="#231F20"/>
<path d="M16.1602 23.5599C15.5468 24.5466 15.3202 25.7599 15.6002 26.9733C15.8935 28.1866 16.6402 29.1733 17.6268 29.7733C18.6135 30.3866 19.8268 30.6133 21.0402 30.3333C22.2535 30.0533 23.2402 29.2933 23.8402 28.3066C24.4535 27.3199 24.6802 26.1066 24.4002 24.8933C24.1202 23.6799 23.3602 22.6933 22.3735 22.0933C21.3868 21.4799 20.1735 21.2533 18.9602 21.5333C17.7468 21.8266 16.7602 22.5733 16.1602 23.5599Z" fill="white"/>
<path fill-rule="evenodd" clip-rule="evenodd" d="M23.9735 28.1464C23.5335 28.933 22.8668 29.5864 22.0402 29.9997V29.4797C22.6402 29.373 23.3068 28.9464 23.9735 28.1464ZM22.0402 26.3464V25.9997C22.3335 26.1997 22.6802 26.3864 23.1335 26.5864C22.7735 26.5064 22.4135 26.4264 22.0402 26.3464ZM22.0402 30.013C21.7335 30.173 21.4002 30.293 21.0402 30.373C20.8535 30.413 20.6802 30.4397 20.5068 30.4664L20.0402 29.4797C20.0668 29.3597 20.0802 29.253 20.0935 29.1464L19.6668 30.493C19.6002 30.493 19.5335 30.4797 19.4802 30.4797V29.173C19.6802 29.1464 19.8935 29.1064 20.1202 29.0264C20.1602 28.5597 20.1335 28.1464 20.1068 27.5997C20.2668 28.9597 21.0535 29.693 22.0535 29.5064V30.013H22.0402ZM22.0402 25.9997V26.3464C21.8002 26.2797 21.5468 26.2264 21.3068 26.1464L20.9602 24.973C21.3468 25.4264 21.6535 25.733 22.0402 25.9997ZM19.4802 24.7864V24.1997L19.5068 24.213L21.0002 24.2797L19.4802 24.7864ZM19.4802 30.4664C17.6268 30.253 16.0268 28.9064 15.5735 26.9864C15.2268 25.5464 15.6268 24.093 16.5068 23.0264L16.9068 23.5197C16.1468 24.053 16.0668 25.7997 17.0802 26.973C17.1868 28.093 17.9468 29.3197 19.4935 29.1464V30.4664H19.4802ZM19.4802 24.1997C18.8802 23.9464 18.3735 23.5464 17.9602 23.1597C18.3468 23.773 18.8135 24.293 19.2802 24.853L19.4802 24.7864V24.1997Z" fill="#E6E7E8"/>
<path d="M20.68 30.44C20.4934 30.4667 20.3067 30.48 20.12 30.4934V28.92C20.1334 28.72 20.1467 28.52 20.1467 28.32C20.1467 28.1867 20.1334 28.04 20.12 27.9067V27.6134C20.1467 27.84 20.16 28.08 20.1734 28.32C20.1734 28.5334 20.1734 28.7467 20.1467 28.96C20.5734 29.1734 20.9867 29.5867 21.64 29.4667C22.2134 29.16 22.64 28.76 23.08 28.3334C23.12 28.2934 23.16 28.2667 23.1867 28.2267C23.2534 27.6534 23.24 27.0934 23.0667 26.5734C22.84 26.5467 22.5867 26.4934 22.3467 26.44C22.12 26.3867 21.88 26.32 21.68 26.24C21.4534 26.5867 20.76 27.1067 20.1067 27.5867V24.1734C20.5334 24.16 20.88 24.1867 20.96 24.2134C21.3867 25.0667 21.56 25.52 21.6934 26.2C21.8934 26.2667 22.1334 26.3467 22.36 26.4C22.6 26.4534 22.8534 26.5067 23.08 26.5334C23.4134 26.2 23.72 25.7467 23.8134 25.1067C23.7467 24.8534 23.6667 24.6134 23.5734 24.3734C23.4934 24.16 23.4 23.9467 23.28 23.7334C22.7867 23.4134 22.2134 23.3067 21.68 23.24C21.5867 23.36 21.4934 23.48 21.4 23.6C21.2534 23.8 21.1067 24.0134 20.9867 24.2134L20.96 24.2C21.0934 24 21.2267 23.7867 21.3734 23.5867C21.4667 23.4667 21.5467 23.3467 21.6534 23.24C21.48 22.8134 21.2534 22.3467 20.72 21.9734C20.52 21.9467 20.32 21.92 20.12 21.8934V21.8534C20.2934 21.8667 20.48 21.8934 20.6667 21.92C21 21.8134 21.32 21.7067 21.68 21.6934C22.1734 21.8934 22.64 22.1734 23.0534 22.5467C23.2134 22.9067 23.3067 23.32 23.3067 23.6934C23.4267 23.92 23.52 24.1467 23.6134 24.3734C23.7067 24.6 23.7867 24.84 23.8534 25.08C24.12 25.44 24.3867 25.7467 24.5734 26.16C24.5467 26.8267 24.36 27.4667 24.0534 28.0534C23.7867 28.16 23.52 28.2267 23.24 28.2534C23.2 28.2934 23.16 28.3334 23.12 28.3734C22.6667 28.8 22.24 29.2 21.6667 29.5067C21.3867 29.9067 21.28 30.04 20.84 30.3734L20.68 30.44ZM20.1067 30.4934C19.8134 30.4934 19.5334 30.48 19.2534 30.4267C19.0134 30.24 18.8 30.0134 18.6534 29.7734C18.5867 29.7467 18.52 29.7334 18.4667 29.7067V29.6667C18.52 29.6934 18.5734 29.7067 18.6267 29.72C18.6267 29.72 18.6267 29.72 18.6267 29.7067C19.2 29.5867 19.68 29.28 20.1067 28.9467C20.1067 28.9334 20.1067 28.9067 20.1067 28.8934V30.4934ZM18.4667 21.8C18.6 21.8267 18.7467 21.8534 18.8934 21.8934C19.1867 21.8267 19.4934 21.8267 19.8134 21.84C19.9067 21.84 20.0134 21.8534 20.1067 21.8667V21.9067C20 21.8934 19.9067 21.8934 19.8 21.88C19.4934 21.8667 19.1867 21.8667 18.9067 21.9334C18.72 22.1067 18.5734 22.2667 18.44 22.4534V21.8H18.4667ZM20.1067 24.1734V27.5867L20.0934 27.6C19.4134 27.3334 18.8934 26.96 18.4667 26.5067V25.2667C18.5467 24.96 18.6667 24.68 18.8934 24.4C18.76 24.2534 18.6267 24.0934 18.5067 23.9334C18.4934 23.92 18.48 23.9067 18.4667 23.88V23.8267C18.4934 23.8534 18.5067 23.88 18.5334 23.9067C18.6534 24.0534 18.7867 24.2134 18.92 24.36C18.9334 24.3467 18.9334 24.3467 18.9467 24.3334C19.3334 24.24 19.76 24.1867 20.1067 24.1734ZM20.1067 27.6134V27.9067C20.0934 27.8134 20.0934 27.72 20.08 27.6134H20.1067ZM18.4667 29.72C18.2 29.6267 17.96 29.4934 17.72 29.3334C17.6134 29.2667 17.52 29.1734 17.4267 29.0934V29.04C17.52 29.1334 17.6267 29.2267 17.7467 29.3067C17.9734 29.4667 18.2134 29.5867 18.4667 29.6934V29.72ZM17.4267 22.1867C17.6534 22.0267 17.9067 21.8934 18.16 21.7734C18.2534 21.7734 18.36 21.7867 18.4534 21.8V22.44C18.28 22.6934 18.1467 22.96 18.0267 23.2534C18.16 23.4534 18.3067 23.64 18.4534 23.8267V23.88C18.2934 23.6667 18.1334 23.4667 17.9867 23.2534C17.8 23.28 17.6134 23.32 17.4267 23.4V22.1867ZM18.4667 25.2667V26.5067C18.4 26.44 18.3334 26.36 18.2667 26.28L17.4267 26.8V26.76L18.2534 26.24C18.3334 25.9067 18.3734 25.5734 18.4667 25.2667ZM17.4267 29.08C17.2934 28.96 17.1734 28.8134 17.0667 28.6667C16.7867 28.68 16.48 28.6 16.2267 28.4934C15.92 28.0534 15.6934 27.5334 15.56 26.9867C15.5067 26.7467 15.4667 26.5067 15.4534 26.2667C15.5467 26.0267 15.6667 25.84 15.92 25.6C15.9467 25.32 16 25.0134 16.1067 24.7067C16.2 24.44 16.32 24.1734 16.4667 23.92C16.4134 23.68 16.3734 23.4267 16.3867 23.16C16.68 22.7867 17.0267 22.4534 17.4267 22.1734V23.4C17.12 23.52 16.8 23.7067 16.4934 23.96C16.3467 24.2 16.24 24.4534 16.1467 24.7067C16.04 25 15.9867 25.3067 15.96 25.5867C16.16 26.1334 16.7067 26.5734 17.0934 26.96L17.4267 26.76V26.8L17.1067 27C17 27.4534 16.9334 27.9734 17.0667 28.6134C17.1734 28.7734 17.2934 28.9067 17.4267 29.0267V29.08Z" fill="#231F20"/>
<path fill-rule="evenodd" clip-rule="evenodd" d="M11.6803 22.9064H11.6136H11.5469L11.4803 22.8931L11.4136 22.8797H11.3469L11.2803 22.8664L11.2269 22.8531L11.1603 22.8397L11.0936 22.8264L11.0403 22.8131L10.9736 22.7864L10.4536 22.6264L10.4269 19.5064L10.8003 19.7864L10.4003 19.0131L10.3736 18.9731L10.3603 18.9464L10.3469 18.9064H9.6936V16.6664H14.3736V15.3731H16.8803H17.0403H17.1869L17.3469 15.3864H17.4936L17.6403 15.3997L17.7736 15.4131L17.9203 15.4397L18.0536 15.4664L18.1736 15.4797L18.3069 15.5197L18.4269 15.5464L18.5469 15.5864L18.6536 15.6264L18.7736 15.6797L18.8803 15.7331L18.9869 15.7864L19.1069 15.8531L19.2136 15.9464L19.3203 16.0264L19.4136 16.1331L19.5069 16.2397L19.5869 16.3464L19.6269 16.4131L19.8136 15.8397H19.6136V13.5997H23.5069L23.9336 15.1197L24.6136 15.2931L24.6269 15.2664V15.2131L24.6403 15.1597L24.6536 15.1064V15.0397V14.9597L24.6669 14.8797V14.7997V14.7197L24.6803 14.6264V14.5197V14.4131V14.3064V14.1997V14.1331H24.1336V11.8931H29.8003V14.1331H29.3603V15.7864H29.8003V18.0264H26.2136V17.7597L26.1869 17.7864L26.1069 17.8397L26.0136 17.8931L25.9336 17.9464L25.8403 17.9864L25.7469 18.0264L25.6536 18.0531L25.5603 18.0797L25.4669 18.1064L25.3603 18.1197L25.2669 18.1331L25.1736 18.1464H25.0803V19.7331H18.7336V19.5464L18.6936 19.5597L18.5603 19.5997L18.4269 19.6397L18.2803 19.6797L18.1469 19.7064V21.5064H14.3736V20.7064L14.3603 20.7331L14.2936 20.8931L14.2269 21.0397L14.1736 21.1864L14.1069 21.3331L14.0403 21.4531L13.9736 21.5864L13.9069 21.7064L13.8536 21.8264L13.7869 21.9331L13.7203 22.0264L13.6536 22.1331L13.5736 22.2264L13.4936 22.3197L13.4136 22.3997L13.3469 22.4664L13.2669 22.5331L13.1869 22.5864L13.1069 22.6397L13.0136 22.6931L12.9203 22.7331L12.8269 22.7731L12.7336 22.7997L12.6403 22.8264L12.5469 22.8531L12.4536 22.8797L12.3603 22.8931L12.2536 22.9064L12.1603 22.9197H12.0536H11.9603H11.8803H11.8136H11.7469L11.6803 22.9064Z" fill="#231F20" stroke="#F6921E" stroke-width="0.382541" stroke-miterlimit="22.9256"/>
<path fill-rule="evenodd" clip-rule="evenodd" d="M21.7335 17.8398V16.8798H22.1469L21.7602 15.5198H21.7335V14.2798H23.0002L23.9602 17.7731C23.9869 17.8931 24.0135 17.9731 24.0402 18.0131C24.0935 18.1198 24.1869 18.1731 24.3202 18.1731H24.4269V19.0531H22.1469V18.1731H22.3069C22.3735 18.1731 22.4135 18.1731 22.4535 18.1598C22.4802 18.1464 22.4935 18.1198 22.4935 18.0664C22.4935 18.0531 22.4935 18.0264 22.4802 17.9998C22.4669 17.9331 22.4535 17.8798 22.4402 17.8398H21.7335ZM29.1202 17.3464H26.8935V16.4664H26.9735C27.0669 16.4664 27.1202 16.4531 27.1602 16.4264C27.2135 16.3864 27.2535 16.3064 27.2535 16.1864V13.5331H26.4802C26.4802 14.6798 26.4269 15.5598 26.3069 16.1598C26.2269 16.5731 26.1069 16.8798 25.9335 17.0798C25.7202 17.3331 25.4402 17.4664 25.0669 17.4664C24.9735 17.4664 24.9069 17.4664 24.8535 17.4531C24.7202 17.4264 24.5869 17.3864 24.4535 17.3198V15.9598C24.4935 15.9731 24.5469 15.9864 24.6402 15.9998C24.7202 16.0131 24.7869 16.0264 24.8269 16.0264C25.0535 16.0264 25.2135 15.8531 25.2935 15.4931C25.3469 15.2264 25.3869 14.7464 25.3869 14.0931V13.8664C25.3869 13.7064 25.3735 13.5998 25.3469 13.5464C25.3202 13.4931 25.2269 13.4664 25.0935 13.4664H24.8402V12.5864H29.1335V13.4664H28.9735C28.8402 13.4664 28.7602 13.5064 28.7202 13.5731C28.7069 13.5998 28.6935 13.6531 28.6935 13.7464V16.1864C28.6935 16.3198 28.7202 16.3864 28.7602 16.4264C28.8002 16.4531 28.8669 16.4798 28.9735 16.4798H29.1469V17.3464H29.1202ZM21.7335 14.2798V15.5198L21.3202 16.8798H21.7335V17.8398H21.0135C21.0002 17.8798 21.0002 17.9064 20.9869 17.9331C20.9735 17.9598 20.9735 17.9864 20.9735 18.0131C20.9735 18.0798 20.9869 18.1198 21.0269 18.1464C21.0669 18.1731 21.1069 18.1864 21.1602 18.1864H21.2269V19.0664H19.4002V18.1864H19.5069C19.6269 18.1864 19.7202 18.1464 19.7735 18.0798C19.8269 17.9998 19.8935 17.8531 19.9602 17.6131L20.6135 15.4931C20.6535 15.3731 20.6669 15.2931 20.6669 15.2664C20.6669 15.2398 20.6535 15.2131 20.6135 15.1998C20.5735 15.1864 20.5069 15.1731 20.3735 15.1731H20.2535V14.2931H21.7335V14.2798ZM17.3469 20.8264V19.9464H17.4669V20.8264H17.3469ZM17.3469 19.1064V18.1064C17.4269 18.0798 17.4935 18.0531 17.5335 18.0131C17.6535 17.9198 17.7069 17.7731 17.7069 17.5731C17.7069 17.3598 17.6402 17.2131 17.5069 17.1331C17.4535 17.1064 17.4002 17.0798 17.3335 17.0531V16.0664C17.9069 16.1064 18.3469 16.1998 18.6269 16.3731C19.0402 16.6131 19.2535 17.0531 19.2535 17.6664C19.2535 18.1331 19.1202 18.4798 18.8402 18.7064C18.5735 18.9331 18.0669 19.0664 17.3469 19.1064ZM14.9335 18.2264C14.6935 18.2264 14.5469 18.2798 14.4935 18.3998C14.4402 18.5464 14.4002 18.6664 14.3602 18.7864L13.8535 20.1598C13.5202 21.0664 13.2269 21.6398 12.9469 21.9198C12.7202 22.1331 12.4002 22.2531 11.9602 22.2531C11.6402 22.2531 11.3735 22.2131 11.1335 22.1331L11.1202 20.8931C11.2269 20.9731 11.3335 21.0264 11.4535 21.0664C11.5202 21.0798 11.5869 21.0931 11.6402 21.0931C11.7602 21.0931 11.8535 21.0798 11.9202 21.0398C12.0002 20.9998 12.0535 20.9331 12.0935 20.8131L11.0002 18.7198C10.9602 18.6264 10.9069 18.5331 10.8669 18.4398C10.7869 18.3064 10.6669 18.2398 10.5202 18.2398H10.3735V17.3598H12.7069V18.2398H12.6269C12.5869 18.2398 12.5469 18.2398 12.5202 18.2531C12.4935 18.2664 12.4802 18.2931 12.4802 18.3464C12.4802 18.3864 12.4935 18.4264 12.5069 18.4664C12.5335 18.5064 12.5469 18.5331 12.5469 18.5464L13.0402 19.4931L13.3602 18.6398C13.3869 18.5598 13.4135 18.4931 13.4269 18.4398C13.4402 18.3864 13.4535 18.3464 13.4535 18.3331C13.4535 18.2931 13.4402 18.2531 13.4135 18.2398C13.3869 18.2264 13.3335 18.2131 13.2535 18.2131H13.1735V17.3331H14.9335V18.2264ZM17.3469 16.0664V17.0531C17.2402 17.0264 17.1202 17.0131 16.9735 17.0131V18.1464C17.1202 18.1464 17.2402 18.1331 17.3469 18.1064V19.1064C17.2269 19.1064 17.1069 19.1198 16.9735 19.1198V19.6798C16.9735 19.7998 16.9869 19.8798 17.0269 19.9064C17.0669 19.9331 17.1202 19.9464 17.2269 19.9464H17.3469V20.8264H15.0535V19.9464H15.3069C15.4002 19.9464 15.4535 19.9331 15.4802 19.9064C15.5202 19.8664 15.5469 19.7864 15.5469 19.6798V17.1998C15.5469 17.1064 15.5335 17.0398 15.5069 16.9998C15.4802 16.9598 15.4135 16.9331 15.3069 16.9331H15.0535V16.0531H16.8802C17.0402 16.0531 17.2002 16.0531 17.3469 16.0664Z" fill="white"/>
<path fill-rule="evenodd" clip-rule="evenodd" d="M14.9335 18.2264C14.6935 18.2264 14.5469 18.2798 14.4935 18.3998C14.4402 18.5464 14.4002 18.6664 14.3602 18.7864L13.8535 20.1598C13.5202 21.0664 13.2269 21.6398 12.9469 21.9198C12.7202 22.1331 12.4002 22.2531 11.9602 22.2531C11.6402 22.2531 11.3735 22.2131 11.1335 22.1331L11.1202 20.8931C11.2269 20.9731 11.3335 21.0264 11.4535 21.0664C11.5202 21.0798 11.5869 21.0931 11.6402 21.0931C11.7602 21.0931 11.8535 21.0798 11.9202 21.0398C12.0002 20.9998 12.0535 20.9331 12.0935 20.8131L11.0002 18.7198C10.9602 18.6264 10.9069 18.5331 10.8669 18.4398C10.7869 18.3064 10.6669 18.2398 10.5202 18.2398H10.3735V17.3598H12.7069V18.2398H12.6269C12.5869 18.2398 12.5469 18.2398 12.5202 18.2531C12.4935 18.2664 12.4802 18.2931 12.4802 18.3464C12.4802 18.3864 12.4935 18.4264 12.5069 18.4664C12.5335 18.5064 12.5469 18.5331 12.5469 18.5464L13.0402 19.4931L13.3602 18.6398C13.3869 18.5598 13.4135 18.4931 13.4269 18.4398C13.4402 18.3864 13.4535 18.3464 13.4535 18.3331C13.4535 18.2931 13.4402 18.2531 13.4135 18.2398C13.3869 18.2264 13.3335 18.2131 13.2535 18.2131H13.1735V17.3331H14.9335V18.2264ZM19.2669 17.6664C19.2669 18.1331 19.1335 18.4798 18.8535 18.7064C18.5335 18.9731 17.9069 19.1198 16.9735 19.1198V19.6798C16.9735 19.7998 16.9869 19.8798 17.0269 19.9064C17.0669 19.9331 17.1202 19.9464 17.2269 19.9464H17.4802V20.8264H15.0535V19.9464H15.3069C15.4002 19.9464 15.4535 19.9331 15.4802 19.9064C15.5202 19.8664 15.5469 19.7864 15.5469 19.6798V17.1998C15.5469 17.1064 15.5335 17.0398 15.5069 16.9998C15.4802 16.9598 15.4135 16.9331 15.3069 16.9331H15.0535V16.0531H16.8802C17.6935 16.0531 18.2935 16.1598 18.6402 16.3731C19.0535 16.6131 19.2669 17.0531 19.2669 17.6664ZM17.7202 17.5731C17.7202 17.3598 17.6535 17.2131 17.5202 17.1331C17.3869 17.0531 17.2135 17.0131 16.9735 17.0131V18.1464C17.2269 18.1464 17.4135 18.1064 17.5335 18.0131C17.6535 17.9331 17.7202 17.7864 17.7202 17.5731ZM24.4002 19.0531H22.1202V18.1731H22.2802C22.3469 18.1731 22.3869 18.1731 22.4269 18.1598C22.4535 18.1464 22.4669 18.1198 22.4669 18.0664C22.4669 18.0531 22.4669 18.0264 22.4535 17.9998C22.4402 17.9331 22.4269 17.8798 22.4135 17.8398H21.0002C20.9869 17.8798 20.9869 17.9064 20.9735 17.9331C20.9602 17.9598 20.9602 17.9864 20.9602 18.0131C20.9602 18.0798 20.9735 18.1198 21.0135 18.1464C21.0535 18.1731 21.0935 18.1864 21.1469 18.1864H21.2135V19.0664H19.3869V18.1864H19.4935C19.6135 18.1864 19.7069 18.1464 19.7602 18.0798C19.8135 17.9998 19.8802 17.8531 19.9469 17.6131L20.6002 15.4931C20.6402 15.3731 20.6535 15.2931 20.6535 15.2664C20.6535 15.2398 20.6402 15.2131 20.6002 15.1998C20.5602 15.1864 20.4935 15.1731 20.3602 15.1731H20.2402V14.2931H22.9469L23.9069 17.7864C23.9335 17.9064 23.9602 17.9864 23.9869 18.0264C24.0402 18.1331 24.1335 18.1864 24.2669 18.1864H24.3735V19.0531H24.4002ZM22.1469 16.8798L21.7602 15.5198H21.7335L21.3202 16.8798H22.1469ZM29.1202 17.3464H26.8935V16.4664H26.9735C27.0669 16.4664 27.1202 16.4531 27.1602 16.4264C27.2135 16.3864 27.2535 16.3064 27.2535 16.1864V13.5331H26.4802C26.4802 14.6798 26.4269 15.5598 26.3069 16.1598C26.2269 16.5731 26.1069 16.8798 25.9335 17.0798C25.7202 17.3331 25.4402 17.4664 25.0669 17.4664C24.9735 17.4664 24.9069 17.4664 24.8535 17.4531C24.7202 17.4264 24.5869 17.3864 24.4535 17.3198V15.9598C24.4935 15.9731 24.5469 15.9864 24.6402 15.9998C24.7202 16.0131 24.7869 16.0264 24.8269 16.0264C25.0535 16.0264 25.2135 15.8531 25.2935 15.4931C25.3469 15.2264 25.3869 14.7464 25.3869 14.0931V13.8664C25.3869 13.7064 25.3735 13.5998 25.3469 13.5464C25.3202 13.4931 25.2269 13.4664 25.0935 13.4664H24.8402V12.5864H29.1335V13.4664H28.9735C28.8402 13.4664 28.7602 13.5064 28.7202 13.5731C28.7069 13.5998 28.6935 13.6531 28.6935 13.7464V16.1864C28.6935 16.3198 28.7202 16.3864 28.7602 16.4264C28.8002 16.4531 28.8669 16.4798 28.9735 16.4798H29.1469V17.3464H29.1202Z" stroke="#F6921E" stroke-width="0.382541" stroke-miterlimit="22.9256"/>
</svg>
