<svg width="40" height="40" viewBox="0 0 40 40" fill="none" xmlns="http://www.w3.org/2000/svg">
<path d="M20.0133 36.7732C14.6 36.7732 10.1867 32.4932 9.93335 27.1466V3.22656H30.0533V27.0266C30.0667 32.0532 25.5733 36.7732 20.0133 36.7732Z" fill="white"/>
<path d="M30.2267 27.0269C30.2267 29.6269 29.04 32.1469 27.1333 34.0002C25.2933 35.7869 22.7867 36.9336 20 36.9336C17.2533 36.9336 14.7733 35.8536 12.9333 34.0936C11.08 32.3202 9.89334 29.8669 9.76001 27.1469V27.1336V3.22689V3.06689H9.92001H30.04H30.2V3.22689V27.0269H30.2267ZM10.1067 27.1336C10.2267 29.7736 11.3867 32.1336 13.1733 33.8536C14.9467 35.5602 17.36 36.6002 20.0133 36.6002C22.7067 36.6002 25.1333 35.4802 26.9067 33.7602C28.7467 31.9736 29.8933 29.5469 29.8933 27.0269V3.40023H10.1067V27.1336Z" fill="#92AE2A"/>
<path d="M29.4265 27.0268C29.4265 31.6935 25.2265 36.1335 19.9998 36.1335C14.9331 36.1335 10.7865 32.1335 10.5598 27.1202V12.2002H29.4265V27.0268ZM10.5731 5.82685V3.85352H29.4398V5.81352H10.5731V5.82685Z" fill="#B91222"/>
<path d="M19.9999 18.7065C24.3999 18.7065 27.9733 22.2799 27.9733 26.6799C27.9733 31.0799 24.3999 34.6532 19.9999 34.6532C15.5999 34.6532 12.0266 31.0799 12.0266 26.6799C12.0399 22.2799 15.5999 18.7065 19.9999 18.7065Z" fill="white"/>
<path d="M19.9999 19.2798C24.0799 19.2798 27.3866 22.5865 27.3866 26.6798C27.3866 30.7598 24.0799 34.0798 19.9999 34.0798C15.9199 34.0798 12.6133 30.7731 12.6133 26.6798C12.6133 22.5998 15.9199 19.2798 19.9999 19.2798Z" fill="#92AE2A"/>
<path d="M26.2264 23.0266L24.5064 25.4133L27.1998 26.6399L24.5198 27.8533L26.2398 30.2533L23.3198 29.9599L23.5998 32.8933L21.2264 31.1866L19.9864 33.8666L18.7864 31.1866L16.3864 32.9199L16.6798 29.9866L13.7331 30.2799L15.4664 27.8933L12.7598 26.6666L15.4531 25.4666L13.7198 23.0666L16.6531 23.3599L16.3598 20.4133L18.7331 22.1466L19.9598 19.4399L21.1598 22.1333L23.5731 20.3866L23.2798 23.3199L26.2264 23.0266Z" fill="#B91222"/>
<path d="M19.9733 30.9865C22.3592 30.9865 24.2933 29.0464 24.2933 26.6532C24.2933 24.2599 22.3592 22.3198 19.9733 22.3198C17.5875 22.3198 15.6533 24.2599 15.6533 26.6532C15.6533 29.0464 17.5875 30.9865 19.9733 30.9865Z" fill="white"/>
<path fill-rule="evenodd" clip-rule="evenodd" d="M16.8932 26.6531C16.8932 24.9598 18.2665 23.5731 19.9732 23.5731C21.6665 23.5731 23.0532 24.9464 23.0532 26.6531C23.0532 28.3598 21.6665 29.7331 19.9732 29.7331C18.2665 29.7331 16.8932 28.3598 16.8932 26.6531ZM16.0798 26.6531C16.0798 28.7998 17.8265 30.5464 19.9732 30.5464C22.1198 30.5464 23.8665 28.7998 23.8665 26.6531C23.8665 24.5064 22.1198 22.7598 19.9732 22.7598C17.8265 22.7731 16.0798 24.5064 16.0798 26.6531Z" fill="#92AE2A"/>
<path fill-rule="evenodd" clip-rule="evenodd" d="M18.1064 26.6534C18.1064 25.6268 18.933 24.8001 19.9597 24.8001C20.9864 24.8001 21.813 25.6268 21.813 26.6534C21.813 27.6801 20.9864 28.5068 19.9597 28.5068C18.9464 28.5201 18.1064 27.6801 18.1064 26.6534ZM17.2664 26.6534C17.2664 28.1468 18.4797 29.3601 19.973 29.3601C21.4664 29.3601 22.6797 28.1468 22.6797 26.6534C22.6797 25.1601 21.4664 23.9468 19.973 23.9468C18.4797 23.9468 17.2664 25.1601 17.2664 26.6534Z" fill="#92AE2A"/>
<path fill-rule="evenodd" clip-rule="evenodd" d="M19.333 26.6532C19.333 26.2932 19.613 26.0132 19.973 26.0132C20.333 26.0132 20.613 26.3065 20.613 26.6532C20.613 27.0132 20.333 27.2932 19.973 27.2932C19.613 27.3065 19.333 27.0132 19.333 26.6532ZM18.5063 26.6532C18.5063 27.4665 19.1597 28.1199 19.973 28.1199C20.7863 28.1199 21.4397 27.4665 21.4397 26.6532C21.4397 25.8399 20.7863 25.1865 19.973 25.1865C19.1597 25.1999 18.5063 25.8532 18.5063 26.6532Z" fill="#92AE2A"/>
<path d="M10.5732 14.6934H29.4266" stroke="#92AE2A" stroke-width="0.331135" stroke-miterlimit="22.9256"/>
<path fill-rule="evenodd" clip-rule="evenodd" d="M17.2665 9.88004V8.54671C17.2665 7.34671 16.7865 7.04004 15.7332 7.04004H13.8665C12.7065 7.04004 12.2932 7.38671 12.2932 8.54671V9.88004C12.2932 10.9067 12.7199 11.3334 13.8665 11.3334H15.7332C16.9199 11.3334 17.2665 10.9467 17.2665 9.88004ZM16.2532 9.77337C16.2532 10.3467 16.1065 10.4934 15.4532 10.4934H14.1065C13.4932 10.4934 13.3065 10.3467 13.3065 9.78671V8.65337C13.3065 8.04004 13.4799 7.89337 14.1199 7.89337H15.4265C16.0265 7.89337 16.2399 8.04004 16.2399 8.65337V9.77337H16.2532Z" fill="#B91222"/>
<path fill-rule="evenodd" clip-rule="evenodd" d="M22.5065 9.88004V8.54671C22.5065 7.34671 22.0265 7.04004 20.9732 7.04004H19.1065C17.9465 7.04004 17.5332 7.38671 17.5332 8.54671V9.88004C17.5332 10.9067 17.9599 11.3334 19.1065 11.3334H20.9732C22.1599 11.3334 22.5065 10.9467 22.5065 9.88004ZM21.4932 9.77337C21.4932 10.3467 21.3465 10.4934 20.6932 10.4934H19.3465C18.7332 10.4934 18.5465 10.3467 18.5465 9.78671V8.65337C18.5465 8.04004 18.7199 7.89337 19.3599 7.89337H20.6665C21.2665 7.89337 21.4799 8.04004 21.4799 8.65337V9.77337H21.4932Z" fill="#B91222"/>
<path fill-rule="evenodd" clip-rule="evenodd" d="M27.7465 9.88004V8.54671C27.7465 7.34671 27.2665 7.04004 26.2132 7.04004H24.3465C23.1865 7.04004 22.7732 7.38671 22.7732 8.54671V9.88004C22.7732 10.9067 23.1999 11.3334 24.3465 11.3334H26.2132C27.3999 11.3334 27.7465 10.9467 27.7465 9.88004ZM26.7332 9.77337C26.7332 10.3467 26.5865 10.4934 25.9332 10.4934H24.5865C23.9732 10.4934 23.7865 10.3467 23.7865 9.78671V8.65337C23.7865 8.04004 23.9599 7.89337 24.5999 7.89337H25.9065C26.5199 7.89337 26.7199 8.04004 26.7199 8.65337V9.77337H26.7332Z" fill="#B91222"/>
<path d="M16.5865 8.83984H12.9731V9.59984H16.5865V8.83984Z" fill="#B91222"/>
<path d="M27.0533 8.83984H23.4399V9.59984H27.0533V8.83984Z" fill="#B91222"/>
<path d="M20.4265 7.41357H19.6665V11.0269H20.4265V7.41357Z" fill="#B91222"/>
<path d="M29.4265 5.82666H10.5598V6.53333H29.4265V5.82666Z" fill="#92AE2A"/>
<path d="M29.4265 14.4932H10.5598V15.1998H29.4265V14.4932Z" fill="#92AE2A"/>
<path d="M29.4265 11.8267H10.5598V12.2H29.4265V11.8267Z" fill="#92AE2A"/>
<path fill-rule="evenodd" clip-rule="evenodd" d="M12.3465 13.3736V13.2669C12.3465 13.0536 12.2532 13.0003 12.0665 13.0003H11.8265V12.9336H11.6399V13.0003H11.3999C11.2132 13.0003 11.1199 13.0536 11.1199 13.2669V13.3736C11.1199 13.5603 11.1865 13.6403 11.3999 13.6403H11.6399V13.7069H11.8265V13.6403H12.0665C12.2799 13.6269 12.3465 13.5603 12.3465 13.3736ZM12.1599 13.3469C12.1599 13.4536 12.1332 13.4803 12.0132 13.4803H11.8265V13.1469H12.0132C12.1199 13.1469 12.1599 13.1736 12.1599 13.2803V13.3469ZM11.6399 13.4803H11.4532C11.3332 13.4803 11.3065 13.4536 11.3065 13.3469V13.2803C11.3065 13.1736 11.3465 13.1469 11.4532 13.1469H11.6399V13.4803Z" fill="white"/>
<path fill-rule="evenodd" clip-rule="evenodd" d="M13.24 12.9336H13.0266L12.7866 13.3736L12.52 12.9336H12.3066L12.6666 13.4803C12.68 13.4936 12.68 13.5069 12.68 13.5203C12.68 13.5469 12.6533 13.5736 12.5733 13.5736H12.5333V13.7203H12.6C12.7333 13.7203 12.7733 13.6936 12.88 13.5336L13.24 12.9336Z" fill="white"/>
<path fill-rule="evenodd" clip-rule="evenodd" d="M14.0933 13.0803V12.9336H13.2666V13.0803H13.5866V13.7069H13.7733V13.0803H14.0933Z" fill="white"/>
<path fill-rule="evenodd" clip-rule="evenodd" d="M14.9465 13.4669C14.9465 13.2669 14.8532 13.2269 14.6665 13.2269H14.3332V13.0803H14.8665V12.9336H14.1465V13.7069H14.6665C14.8532 13.7069 14.9465 13.6536 14.9465 13.4669ZM14.7598 13.4536C14.7598 13.5203 14.7465 13.5469 14.6532 13.5469H14.3332V13.3736H14.6532C14.7465 13.3736 14.7598 13.4003 14.7598 13.4536Z" fill="white"/>
<path fill-rule="evenodd" clip-rule="evenodd" d="M15.9065 13.4403V13.2003C15.9065 12.9869 15.8132 12.9336 15.6265 12.9336H15.2932C15.0799 12.9336 15.0132 13.0003 15.0132 13.2003V13.4403C15.0132 13.6269 15.0932 13.7069 15.2932 13.7069H15.6265C15.8399 13.7069 15.9065 13.6269 15.9065 13.4403ZM15.7199 13.4136C15.7199 13.5203 15.6932 13.5469 15.5732 13.5469H15.3332C15.2265 13.5469 15.1865 13.5203 15.1865 13.4136V13.2136C15.1865 13.1069 15.2132 13.0803 15.3332 13.0803H15.5732C15.6799 13.0803 15.7199 13.1069 15.7199 13.2136V13.4136Z" fill="white"/>
<path fill-rule="evenodd" clip-rule="evenodd" d="M16.84 13.7069V12.9336H16.04V13.4003C16.04 13.5069 16.0267 13.5469 15.9333 13.5469V13.7069H16.0133C16.1467 13.7069 16.2267 13.6269 16.2267 13.4269V13.0936H16.6533V13.7069H16.84Z" fill="white"/>
<path fill-rule="evenodd" clip-rule="evenodd" d="M17.7199 13.4669C17.7199 13.2669 17.6266 13.2269 17.4399 13.2269H17.1066V12.9336H16.9199V13.7069H17.4399C17.6266 13.7069 17.7199 13.6536 17.7199 13.4669ZM17.5333 13.4536C17.5333 13.5203 17.5199 13.5469 17.4266 13.5469H17.1066V13.3736H17.4266C17.5199 13.3736 17.5333 13.4003 17.5333 13.4536Z" fill="white"/>
<path fill-rule="evenodd" clip-rule="evenodd" d="M18.6132 13.7069V12.9336H18.4265V13.2269H17.9599V12.9336H17.7732V13.7069H17.9599V13.3869H18.4265V13.7069H18.6132Z" fill="white"/>
<path fill-rule="evenodd" clip-rule="evenodd" d="M19.8534 12.9336H19.6667V13.7069H19.8534V12.9336ZM19.4934 13.4669C19.4934 13.2669 19.4 13.2269 19.2134 13.2269H18.88V12.9336H18.6934V13.7069H19.2134C19.4 13.7069 19.4934 13.6536 19.4934 13.4669ZM19.3067 13.4536C19.3067 13.5203 19.2934 13.5469 19.2 13.5469H18.88V13.3736H19.2C19.2934 13.3736 19.3067 13.4003 19.3067 13.4536Z" fill="white"/>
<path fill-rule="evenodd" clip-rule="evenodd" d="M20.9332 13.7065V12.9332H20.6265L20.1599 13.5465H20.1332V12.9332H19.9465V13.7065H20.2665L20.7332 13.0932H20.7599V13.7065H20.9332ZM20.6665 12.7065H20.5199C20.5199 12.7732 20.4932 12.7865 20.3999 12.7865C20.3065 12.7865 20.2799 12.7865 20.2799 12.7065H20.1332V12.7199C20.1332 12.8399 20.1732 12.8799 20.3999 12.8799C20.6532 12.8799 20.6665 12.8132 20.6665 12.7065Z" fill="white"/>
<path fill-rule="evenodd" clip-rule="evenodd" d="M22.2401 13.7069L21.7734 13.2936L22.2267 12.9336H21.9467L21.6134 13.2136H21.5067V12.9336H21.3201V13.7069H21.5067V13.3736H21.6134L21.9734 13.7069H22.2401Z" fill="white"/>
<path fill-rule="evenodd" clip-rule="evenodd" d="M23.1464 13.7069V12.9336H22.3464V13.4003C22.3464 13.5069 22.3331 13.5469 22.2397 13.5469V13.7069H22.3197C22.4531 13.7069 22.5331 13.6269 22.5331 13.4269V13.0936H22.9597V13.7069H23.1464Z" fill="white"/>
<path fill-rule="evenodd" clip-rule="evenodd" d="M24.0931 12.9336H23.8798L23.6398 13.3736L23.3864 12.9336H23.1731L23.5331 13.4803C23.5464 13.4936 23.5464 13.5069 23.5464 13.5203C23.5464 13.5469 23.5198 13.5736 23.4398 13.5736H23.3998V13.7203H23.4664C23.5998 13.7203 23.6398 13.6936 23.7464 13.5336L24.0931 12.9336Z" fill="white"/>
<path fill-rule="evenodd" clip-rule="evenodd" d="M24.9333 13.4669C24.9333 13.2669 24.84 13.2269 24.6533 13.2269H24.32V13.0803H24.8533V12.9336H24.1333V13.7069H24.6533C24.84 13.7069 24.9333 13.6536 24.9333 13.4669ZM24.7466 13.4536C24.7466 13.5203 24.7333 13.5469 24.64 13.5469H24.32V13.3736H24.64C24.7466 13.3736 24.7466 13.4003 24.7466 13.4536Z" fill="white"/>
<path fill-rule="evenodd" clip-rule="evenodd" d="M26.5867 12.9336H26.3733L26.1333 13.3736L25.8667 12.9336H25.6533L26.0133 13.4803C26.0267 13.4936 26.0267 13.5069 26.0267 13.5203C26.0267 13.5469 26 13.5736 25.92 13.5736H25.88V13.7203H25.9467C26.08 13.7203 26.12 13.7069 26.2267 13.5336L26.5867 12.9336Z" fill="white"/>
<path fill-rule="evenodd" clip-rule="evenodd" d="M27.7198 13.3603V13.2536C27.7198 13.0403 27.6265 12.9869 27.4398 12.9869H27.1998V12.9336H27.0132V13.0003H26.7732C26.5865 13.0003 26.4932 13.0536 26.4932 13.2803V13.3869C26.4932 13.5736 26.5598 13.6536 26.7732 13.6536H27.0132V13.7203H27.1998V13.6536H27.4398C27.6532 13.6269 27.7198 13.5603 27.7198 13.3603ZM27.5332 13.3469C27.5332 13.4536 27.5065 13.4803 27.3865 13.4803H27.1998V13.1469H27.3865C27.4932 13.1469 27.5332 13.1736 27.5332 13.2803V13.3469ZM27.0132 13.4803H26.8265C26.7065 13.4803 26.6798 13.4536 26.6798 13.3469V13.2803C26.6798 13.1736 26.7198 13.1469 26.8265 13.1469H27.0132V13.4803Z" fill="white"/>
<path fill-rule="evenodd" clip-rule="evenodd" d="M28.7199 13.6933L28.3199 12.9199H28.0532L27.6399 13.6933H27.8532L27.9466 13.4933H28.3999L28.4932 13.6933H28.7199ZM28.3199 13.3599H28.0132L28.1599 13.0799H28.1732L28.3199 13.3599Z" fill="white"/>
<path d="M25.36 12.8535H25.24V13.7735H25.36V12.8535Z" fill="#92AE2A"/>
<path d="M28.9999 12.8398H28.8799V13.7598H28.9999V12.8398Z" fill="#92AE2A"/>
</svg>
