<svg width="22" height="22" viewBox="0 0 22 22" fill="none" xmlns="http://www.w3.org/2000/svg">
<path d="M4.62 8.59462C5.11133 8.59462 5.522 8.78529 5.522 9.36462C5.522 10.0613 4.92067 10.78 4.026 11.3226C4.23133 11.5573 4.37067 11.8213 4.444 12.1146C4.65667 12.0046 4.884 11.8946 5.11867 11.7773C5.37533 10.516 6.27733 9.54796 7.07667 9.54796C7.48 9.54796 7.66333 9.78995 7.66333 10.1126C7.66333 10.868 6.96667 11.4546 5.99133 11.968C5.962 12.144 5.962 12.2393 5.962 12.3493C5.962 12.694 6.03533 12.8553 6.16733 12.8553C6.25533 12.8553 6.358 12.7746 6.47533 12.6426L7.79533 11.0806L8.228 9.58462H8.998L8.60933 10.912L9.21067 10.758L9.55533 9.58462H10.274L9.68733 11.5866L10.648 10.3106L10.8607 9.59196H11.55L11.1393 11.0073C11.1247 11.0586 11.0367 11.3593 11.1027 11.3593C11.1833 11.3593 11.3593 11.0293 11.5647 10.6626C11.7847 10.2593 11.9827 9.82662 12.0707 9.59196H12.7747L12.43 10.7946L13.3247 9.59196H19.5067L4.61267 15.95L4.906 14.9453L16.6173 10.1566H14.3367L14.1093 10.9046L13.376 11.1393L13.6693 10.164H13.31L12.298 11.4766L11.66 11.6893C11.6967 11.374 11.748 11.0513 11.8213 10.7433L11.528 11.2933C11.2933 11.726 11.0953 12.0633 10.7433 12.0633C10.4867 12.0633 10.3693 11.8213 10.3693 11.506C10.3693 11.396 10.384 11.2713 10.4133 11.154L9.46 12.4226L8.668 12.6793L9.064 11.3006L8.46267 11.4546L8.052 12.8993L7.194 13.1853L7.58267 11.858L6.71733 12.9653C6.35067 13.4346 5.96933 13.6913 5.66867 13.6913C5.082 13.6913 5.00867 12.7306 5.06 12.342C4.74467 12.4886 4.63467 12.54 4.52467 12.5986C4.664 14.6593 2.56667 17.4973 1.23933 17.4973C0.828667 17.4973 0.506 17.182 0.506 16.456C0.506 15.3926 1.30533 13.838 3.454 12.6206C3.39533 12.2026 3.24867 11.8506 2.992 11.6233V11.5793C3.718 11.022 4.268 10.3913 4.268 9.82662C4.268 9.56996 4.07 9.46729 3.85733 9.46729C3.454 9.46729 2.91867 9.96596 2.63267 10.384H2.486L2.72067 9.57729C3.26333 8.85129 4.136 8.59462 4.62 8.59462ZM6.08667 11.4106C6.62933 11.0586 6.85667 10.6113 6.85667 10.2593C6.85667 10.142 6.81267 10.0613 6.73933 10.0613C6.54133 10.0613 6.248 10.6846 6.08667 11.4106ZM3.46867 13.1486C2.17067 14.0286 1.51067 15.312 1.51067 16.214C1.51067 16.3753 1.562 16.6466 1.75267 16.6466C2.49333 16.6466 3.42467 14.6813 3.46867 13.1486ZM4.62 8.08862C4.092 8.08862 3.014 8.33796 2.31 9.27662L2.25133 9.34996L2.222 9.43796L1.98733 10.2446L1.79667 10.89H2.47133H2.618H2.882L3.036 10.67C3.256 10.3473 3.53467 10.12 3.71067 10.0173C3.59333 10.3326 3.21933 10.7433 2.66933 11.1686L2.47133 11.3226V11.572V11.616V11.8506L2.64733 12.0046C2.75 12.0926 2.82333 12.232 2.86733 12.3713C1.96533 12.9286 1.254 13.5813 0.748 14.3073C0.271333 15.0113 0 15.774 0 16.456C0 17.6 0.667333 18.0033 1.23933 18.0033C1.66467 18.0033 2.36133 17.8053 3.22667 16.8813C3.586 16.4926 3.92333 16.038 4.202 15.554L4.12867 15.8106L3.828 16.8373L4.81067 16.4193L19.7193 10.0466L22 9.07129H19.5213H13.464H12.7893H12.2393H11.5647H10.9633H10.2887H9.68H9.00533H8.23533H7.854L7.79533 9.26196C7.612 9.11529 7.37 9.03462 7.084 9.03462C6.72467 9.03462 6.358 9.16662 6.028 9.39396C6.028 9.37929 6.028 9.37196 6.028 9.35729C6.028 8.57996 5.48533 8.08862 4.62 8.08862Z" fill="#F8F8F8"/>
<path d="M18.2596 14.6446V14.2926V13.9479V13.4419H17.7536H16.8296H16.375L16.3676 13.5006C16.221 13.4419 16.0523 13.4053 15.8763 13.4053C15.6123 13.4053 15.3776 13.4786 15.1943 13.6106C15.0036 13.4786 14.769 13.4053 14.4976 13.4053C14.3876 13.4053 14.285 13.4199 14.1896 13.4419H13.6836H13.097H12.789L12.6496 13.7133L12.4516 14.0946L12.0703 14.8353H12.7596V15.6199V16.1259H13.1776H13.2656H13.691H14.109H14.1383H14.197H14.6076H14.879H15.1943H16.4923H16.8223C16.9323 16.1553 17.0496 16.1699 17.167 16.1699C17.8636 16.1699 18.3623 15.7079 18.3623 15.0626C18.355 14.9159 18.3183 14.7766 18.2596 14.6446Z" fill="#F8F8F8"/>
<path d="M8.23519 9.57716H9.00519L8.61653 10.9045L9.21786 10.7505L9.56253 9.57716H10.2812L9.69453 11.5792L10.6552 10.3032L10.8679 9.58449H11.5572L11.1465 10.9998C11.1319 11.0512 11.0439 11.3518 11.1099 11.3518C11.1905 11.3518 11.3665 11.0218 11.5719 10.6552C11.7919 10.2518 11.9899 9.81916 12.0779 9.58449H12.7819L12.4372 10.7872L13.3319 9.58449H19.5139L4.61253 15.9498L4.90586 14.9452L16.6172 10.1565H14.3365L14.1092 10.9045L13.3759 11.1392L13.6692 10.1638H13.3099L12.2979 11.4765L11.6599 11.6892C11.6965 11.3738 11.7479 11.0512 11.8212 10.7432L11.5279 11.2932C11.2932 11.7258 11.0952 12.0632 10.7432 12.0632C10.4865 12.0632 10.3692 11.8212 10.3692 11.5058C10.3692 11.3958 10.3839 11.2712 10.4132 11.1538L9.45986 12.4225L8.66786 12.6792L9.06386 11.3005L8.46253 11.4545L8.05186 12.8992L7.19386 13.1852L7.58253 11.8578L6.71719 12.9652C6.35053 13.4345 5.96919 13.6912 5.66853 13.6912C5.08186 13.6912 5.00853 12.7305 5.05986 12.3418C4.74453 12.4885 4.63453 12.5398 4.52453 12.5985C4.66386 14.6592 2.56653 17.4972 1.23919 17.4972C0.828526 17.4972 0.505859 17.1818 0.505859 16.4558C0.505859 15.3925 1.30519 13.8378 3.45386 12.6205C3.39519 12.2025 3.24853 11.8505 2.99186 11.6232V11.5792C3.71786 11.0218 4.26786 10.3912 4.26786 9.82649C4.26786 9.56983 4.06986 9.46716 3.85719 9.46716C3.45386 9.46716 2.91853 9.96583 2.63253 10.3838H2.48586L2.72053 9.57716C3.27053 8.85116 4.14319 8.58716 4.62719 8.58716C5.11853 8.58716 5.52919 8.77782 5.52919 9.35716C5.52919 10.0538 4.92786 10.7725 4.03319 11.3152C4.23853 11.5498 4.37786 11.8138 4.45119 12.1072C4.66386 11.9972 4.89119 11.8872 5.12586 11.7698C5.38253 10.5085 6.28453 9.54049 7.08386 9.54049C7.48719 9.54049 7.67053 9.78249 7.67053 10.1052C7.67053 10.8605 6.97386 11.4472 5.99853 11.9605C5.96919 12.1365 5.96919 12.2318 5.96919 12.3418C5.96919 12.6865 6.04253 12.8478 6.17453 12.8478C6.26253 12.8478 6.36519 12.7672 6.48253 12.6352L7.80253 11.0732L8.23519 9.57716ZM1.51053 16.2138C1.51053 16.3752 1.56186 16.6465 1.75253 16.6465C2.49319 16.6465 3.42453 14.6812 3.46853 13.1558C2.17053 14.0358 1.51053 15.3118 1.51053 16.2138ZM6.85653 10.2592C6.85653 10.1418 6.81253 10.0612 6.73919 10.0612C6.54119 10.0612 6.24786 10.6845 6.08653 11.4105C6.62919 11.0585 6.85653 10.6112 6.85653 10.2592Z" fill="#00AFEF"/>
<path d="M17.1085 14.5418L17.1378 14.2851H17.7538V13.9404H16.8298L16.7272 14.8864C16.8372 14.8424 16.9618 14.8351 17.0498 14.8351C17.2845 14.8351 17.4238 14.9451 17.4238 15.0844C17.4238 15.1944 17.3212 15.3044 17.1305 15.3044C16.9838 15.3044 16.8298 15.2458 16.6978 15.1431L16.6465 15.5171C16.7712 15.5978 16.9545 15.6711 17.1525 15.6711C17.5925 15.6711 17.8418 15.4071 17.8418 15.0698C17.8492 14.6738 17.4678 14.4684 17.1085 14.5418Z" fill="#00AFEF"/>
<path d="M16.5002 14.4465C16.5002 14.1605 16.2728 13.9038 15.8768 13.9038C15.4955 13.9038 15.2462 14.1385 15.2462 14.5271V14.5345H15.6568V14.5198C15.6568 14.3438 15.7448 14.2485 15.8842 14.2485C16.0088 14.2485 16.0822 14.3291 16.0822 14.4538C16.0822 14.5345 16.0382 14.6151 15.9502 14.7251L15.1875 15.6271H16.4855V15.2678H15.9648L16.2728 14.9305C16.4195 14.7618 16.5002 14.6298 16.5002 14.4465Z" fill="#00AFEF"/>
<path d="M12.8916 14.3291H13.2583V15.6271H13.6763V13.9478H13.0896L12.8916 14.3291Z" fill="#00AFEF"/>
<path d="M14.4906 13.9111C14.0872 13.9111 13.8379 14.1825 13.8379 14.5345C13.8379 14.8498 14.0799 15.0698 14.3586 15.0698C14.4246 15.0698 14.4539 15.0698 14.5126 15.0551L14.1239 15.6345H14.5932L14.8279 15.2751C15.0112 14.9965 15.1286 14.7765 15.1286 14.5271C15.1359 14.1605 14.9012 13.9111 14.4906 13.9111ZM14.4906 14.7691C14.3439 14.7691 14.2339 14.6665 14.2339 14.5051C14.2339 14.3658 14.3366 14.2411 14.4906 14.2411C14.6519 14.2411 14.7546 14.3585 14.7546 14.5051C14.7472 14.6665 14.6446 14.7691 14.4906 14.7691Z" fill="#00AFEF"/>
<path d="M11.0004 3.99658L11.5431 5.66125H13.2957L11.8731 6.69525L12.4157 8.35991L11.0004 7.33325L9.58508 8.35991L10.1204 6.69525L8.70508 5.66125H10.4577L11.0004 3.99658Z" fill="#D2A85A"/>
</svg>
