<svg width="18" height="18" viewBox="0 0 18 18" fill="none" xmlns="http://www.w3.org/2000/svg">
<path fill-rule="evenodd" clip-rule="evenodd" d="M4.62914 15.5414C3.18448 15.3434 0.617809 14.9107 0.229143 13.2167C-0.0715239 11.9114 1.04314 10.1881 1.69581 9.10273C2.03314 8.54539 2.83981 7.34273 2.86914 6.70473C2.89114 6.25006 2.78114 5.76606 2.67114 5.32606L1.50514 0.610725C2.96448 1.30739 3.74181 1.71073 5.43581 1.75473C6.97581 1.79139 7.84114 1.21939 8.99981 0.310059C10.1658 1.21939 11.0238 1.79139 12.5638 1.75473C14.2578 1.71073 15.0351 1.30739 16.4945 0.610725L15.3285 5.33339C15.2185 5.77339 15.1158 6.25739 15.1305 6.71206C15.1598 7.34273 15.9665 8.54539 16.3038 9.11006C16.9565 10.1881 18.0711 11.9187 17.7705 13.2241C17.3818 14.9181 14.8151 15.3507 13.3705 15.5487C11.6031 15.7907 10.0705 16.1794 8.99981 17.6974C7.92914 16.1721 6.39648 15.7834 4.62914 15.5414Z" fill="#FFF100"/>
<path fill-rule="evenodd" clip-rule="evenodd" d="M4.66581 15.2775C3.35315 15.0941 0.845146 14.6908 0.485812 13.1508C0.207146 11.9481 1.30715 10.2468 1.91581 9.23479C2.28248 8.61879 3.08915 7.42346 3.12581 6.71946C3.14781 6.24279 3.03781 5.72946 2.92048 5.26746L1.89381 1.08746C3.22115 1.71813 3.88115 1.98213 5.42848 2.01879C6.93181 2.05546 7.85581 1.53479 8.99981 0.647461C10.1365 1.53479 11.0531 2.05546 12.5711 2.01879C14.1185 1.98213 14.7785 1.71813 16.1058 1.08746L15.0791 5.26746C14.9691 5.72946 14.8518 6.24279 14.8738 6.71946C14.9031 7.42346 15.7098 8.62613 16.0838 9.23479C16.6925 10.2468 17.7925 11.9555 17.5138 13.1508C17.1545 14.6908 14.6465 15.0941 13.3338 15.2775C11.8671 15.4828 9.90181 15.9521 8.99981 17.2281C8.09781 15.9595 6.12515 15.4828 4.66581 15.2775Z" fill="#034EA1"/>
<path fill-rule="evenodd" clip-rule="evenodd" d="M8.99939 16.7806C8.64006 16.2746 7.03406 15.3433 4.70206 15.0206C3.35273 14.8373 1.05006 14.434 0.742059 13.0993C0.507392 12.102 1.35073 10.7013 2.14273 9.37395C2.54606 8.70662 3.35273 7.50395 3.38939 6.73395C3.41139 6.21329 3.28672 5.63395 3.17672 5.20862L2.28206 1.56395C3.00806 1.90862 3.74872 2.23862 5.42072 2.28262C7.32006 2.32662 8.45672 1.40262 8.99939 0.984619C9.54206 1.40995 10.6787 2.33395 12.5781 2.28262C14.2501 2.23862 14.9981 1.90862 15.7167 1.56395L14.8221 5.20862C14.7121 5.64129 14.5874 6.21329 14.6094 6.73395C14.6461 7.51129 15.4527 8.70662 15.8561 9.37395C16.6554 10.7013 17.4914 12.0946 17.2567 13.0993C16.9487 14.434 14.6461 14.8373 13.2967 15.0206C10.9647 15.3433 9.35872 16.2746 8.99939 16.7806Z" fill="#FFF100"/>
<path fill-rule="evenodd" clip-rule="evenodd" d="M10.818 2.82544C11.7567 2.82544 12.512 3.58811 12.512 4.51944C12.512 5.45811 11.7567 6.21344 10.818 6.21344C9.87936 6.21344 9.12402 5.45811 9.12402 4.51944C9.12402 3.58811 9.87936 2.82544 10.818 2.82544Z" fill="white"/>
<path fill-rule="evenodd" clip-rule="evenodd" d="M11.1701 2.88395C11.5808 2.97195 11.9328 3.20662 12.1748 3.53662C12.1014 3.51462 12.0281 3.49995 11.9621 3.47795C11.9988 3.71995 11.9548 3.93995 11.9181 4.14529C12.0794 4.24795 12.2188 4.40195 12.3288 4.60729C12.3801 4.54129 12.4388 4.44595 12.4901 4.35062C12.4974 4.40929 12.4974 4.46062 12.4974 4.51929C12.4974 4.88595 12.3801 5.22329 12.1821 5.50195C12.1821 5.42862 12.1748 5.34795 12.1674 5.28929C11.9474 5.39929 11.7274 5.42862 11.5221 5.45062C11.4708 5.64129 11.3681 5.81729 11.2068 5.97862C11.2874 6.00795 11.3901 6.03729 11.4928 6.05195C11.2874 6.13995 11.0601 6.19129 10.8254 6.19129C10.6494 6.19129 10.4734 6.16195 10.3194 6.11062C10.3854 6.08862 10.4588 6.05929 10.5101 6.03729C10.3414 5.86129 10.2461 5.66329 10.1581 5.47262C9.96012 5.48729 9.76212 5.44329 9.55678 5.33329C9.55678 5.41395 9.55678 5.52395 9.57145 5.62662C9.31478 5.33329 9.15345 4.95195 9.15345 4.52662C9.19745 4.58529 9.24878 4.64395 9.28545 4.68795C9.39545 4.47529 9.55678 4.32129 9.71812 4.17462C9.64478 3.99129 9.62278 3.78595 9.65945 3.55862C9.57878 3.58062 9.47611 3.61729 9.38078 3.66862C9.58611 3.31662 9.90878 3.05262 10.3048 2.92062C10.2608 2.97929 10.2241 3.05262 10.1874 3.10395C10.4294 3.14062 10.6201 3.25062 10.8108 3.35329C10.9648 3.22862 11.1481 3.14795 11.3754 3.11129C11.3168 3.04529 11.2434 2.96462 11.1701 2.88395ZM10.8181 2.75195C11.7934 2.75195 12.5854 3.54395 12.5854 4.51929C12.5854 5.49462 11.7934 6.28662 10.8181 6.28662C9.84278 6.28662 9.05078 5.49462 9.05078 4.51929C9.05078 3.54395 9.84278 2.75195 10.8181 2.75195Z" fill="#034EA1"/>
<path fill-rule="evenodd" clip-rule="evenodd" d="M10.8255 3.8667C11.0455 3.99137 11.2655 4.1527 11.4635 4.34337C11.4341 4.60003 11.3461 4.8567 11.2435 5.09137C10.9575 5.1207 10.6861 5.1207 10.4221 5.09137C10.3195 4.87137 10.2461 4.60003 10.2021 4.34337C10.3781 4.16003 10.5981 3.99137 10.8255 3.8667Z" fill="#034EA1"/>
<path fill-rule="evenodd" clip-rule="evenodd" d="M9.28587 3.22876C7.98787 4.91543 9.41054 7.58476 10.9359 8.23009L9.45454 9.80676C7.87054 8.09809 7.67987 4.87143 9.28587 3.22876ZM8.86787 3.33876C7.4452 5.06943 7.81921 8.35476 9.31521 9.95343L7.94387 11.4128C5.99321 9.00009 6.63854 5.34076 8.86787 3.33876ZM7.80454 11.5594L6.41854 13.0334C3.68321 9.27143 5.77321 4.96676 8.34721 3.61009C6.24254 5.62676 5.9492 9.28609 7.80454 11.5594Z" fill="#034EA1"/>
<path d="M5.05469 13.9206C5.05469 13.7886 5.09135 13.6859 5.17935 13.6053C5.26002 13.5319 5.37002 13.4879 5.49469 13.4879H5.51669V13.3853H5.78802V13.4879H5.81002C5.94202 13.4879 6.04469 13.5246 6.12535 13.6053C6.20602 13.6859 6.25002 13.7886 6.25002 13.9206C6.25002 14.0526 6.20602 14.1626 6.12535 14.2359C6.04469 14.3093 5.93469 14.3533 5.81002 14.3533H5.78802V14.4779H5.51669V14.3533H5.49469C5.37002 14.3533 5.26002 14.3166 5.17935 14.2433C5.09135 14.1626 5.05469 14.0526 5.05469 13.9206ZM5.78802 13.6859V14.1626C5.84669 14.1626 5.88335 14.1479 5.91269 14.1186C5.94935 14.0819 5.96402 14.0159 5.96402 13.9206C5.96402 13.8253 5.94935 13.7593 5.91269 13.7226C5.88335 13.7006 5.83935 13.6859 5.78802 13.6859ZM5.50935 14.1626V13.6859C5.45069 13.6859 5.41402 13.7006 5.38469 13.7226C5.34802 13.7593 5.33335 13.8253 5.33335 13.9206C5.33335 14.0159 5.34802 14.0819 5.38469 14.1186C5.41402 14.1479 5.45802 14.1626 5.50935 14.1626ZM6.65335 13.3926V13.8619L6.92469 13.3926H7.19602L6.95402 13.7519L7.18869 14.4779H6.91735L6.77069 14.0086L6.65335 14.1773V14.4779H6.38202V13.3926H6.65335ZM8.02469 13.5833V13.8473H8.07602C8.12002 13.8473 8.16402 13.8399 8.19335 13.8179C8.23002 13.7959 8.25202 13.7593 8.25202 13.7153C8.25202 13.6713 8.23735 13.6346 8.20069 13.6126C8.17135 13.5906 8.13469 13.5833 8.08335 13.5833H8.02469ZM7.74602 14.4779V13.3926H8.15669C8.26669 13.3926 8.35469 13.4146 8.42069 13.4659C8.49402 13.5173 8.53069 13.5979 8.53069 13.7006C8.53069 13.8179 8.49402 13.9059 8.41335 13.9646C8.34735 14.0159 8.25202 14.0453 8.13469 14.0453C8.09802 14.0453 8.06135 14.0453 8.03202 14.0379V14.4779H7.74602ZM8.59669 13.9353C8.59669 13.7739 8.62602 13.6493 8.68469 13.5466C8.75802 13.4293 8.86802 13.3706 9.01469 13.3706C9.16135 13.3706 9.27135 13.4293 9.34469 13.5466C9.40335 13.6419 9.43269 13.7739 9.43269 13.9353C9.43269 14.0966 9.40335 14.2213 9.34469 14.3166C9.27135 14.4339 9.16135 14.4926 9.01469 14.4926C8.86802 14.4926 8.75802 14.4339 8.68469 14.3166C8.62602 14.2213 8.59669 14.0966 8.59669 13.9353ZM8.89002 13.9353C8.89002 14.0599 8.89735 14.1479 8.91202 14.1919C8.93402 14.2579 8.96335 14.2946 9.02202 14.2946C9.07335 14.2946 9.11002 14.2579 9.12469 14.1919C9.13935 14.1406 9.14669 14.0526 9.14669 13.9279C9.14669 13.8033 9.13935 13.7153 9.12469 13.6639C9.11002 13.5979 9.07335 13.5613 9.02202 13.5613C8.97069 13.5613 8.93402 13.5979 8.91935 13.6639C8.90469 13.7226 8.89002 13.8106 8.89002 13.9353ZM10.078 14.0819L10.3127 14.1039C10.3127 14.2213 10.276 14.3166 10.21 14.3899C10.144 14.4633 10.0487 14.4999 9.93135 14.4999C9.77735 14.4999 9.66735 14.4413 9.59402 14.3239C9.53535 14.2286 9.50602 14.0966 9.50602 13.9353C9.50602 13.7813 9.53535 13.6493 9.59402 13.5539C9.66735 13.4293 9.77735 13.3706 9.93135 13.3706C10.056 13.3706 10.1514 13.4073 10.2174 13.4879C10.276 13.5613 10.3054 13.6566 10.3054 13.7739H10.0487C10.0487 13.7226 10.0414 13.6786 10.0267 13.6493C10.0047 13.5979 9.97535 13.5759 9.93135 13.5759C9.88002 13.5759 9.84335 13.6126 9.82135 13.6859C9.80669 13.7373 9.79935 13.8253 9.79935 13.9426C9.79935 14.0673 9.80669 14.1553 9.82135 14.2066C9.84335 14.2726 9.88002 14.3019 9.93869 14.3019C9.99002 14.3019 10.0194 14.2873 10.0414 14.2433C10.0707 14.2066 10.078 14.1479 10.078 14.0819ZM10.3934 13.5979V13.3853H11.156V13.5979H10.914V14.4706H10.6427V13.5979H10.3934ZM11.222 13.9353C11.222 13.7739 11.2514 13.6493 11.31 13.5466C11.3834 13.4293 11.4934 13.3706 11.64 13.3706C11.7867 13.3706 11.8967 13.4293 11.97 13.5466C12.0287 13.6419 12.058 13.7739 12.058 13.9353C12.058 14.0966 12.0287 14.2213 11.97 14.3166C11.8967 14.4339 11.7867 14.4926 11.64 14.4926C11.4934 14.4926 11.3834 14.4339 11.31 14.3166C11.2514 14.2213 11.222 14.0966 11.222 13.9353ZM11.5154 13.9353C11.5154 14.0599 11.5227 14.1479 11.5374 14.1919C11.552 14.2579 11.5887 14.2946 11.6474 14.2946C11.6987 14.2946 11.7354 14.2579 11.7574 14.1919C11.772 14.1406 11.7794 14.0526 11.7794 13.9279C11.7794 13.8033 11.772 13.7153 11.7574 13.6639C11.7427 13.5979 11.706 13.5613 11.6474 13.5613C11.596 13.5613 11.5594 13.5979 11.5447 13.6639C11.5227 13.7226 11.5154 13.8106 11.5154 13.9353ZM12.19 14.4779V13.3926H12.6447C12.74 13.3926 12.8207 13.4146 12.8794 13.4659C12.938 13.5173 12.9674 13.5759 12.9674 13.6493C12.9674 13.7153 12.9454 13.7666 12.9087 13.8179C12.872 13.8619 12.8207 13.8913 12.762 13.9059C12.8354 13.9279 12.8867 13.9573 12.9307 14.0013C12.9674 14.0453 12.9894 14.1039 12.9894 14.1773C12.9894 14.2653 12.96 14.3386 12.894 14.3973C12.828 14.4486 12.7474 14.4779 12.6374 14.4779H12.19ZM12.4687 14.0013V14.2726H12.5714C12.608 14.2726 12.6374 14.2653 12.6594 14.2433C12.6887 14.2213 12.7107 14.1846 12.7107 14.1333C12.7107 14.0893 12.696 14.0599 12.674 14.0379C12.652 14.0159 12.6154 14.0013 12.5714 14.0013H12.4687ZM12.4687 13.5833V13.8179H12.5567C12.6007 13.8179 12.6374 13.8033 12.6594 13.7886C12.6814 13.7666 12.696 13.7373 12.696 13.7006C12.696 13.6566 12.6814 13.6199 12.652 13.6053C12.63 13.5906 12.6007 13.5833 12.564 13.5833H12.4687Z" fill="#034EA1"/>
<path d="M8.33286 14.9768V15.5562H8.43552V15.6735H8.06152V15.5562H8.16419V15.1455L8.06152 15.1748V15.0575C8.08352 15.0575 8.11286 15.0428 8.14952 15.0282C8.19352 15.0062 8.22286 14.9915 8.23019 14.9768H8.33286ZM8.52352 15.4975L8.67019 15.4755C8.67019 15.4975 8.67752 15.5195 8.68486 15.5342C8.69219 15.5562 8.71419 15.5635 8.73619 15.5635C8.76552 15.5635 8.78019 15.5488 8.79486 15.5122C8.80952 15.4828 8.81686 15.4315 8.81686 15.3728C8.79486 15.3875 8.77286 15.3948 8.75086 15.4022C8.72886 15.4095 8.70686 15.4168 8.68486 15.4168C8.63352 15.4168 8.58952 15.4022 8.56019 15.3655C8.52352 15.3288 8.50886 15.2848 8.50886 15.2335C8.50886 15.1528 8.53086 15.0942 8.57486 15.0428C8.61886 14.9988 8.67752 14.9695 8.75819 14.9695C8.84619 14.9695 8.91219 15.0062 8.95619 15.0868C8.99286 15.1528 9.00752 15.2262 9.00752 15.3215C9.00752 15.4168 8.98552 15.4975 8.94886 15.5635C8.90486 15.6442 8.83152 15.6882 8.74352 15.6882C8.61886 15.6808 8.54552 15.6222 8.52352 15.4975ZM8.81686 15.2702C8.81686 15.2115 8.81686 15.1675 8.80952 15.1455C8.80219 15.1015 8.78019 15.0868 8.75086 15.0868C8.72886 15.0868 8.70686 15.1015 8.69219 15.1235C8.68486 15.1455 8.67752 15.1675 8.67752 15.1968C8.67752 15.2262 8.68486 15.2555 8.69219 15.2702C8.69952 15.2848 8.72152 15.2995 8.74352 15.2995C8.75819 15.2995 8.76552 15.2995 8.78019 15.2922C8.79486 15.2848 8.80952 15.2775 8.81686 15.2702ZM9.17619 15.3802V15.2628H9.21286C9.24952 15.2628 9.27152 15.2555 9.29352 15.2408C9.31552 15.2262 9.32286 15.2042 9.32286 15.1675C9.32286 15.1455 9.31552 15.1235 9.30819 15.1088C9.29352 15.0942 9.27886 15.0868 9.25686 15.0868C9.23486 15.0868 9.21286 15.0942 9.19819 15.1088C9.18352 15.1235 9.17619 15.1455 9.16886 15.1675L9.03686 15.1088C9.05886 15.0575 9.08819 15.0208 9.13219 14.9988C9.17619 14.9695 9.22019 14.9622 9.27152 14.9622C9.33019 14.9622 9.38886 14.9768 9.42552 15.0135C9.46952 15.0502 9.49152 15.1015 9.49152 15.1602C9.49152 15.1968 9.47686 15.2335 9.44752 15.2628C9.41819 15.2848 9.38886 15.2995 9.34486 15.3142C9.39619 15.3215 9.44019 15.3362 9.46219 15.3582C9.49886 15.3875 9.51352 15.4242 9.51352 15.4755C9.51352 15.5415 9.48419 15.5928 9.42552 15.6295C9.37419 15.6662 9.31552 15.6808 9.24952 15.6808C9.19819 15.6808 9.14686 15.6662 9.11019 15.6442C9.07352 15.6222 9.04419 15.5855 9.01486 15.5342L9.13952 15.4682C9.15419 15.5048 9.16886 15.5268 9.18352 15.5342C9.19819 15.5415 9.21286 15.5488 9.23486 15.5488C9.29352 15.5488 9.32286 15.5195 9.32286 15.4682C9.32286 15.4315 9.30819 15.4022 9.28619 15.3875C9.27152 15.3802 9.24219 15.3728 9.20552 15.3728H9.17619V15.3802ZM9.55752 15.3215C9.55752 15.2188 9.57219 15.1382 9.60152 15.0722C9.63819 14.9988 9.70419 14.9622 9.79952 14.9622C9.88752 14.9622 9.95352 14.9988 9.99752 15.0722C10.0269 15.1308 10.0489 15.2115 10.0489 15.3215C10.0489 15.4242 10.0342 15.5122 9.99019 15.5708C9.94619 15.6442 9.88752 15.6735 9.79952 15.6735C9.70419 15.6735 9.63819 15.6368 9.60152 15.5708C9.57219 15.5195 9.55752 15.4315 9.55752 15.3215ZM9.79952 15.0795C9.77752 15.0795 9.76286 15.0868 9.75552 15.1088C9.74819 15.1308 9.74086 15.1602 9.74086 15.2115V15.4242C9.74086 15.4755 9.74819 15.5122 9.75552 15.5342C9.76286 15.5562 9.77752 15.5635 9.80686 15.5635C9.82886 15.5635 9.84352 15.5562 9.85086 15.5342C9.85819 15.5122 9.86552 15.4828 9.86552 15.4315V15.2188C9.86552 15.1675 9.85819 15.1308 9.85086 15.1088C9.84352 15.0942 9.82152 15.0795 9.79952 15.0795Z" fill="#034EA1"/>
<path fill-rule="evenodd" clip-rule="evenodd" d="M4.59974 2.5321C3.93974 2.42944 3.33108 2.28277 2.71508 2.04077L3.55841 5.42144C3.69774 5.97877 3.71974 6.36011 3.71974 6.65344C3.71974 7.36477 3.22108 8.31077 2.77374 9.08811C2.07708 10.3054 1.39508 11.2954 1.27774 12.5128C1.14574 13.9428 3.52174 14.4341 4.59974 14.5368V2.5321Z" fill="#034EA1"/>
<path fill-rule="evenodd" clip-rule="evenodd" d="M13.4072 2.5321C14.0672 2.42944 14.6759 2.28277 15.2919 2.04077L14.4486 5.42144C14.3092 5.97877 14.2872 6.36011 14.2872 6.65344C14.2872 7.36477 14.7859 8.31077 15.2332 9.08811C15.9299 10.3054 16.6119 11.2954 16.7292 12.5128C16.8612 13.9428 14.4852 14.4341 13.4072 14.5368V2.5321Z" fill="#034EA1"/>
</svg>
