<svg width="81" height="38" viewBox="0 0 81 38" fill="none" xmlns="http://www.w3.org/2000/svg">
<rect width="81" height="38" rx="5" fill="#1B5685"/>
<path d="M32.0185 14.4075L31.6288 16.703C30.9928 16.4499 30.3229 16.2841 29.6387 16.2105C29.2979 16.1931 28.9569 16.2405 28.6352 16.3501C28.3135 16.4597 28.0175 16.6293 27.7643 16.8491C27.511 17.0689 27.3054 17.3346 27.1593 17.6309C27.0132 17.9273 26.9295 18.2485 26.913 18.576C26.913 20.3218 28.0393 20.7583 29.3157 20.7012C29.8045 20.6754 30.2838 20.5613 30.7286 20.3649L31.5559 20.1116L31.9195 22.2509L31.2517 22.4992C30.3967 22.8692 29.4624 23.0384 28.5259 22.9927C27.9076 23.0266 27.2892 22.9294 26.7144 22.708C26.1395 22.4866 25.6225 22.1464 25.1998 21.7115C24.7771 21.2767 24.4592 20.7578 24.2685 20.1917C24.0779 19.6256 24.0192 19.0261 24.0966 18.4358C24.1657 17.7401 24.3823 17.0652 24.7329 16.4529C25.0836 15.8405 25.561 15.3035 26.1357 14.875C27.0634 14.2766 28.1623 13.9715 29.2792 14.0021C30.2027 14.0189 31.1195 14.1553 32.005 14.4075H32.0185ZM57.5223 14.2023L55.8051 22.8355H58.4402L59.1071 19.4359L60.8242 22.8355H65.7714L68.8607 17.1054L69.1973 20.3739L68.1345 19.9374L67.3114 21.5301L69.5099 22.8395H72.0001L70.7279 14.2073H67.8834L63.3916 22.1027L61.465 18.4058L65.6536 14.2073H62.5278L59.5895 17.0303L60.148 14.2073L57.5223 14.2023ZM48.5542 14.2023L51.8478 14.1062C53.3107 14.0762 54.9466 14.4205 55.4592 15.9221C55.608 16.372 55.5963 16.8567 55.4261 17.2995C55.2559 17.7422 54.9368 18.1178 54.5194 18.3668C54.8157 18.6016 55.0509 18.8997 55.2063 19.2373C55.3617 19.5748 55.4329 19.9425 55.4144 20.3112C55.3959 20.6798 55.2881 21.0393 55.0996 21.3609C54.9112 21.6825 54.6472 21.9574 54.3287 22.1638C53.3923 22.7611 52.2637 23.0151 51.1487 22.8796L46.9871 22.8355L48.5542 14.2023ZM50.5266 16.1494L50.2859 17.5239H51.926C52.3803 17.5239 52.8741 17.5239 53.0752 17.0173C53.1189 16.9129 53.1331 16.7993 53.1166 16.6879C53.1 16.5765 53.0532 16.4713 52.9808 16.3828C52.9085 16.2943 52.8131 16.2257 52.7044 16.1838C52.5957 16.142 52.4774 16.1284 52.3615 16.1444L50.5266 16.1494ZM49.6681 20.7233H51.4217C51.9666 20.7233 52.6522 20.6272 52.7845 19.9945C52.798 19.9082 52.7936 19.8203 52.7717 19.7357C52.7497 19.6511 52.7106 19.5714 52.6566 19.5013C52.6026 19.4312 52.5348 19.372 52.457 19.3271C52.3792 19.2823 52.2929 19.2525 52.2031 19.2397H52.1979C52.1436 19.2332 52.0886 19.2332 52.0343 19.2397H49.9358L49.6681 20.7413V20.7233ZM42.3265 14.2063L37.3981 22.8355H38.811C40.0009 22.7875 40.278 22.4651 40.4916 22.1948C41.5638 20.487 42.3494 18.8723 43.3028 17.1004L43.6216 20.4219L42.5589 19.9855L41.7316 21.5912L44.2395 22.8185H46.4516L45.17 14.2073L42.3265 14.2063ZM32.9959 14.2063H39.7602L39.3059 16.6079H37.3345L36.0988 22.8355H33.4731L34.7088 16.6209H32.5593L32.9959 14.2063Z" fill="#00C9F7"/>
<path d="M22.3606 22.8315H24.5914L21.3572 18.1485L25.4823 14.2204H21.8115L13.6343 22.1198L15.1295 14.2023H13.1081L10 16.1544V18.3668L11.8672 17.5329L11.6129 18.2617C11.3264 19.7853 11.0357 21.3169 10.7544 22.8315H16.7602L19.2452 20.2828L20.2621 21.7704C20.4968 22.0971 20.8102 22.3646 21.1755 22.55C21.5409 22.7355 21.9474 22.8334 22.3606 22.8355V22.8315ZM17.5135 17.4358L15.3462 14.2023H17.8229C18.1718 14.2215 18.5129 14.3089 18.8254 14.4591C19.1379 14.6094 19.4151 14.8194 19.6401 15.0763L19.786 15.2685L17.5135 17.4358Z" fill="white"/>
</svg>
