<svg width="81" height="38" viewBox="0 0 81 38" fill="none" xmlns="http://www.w3.org/2000/svg">
<rect width="81" height="38" rx="5" fill="black"/>
<path d="M40.2211 18.2056C40.6451 18.4421 40.9953 18.7938 41.2319 19.2209C41.4686 19.648 41.5824 20.1335 41.5604 20.6225C41.5772 21.0537 41.4985 21.4833 41.3299 21.8798C41.1613 22.2764 40.9072 22.6298 40.5861 22.9143C39.854 23.5176 38.9264 23.8247 37.9831 23.7761H33.4912V13.005H37.6936C38.6166 12.9574 39.5254 13.2497 40.2515 13.8276C40.569 14.1027 40.8203 14.4473 40.9864 14.8352C41.1525 15.2231 41.229 15.6442 41.2101 16.0664C41.2262 16.4769 41.1448 16.8853 40.9728 17.2575C40.8007 17.6296 40.543 17.9547 40.2211 18.2056ZM37.617 15.4664H36.2169V17.1593H37.617C37.843 17.1659 38.0631 17.0865 38.2337 16.9367C38.3188 16.8582 38.3855 16.7615 38.429 16.6537C38.4725 16.5459 38.4918 16.4297 38.4854 16.3134C38.4905 16.1992 38.4714 16.0852 38.4295 15.979C38.3875 15.8728 38.3236 15.7768 38.2421 15.6975C38.0719 15.5405 37.8474 15.4574 37.617 15.4664ZM37.9065 21.3147C38.0294 21.3196 38.1519 21.2996 38.267 21.2559C38.3821 21.2122 38.4874 21.1457 38.5767 21.0603C38.7428 20.8824 38.8353 20.6471 38.8353 20.4025C38.8353 20.1579 38.7428 19.9226 38.5767 19.7448C38.394 19.5769 38.1532 19.4885 37.9065 19.4988H36.2169V21.3147H37.9065ZM46.4476 23.9913C45.9143 24.0013 45.3844 23.9022 44.8898 23.7C44.3953 23.4978 43.9463 23.1967 43.5698 22.8146C43.1935 22.4365 42.8948 21.987 42.6911 21.4918C42.4873 20.9966 42.3823 20.4655 42.3823 19.9292C42.3823 19.3929 42.4873 18.8618 42.6911 18.3667C42.8948 17.8715 43.1935 17.4219 43.5698 17.0438C44.3429 16.2884 45.3761 15.8662 46.4513 15.8662C47.5265 15.8662 48.5597 16.2884 49.3328 17.0438C50.0885 17.8098 50.5129 18.8474 50.5129 19.9292C50.5129 21.011 50.0885 22.0486 49.3328 22.8146C48.9558 23.1978 48.5059 23.4996 48.0101 23.7019C47.5144 23.9041 46.9832 24.0026 46.4487 23.9913H46.4476ZM46.4476 21.5299C46.6522 21.5367 46.856 21.5005 47.0461 21.4237C47.2362 21.3469 47.4084 21.2311 47.552 21.0836C47.8315 20.7654 47.9859 20.3547 47.9859 19.9292C47.9859 19.5037 47.8315 19.093 47.552 18.7748C47.4083 18.6276 47.236 18.512 47.0459 18.4354C46.8559 18.3587 46.6521 18.3227 46.4476 18.3296C46.2456 18.3239 46.0446 18.3604 45.8572 18.4371C45.6699 18.5137 45.5002 18.6287 45.359 18.7748C45.0795 19.093 44.9251 19.5037 44.9251 19.9292C44.9251 20.3547 45.0795 20.7654 45.359 21.0836C45.5002 21.2298 45.6698 21.3448 45.8572 21.4215C46.0446 21.4981 46.2456 21.5346 46.4476 21.5288V21.5299Z" fill="#FFD000"/>
<path d="M55.2782 23.9913C54.7448 24.0013 54.2149 23.9023 53.7204 23.7001C53.2259 23.4979 52.7769 23.1967 52.4004 22.8147C52.024 22.4366 51.7254 21.987 51.5216 21.4918C51.3178 20.9966 51.2129 20.4656 51.2129 19.9292C51.2129 19.3929 51.3178 18.8619 51.5216 18.3667C51.7254 17.8715 52.024 17.4219 52.4004 17.0438C53.1734 16.2884 54.2066 15.8662 55.2819 15.8662C56.3571 15.8662 57.3903 16.2884 58.1633 17.0438C58.919 17.8098 59.3434 18.8475 59.3434 19.9292C59.3434 21.011 58.919 22.0486 58.1633 22.8147C57.7863 23.198 57.3361 23.4999 56.8402 23.7021C56.3442 23.9044 55.8128 24.0028 55.2782 23.9913ZM55.2782 21.5299C55.4826 21.5366 55.6862 21.5003 55.8761 21.4235C56.066 21.3467 56.238 21.231 56.3815 21.0836C56.661 20.7655 56.8154 20.3547 56.8154 19.9292C56.8154 19.5037 56.661 19.093 56.3815 18.7749C56.2379 18.6277 56.0658 18.5122 55.8759 18.4356C55.686 18.359 55.4825 18.3229 55.2782 18.3296C55.0761 18.3238 54.8751 18.3604 54.6877 18.437C54.5004 18.5136 54.3308 18.6287 54.1896 18.7749C53.91 19.093 53.7556 19.5037 53.7556 19.9292C53.7556 20.3547 53.91 20.7655 54.1896 21.0836C54.3307 21.2299 54.5003 21.3449 54.6877 21.4216C54.8751 21.4982 55.0761 21.5347 55.2782 21.5288V21.5299ZM69.1324 15.8672C69.5216 15.8476 69.9104 15.9137 70.2719 16.0611C70.6333 16.2084 70.9588 16.4334 71.2257 16.7205C71.7679 17.3755 72.0428 18.2148 71.9944 19.0674V23.7761H69.4522V19.36C69.4522 18.642 69.1376 18.283 68.5083 18.283C68.3598 18.2732 68.2111 18.2994 68.0746 18.3596C67.9381 18.4197 67.8179 18.5119 67.7239 18.6286C67.5326 18.905 67.4387 19.2384 67.4575 19.5752V23.7761H64.93V19.36C64.93 18.642 64.6104 18.283 63.9714 18.283C63.8228 18.2732 63.6741 18.2994 63.5377 18.3596C63.4012 18.4197 63.2809 18.5119 63.1869 18.6286C62.9956 18.905 62.9018 19.2384 62.9205 19.5752V23.7761H60.393V16.0823H62.9205V16.8053C63.1617 16.4916 63.475 16.2422 63.8333 16.0787C64.1915 15.9152 64.5838 15.8426 64.9761 15.8672C65.3579 15.8432 65.7393 15.9217 66.0815 16.0946C66.4237 16.2675 66.7146 16.5288 66.9247 16.8519C67.1911 16.5249 67.5295 16.2654 67.9128 16.0943C68.2961 15.9231 68.7138 15.8449 69.1324 15.8661V15.8672Z" fill="#FFD000"/>
<path d="M16.7289 18.2056C17.1531 18.442 17.5034 18.7936 17.7403 19.2207C17.9771 19.6478 18.091 20.1334 18.0692 20.6225C18.0859 21.0538 18.0069 21.4835 17.8382 21.88C17.6694 22.2765 17.4151 22.6299 17.0938 22.9143C16.3618 23.5176 15.4341 23.8247 14.4908 23.7761H10V13.005H14.2024C15.1251 12.9577 16.0335 13.2499 16.7593 13.8276C17.0769 14.1027 17.3284 14.4472 17.4947 14.8351C17.661 15.223 17.7376 15.6441 17.7189 16.0664C17.7349 16.477 17.6533 16.8854 17.4811 17.2576C17.3088 17.6298 17.0509 17.9549 16.7289 18.2056ZM14.1258 15.4664H12.7247V17.1593H14.1258C14.3517 17.1659 14.5719 17.0865 14.7425 16.9367C14.8275 16.8582 14.8942 16.7615 14.9378 16.6537C14.9813 16.5459 15.0006 16.4297 14.9942 16.3134C14.9992 16.1991 14.9799 16.085 14.9378 15.9788C14.8956 15.8726 14.8316 15.7767 14.7498 15.6975C14.5799 15.5407 14.3558 15.4577 14.1258 15.4664ZM14.4153 21.3147C14.538 21.3195 14.6603 21.2994 14.7752 21.2557C14.8901 21.212 14.9953 21.1456 15.0844 21.0603C15.2505 20.8824 15.343 20.6471 15.343 20.4025C15.343 20.158 15.2505 19.9226 15.0844 19.7448C14.902 19.5772 14.6616 19.4888 14.4153 19.4988H12.7247V21.3147H14.4153ZM21.3424 20.8684C21.49 21.1885 21.7353 21.4524 22.0422 21.6212C22.3491 21.7901 22.7015 21.855 23.0477 21.8066C23.5615 21.8196 24.0594 21.6259 24.432 21.2681L26.26 22.5613C25.8645 23.0435 25.3618 23.4245 24.793 23.6731C24.2242 23.9218 23.6054 24.0312 22.9868 23.9924C22.4207 24.0197 21.8549 23.9323 21.3227 23.7353C20.7904 23.5383 20.3026 23.2358 19.8877 22.8454C19.505 22.4703 19.2037 22.0186 19.0033 21.5192C18.8029 21.0199 18.7076 20.4838 18.7236 19.9451C18.7092 19.4044 18.8042 18.8664 19.0028 18.364C19.2014 17.8617 19.4994 17.4057 19.8785 17.0239C20.2577 16.6421 20.7099 16.3425 21.2076 16.1436C21.7053 15.9447 22.238 15.8506 22.7729 15.8671C23.296 15.8509 23.8166 15.9451 24.3017 16.1436C24.7867 16.3422 25.2254 16.6409 25.5899 17.0205C25.9575 17.403 26.2453 17.8563 26.4363 18.3534C26.6272 18.8505 26.7174 19.3813 26.7016 19.9144C26.7033 20.2355 26.6674 20.5558 26.5946 20.8684H21.3424ZM21.3109 19.0981H24.2349C24.1664 18.7735 23.9833 18.4852 23.7199 18.287C23.4564 18.0888 23.1306 17.9943 22.8033 18.0211C22.4683 17.9902 22.1334 18.0819 21.8596 18.2795C21.5859 18.4772 21.3915 18.7677 21.312 19.0981H21.3109ZM32.1824 18.5289H30.5988V20.7603C30.579 20.8919 30.6046 21.0264 30.6713 21.1412C30.7379 21.256 30.8415 21.3442 30.9648 21.391C31.3631 21.4856 31.7744 21.5118 32.1813 21.4684V23.7761C31.1031 24.0316 29.9696 23.8812 28.9931 23.3532C28.6537 23.0339 28.3934 22.6384 28.2333 22.1987C28.0731 21.7589 28.0176 21.2872 28.0712 20.8218V18.53H26.9302V16.0834H28.0712V14.6979L30.5988 13.9294V16.0834H32.1824V18.5289Z" fill="#D22E1C"/>
</svg>
