<svg width="81" height="38" viewBox="0 0 81 38" fill="none" xmlns="http://www.w3.org/2000/svg">
<rect width="81" height="38" rx="5" fill="#D22D2F"/>
<path d="M11.0342 24.7226L10.6805 24.8008H8.32189C8.0861 24.8008 7.96825 24.6837 8.0074 24.4883L9.93369 16.3625C10.0272 15.9551 10.1725 15.5612 10.366 15.1903C10.5662 14.8086 10.8324 14.4648 11.1524 14.1746C11.4849 13.8717 11.8716 13.6333 12.2923 13.4717C12.7949 13.2823 13.329 13.1895 13.8663 13.1981H18.9356L19.1713 13.2763C19.2105 13.3153 19.2105 13.4328 19.1322 13.6278L18.6998 15.5028C18.6867 15.6031 18.6459 15.6978 18.582 15.7764L18.3067 15.8546H14.2183L13.6681 15.9328L13.3144 16.1671C13.2295 16.258 13.1629 16.364 13.1179 16.4796L13 16.7921L12.7247 17.8078H17.1275L17.3633 17.8861C17.4025 17.925 17.4025 18.0425 17.3241 18.2375L16.9309 19.9565C16.8522 20.1908 16.7344 20.3472 16.5378 20.3472H12.1349L11.1524 24.4493C11.1393 24.5496 11.0985 24.6443 11.0345 24.7229" fill="white"/>
<path d="M29.1565 18.98C28.9552 19.846 28.6517 20.6852 28.2523 21.4804C27.9066 22.18 27.4411 22.8145 26.8765 23.3555C26.3237 23.8848 25.6683 24.2968 24.9502 24.5665C24.1439 24.8577 23.2917 25.0033 22.4339 24.9962C21.6675 25.0248 20.9038 24.8917 20.1931 24.6055C19.6351 24.3634 19.1676 23.9534 18.8565 23.4333C18.5347 22.8592 18.3592 22.2154 18.3455 21.5583C18.3234 20.7163 18.416 19.8752 18.6208 19.0579C18.8114 18.2015 19.1155 17.3739 19.525 16.5968C19.8979 15.8704 20.3894 15.2104 20.9794 14.6435C21.5375 14.1207 22.1916 13.7095 22.906 13.4325C23.6585 13.1447 24.4584 12.9989 25.2647 13.0025C26.0345 12.9788 26.7999 13.1257 27.5055 13.4325C28.0751 13.691 28.5542 14.1127 28.8812 14.6435C29.2183 15.2135 29.4074 15.8579 29.4314 16.5186C29.4554 17.3477 29.3627 18.1761 29.1561 18.9797L29.1565 18.98ZM25.8541 18.9797C25.9472 18.5678 26.0129 18.1502 26.0507 17.7297C26.082 17.3891 26.0554 17.0457 25.972 16.714C25.9092 16.4389 25.7573 16.1918 25.5396 16.0107C25.2787 15.8193 24.9595 15.7227 24.6354 15.7371C24.3183 15.7333 24.006 15.8142 23.7312 15.9715C23.4215 16.1638 23.154 16.4163 22.9449 16.714C22.7078 17.0136 22.5096 17.3418 22.3552 17.6908C22.1878 18.0683 22.0561 18.4607 21.962 18.8626C21.848 19.3116 21.7693 19.7686 21.7262 20.2297C21.6901 20.5703 21.7167 20.9145 21.8049 21.2455C21.8805 21.5143 22.0472 21.749 22.2768 21.9097C22.5463 22.0794 22.8624 22.1613 23.181 22.144C23.528 22.1464 23.8686 22.0516 24.1639 21.8705C24.4546 21.7002 24.7083 21.4745 24.9107 21.2062C25.1369 20.8923 25.3218 20.5509 25.461 20.1905C25.6213 19.7967 25.7527 19.392 25.8541 18.9794" fill="white"/>
<path d="M50.6987 18.4721C50.9564 18.5904 51.1847 18.7638 51.3673 18.98C51.5382 19.1756 51.6716 19.4008 51.7602 19.6443C51.8415 19.8968 51.8813 20.1606 51.8781 20.4257C51.884 20.7013 51.8578 20.9766 51.7995 21.2461C51.6729 21.7663 51.4455 22.2571 51.1309 22.6915C50.8185 23.1308 50.4329 23.5139 49.9908 23.8244C49.5482 24.146 49.0578 24.3965 48.5365 24.5665C48.004 24.7427 47.4469 24.835 46.8856 24.8401H42.5611C42.0893 24.8401 41.8143 24.7619 41.7356 24.5665C41.6457 24.3003 41.6457 24.0123 41.7356 23.7462L43.9372 14.2921C43.9918 13.9884 44.1276 13.7049 44.3304 13.4714C44.5964 13.2605 44.9353 13.1621 45.2738 13.1971H49.5966C50.0604 13.1879 50.5229 13.2406 50.9727 13.3535C51.3533 13.4499 51.7041 13.6376 51.9948 13.9003C52.2651 14.1536 52.4563 14.4791 52.5449 14.8379C52.6453 15.2899 52.6317 15.7594 52.5056 16.205C52.3962 16.6643 52.1819 17.0923 51.8795 17.4564C51.5784 17.8381 51.2041 18.1567 50.7787 18.3939L50.6987 18.4721ZM46.335 17.4564H48.0637C48.2961 17.4596 48.5257 17.4059 48.7323 17.3C48.8503 17.2294 48.9511 17.1328 49.0257 17.0177C49.1007 16.9025 49.1482 16.7719 49.1645 16.6357C49.2011 16.5391 49.2128 16.4351 49.1993 16.3329C49.1857 16.2306 49.1464 16.1333 49.0858 16.0497C49.0135 15.98 48.9267 15.9266 48.8317 15.8929C48.7368 15.8592 48.636 15.846 48.5356 15.8543H46.688L46.335 17.4564ZM48.5759 21.0115C48.6148 20.8805 48.6242 20.7428 48.6039 20.6078C48.5836 20.4728 48.5334 20.3439 48.4579 20.23C48.3684 20.1213 48.254 20.036 48.1238 19.9815C47.9936 19.927 47.8517 19.905 47.7111 19.9175H45.747L45.2359 22.1051H47.2014L47.7911 21.9879L48.1844 21.7144C48.2947 21.6129 48.3878 21.4942 48.4597 21.3629C48.5117 21.2504 48.5515 21.1326 48.5777 21.0115" fill="white"/>
<path d="M60.6444 24.8009H55.4946C54.9562 24.8313 54.4182 24.7377 53.9223 24.5273C53.577 24.3701 53.2886 24.111 53.0969 23.7851C52.9341 23.4715 52.8528 23.1222 52.8609 22.7694C52.8582 22.4015 52.8975 22.0344 52.9789 21.6754L54.237 16.3625C54.3301 15.9552 54.4756 15.5615 54.6691 15.1907C54.8698 14.8094 55.1361 14.4656 55.4552 14.1749C55.7884 13.8727 56.1749 13.6342 56.5953 13.4717C57.0976 13.2826 57.631 13.1898 58.1676 13.1982H63.0814L63.3174 13.2764C63.3567 13.3153 63.3567 13.4328 63.2781 13.6278L62.8459 15.5029C62.8328 15.6031 62.7921 15.6978 62.7279 15.7764L62.4526 15.8547H58.5215L57.9709 15.9329L57.6174 16.1672C57.5324 16.258 57.466 16.364 57.4208 16.4796L57.3033 16.7921L57.1455 17.4954H61.6272L61.8631 17.5736C61.8866 17.692 61.8731 17.8147 61.8238 17.925L61.4305 19.644C61.3781 19.9045 61.247 20.0347 61.0372 20.0347H56.556L56.2807 21.2847C56.2337 21.4497 56.2206 21.6224 56.2414 21.7926C56.2572 21.9003 56.3133 21.9981 56.3987 22.0661L56.674 22.1833H61.3125L61.5485 22.2615C61.5878 22.3005 61.5878 22.418 61.5092 22.613L61.077 24.488C60.9983 24.7223 60.8804 24.8787 60.6837 24.8787" fill="white"/>
<path d="M73.1057 15.8547H70.2754L68.2312 24.4491C68.2163 24.5488 68.1756 24.6431 68.1132 24.7227L67.7597 24.8009H65.4009C65.1387 24.8009 65.0342 24.6837 65.0867 24.4494L67.1309 15.855H64.3399C64.1039 15.855 64.0253 15.7379 64.0646 15.4643L64.4968 13.6282C64.5081 13.4968 64.5637 13.373 64.6541 13.2767H73.9705C74.0098 13.3158 74.0098 13.4329 73.9705 13.6282L73.5383 15.4643C73.5284 15.5713 73.4786 15.6709 73.3986 15.7432C73.3186 15.8155 73.2142 15.8554 73.1057 15.855" fill="white"/>
<path d="M33.8342 18.5111L32.419 24.4491C32.404 24.5488 32.3634 24.643 32.3011 24.7226L31.9474 24.8008H29.5888C29.3135 24.8008 29.2352 24.6837 29.2744 24.4494L31.6722 14.5267C31.7275 14.1308 31.9062 13.762 32.1832 13.4721C32.4819 13.2662 32.843 13.1695 33.2053 13.1985H34.5027L34.8171 13.3156L35.0529 13.55L35.2887 13.9407L36.8218 17.4957L37.6473 19.5272H37.7652L39.1804 13.5496C39.1954 13.4499 39.236 13.3556 39.2983 13.2761L39.6523 13.1975H42.011C42.2467 13.1975 42.3646 13.3146 42.3254 13.5489L39.9668 23.4726C39.888 23.8186 39.7257 24.1403 39.4939 24.4101C39.3565 24.5484 39.1903 24.6551 39.0069 24.7226C38.8235 24.7901 38.6275 24.8168 38.4326 24.8008H37.1363L36.8218 24.6837L36.5465 24.4494C36.4504 24.3304 36.3711 24.199 36.3108 24.0587L34.8171 20.5815L33.9524 18.5111H33.8342Z" fill="white"/>
</svg>
