<svg width="81" height="38" viewBox="0 0 81 38" fill="none" xmlns="http://www.w3.org/2000/svg">
<rect width="81" height="38" rx="5" fill="#007A35"/>
<path d="M41.0014 9C51.2353 9 61.4866 9 71.7379 9C71.9651 9 72 9.0527 72 9.2812C72 15.7487 72 22.2337 72 28.7012C72 28.9121 71.9477 28.9649 71.7379 28.9649C70.6179 28.9473 69.5164 28.9473 68.3964 28.9649C68.2036 28.9649 68.1518 28.9297 68.1518 28.7364C68.1518 23.464 68.1518 18.2091 68.1687 12.9368C68.1687 12.7259 68.1338 12.6731 67.9067 12.6731C49.9584 12.6731 32.0271 12.6731 14.0786 12.6731C13.8512 12.6731 13.8162 12.7259 13.8162 12.9543C13.8162 18.2091 13.8162 23.464 13.8337 28.7364C13.8337 28.9473 13.7812 28.9825 13.5888 28.9825C12.4692 28.9649 11.3321 28.9649 10.2125 28.9825C10.0376 28.9825 10.0026 28.9297 10.0026 28.754C10.0026 22.2514 10.0026 15.7663 10.0026 9.2636C9.9851 9.03515 10.0551 9 10.2475 9C16.0204 9 21.7933 9 27.5662 9C32.0446 9 36.523 9 41.0014 9Z" fill="#FEFEFE"/>
<path d="M16.2825 28.9473C16.6323 27.1019 16.9647 25.2741 17.3146 23.4464C17.5245 22.3568 17.7344 21.2495 17.9268 20.1599C17.9619 19.9842 18.0143 19.8963 18.2067 19.9139C18.7491 19.9314 19.2913 19.9314 19.8512 19.9139C20.0261 19.9139 20.0786 19.9666 20.0961 20.1248C20.4285 21.8998 20.7433 23.6748 21.0758 25.4323C21.2857 26.5219 21.4781 27.6291 21.688 28.7188C21.723 28.8945 21.7055 28.9473 21.5131 28.9473C21.1457 28.9296 20.7783 28.9296 20.3935 28.9473C20.271 28.9473 20.236 28.9121 20.2185 28.7891C20.0086 27.4183 19.7812 26.0299 19.5538 24.659C19.3788 23.6221 19.2214 22.5676 19.0465 21.5307C19.0465 21.478 19.0465 21.4077 18.959 21.4077C18.8716 21.4077 18.889 21.478 18.8716 21.5307C18.6791 22.7434 18.5042 23.9385 18.3117 25.1511C18.1193 26.3638 17.9444 27.594 17.7519 28.8066C17.7344 28.8769 17.7519 28.9648 17.6295 28.9473C17.1922 28.9473 16.7548 28.9473 16.2825 28.9473Z" fill="#FEFEFE"/>
<path d="M22.4053 25.3269C22.4053 24.1845 22.4053 23.0422 22.4053 21.9174C22.4053 21.7592 22.4577 21.7241 22.5977 21.7241C22.9301 21.7416 23.2625 21.7416 23.6123 21.7241C23.7697 21.7241 23.8048 21.7768 23.8048 21.9174C23.8048 23.1301 23.8048 24.3427 23.8048 25.5378C23.8048 25.5905 23.8048 25.6432 23.8048 25.6784C23.8048 25.7135 23.8048 25.7662 23.8748 25.7662C23.9097 25.7662 23.9448 25.7487 23.9622 25.7135C23.9797 25.6608 23.9972 25.6081 24.0147 25.5554C24.4695 24.3251 24.9244 23.1125 25.3617 21.8822C25.4142 21.7416 25.4667 21.6889 25.6241 21.6889C25.9215 21.7065 26.2189 21.7065 26.4988 21.6889C26.6388 21.6889 26.6737 21.7416 26.6737 21.8647C26.6737 24.167 26.6737 26.4692 26.6737 28.754C26.6737 28.877 26.6388 28.9297 26.5163 28.9121C26.1664 28.8945 25.7991 28.8945 25.4492 28.9121C25.3092 28.9121 25.2743 28.8594 25.2743 28.7364C25.2743 27.594 25.2743 26.4517 25.2743 25.2917C25.2743 25.2566 25.2743 25.2039 25.2743 25.1687C25.2743 25.116 25.3092 25.0457 25.2218 25.0281C25.1518 25.0281 25.1343 25.0984 25.1168 25.1336C25.0818 25.2039 25.0643 25.2742 25.0293 25.3445C24.592 26.4692 24.1547 27.594 23.7173 28.7188C23.6648 28.8594 23.5948 28.9121 23.4374 28.8945C23.1575 28.877 22.8776 28.877 22.5977 28.8945C22.4402 28.8945 22.4053 28.8594 22.4053 28.7012C22.4228 27.6116 22.4053 26.4692 22.4053 25.3269Z" fill="#FEFEFE"/>
<path d="M38.7099 24.4306C38.7099 25.3621 38.7099 26.2935 38.7099 27.2426C38.7099 27.5765 38.7974 27.6644 39.1297 27.6644C39.3921 27.6644 39.6545 27.6644 39.8994 27.6644C40.1619 27.6644 40.2494 27.5765 40.2494 27.3129C40.2494 26.9262 40.2494 26.522 40.2494 26.1354C40.2494 26.0124 40.2668 25.942 40.4243 25.9596C40.7741 25.9772 41.1415 25.9596 41.4914 25.9596C41.6138 25.9596 41.6488 25.9947 41.6488 26.1178C41.6488 26.645 41.6488 27.1722 41.6488 27.6995C41.6488 28.3849 41.089 28.9473 40.4068 28.9649C39.7769 28.9825 39.1297 28.9825 38.4999 28.9649C37.8177 28.9473 37.3104 28.4376 37.2754 27.7346C37.2579 27.4886 37.2754 27.2426 37.2754 26.9965C37.2754 25.116 37.2754 23.2355 37.2754 21.3726C37.2754 20.4763 37.8002 19.9315 38.7099 19.9315C39.2522 19.9315 39.7945 19.9315 40.3193 19.9315C41.089 19.9315 41.6313 20.4939 41.6313 21.2671C41.6313 21.7944 41.6313 22.3041 41.6313 22.8313C41.6313 22.9895 41.5788 23.0246 41.4389 23.0246C41.089 23.0071 40.7392 23.0246 40.3893 23.0246C40.2668 23.0246 40.2318 22.9895 40.2318 22.8665C40.2318 22.4447 40.2318 22.0053 40.2318 21.5835C40.2318 21.3023 40.1444 21.2144 39.8644 21.2144C39.5845 21.2144 39.3046 21.2144 39.0248 21.2144C38.7799 21.2144 38.6748 21.3199 38.6748 21.5659C38.6748 22.3744 38.6748 23.2004 38.6748 24.0088C38.7099 24.1319 38.7099 24.29 38.7099 24.4306Z" fill="#FEFEFE"/>
<path fill-rule="evenodd" clip-rule="evenodd" d="M55.8359 26.5923C55.8184 26.0475 55.5036 25.6257 54.9789 25.4499C54.9655 25.4455 54.95 25.4433 54.9341 25.441C54.8873 25.4345 54.8389 25.4276 54.8389 25.362C54.8389 25.2815 54.9002 25.2727 54.952 25.2653C54.9685 25.2629 54.9839 25.2607 54.9964 25.2566C55.4512 25.0809 55.7307 24.7469 55.7661 24.2549C55.801 23.8331 55.801 23.3937 55.7661 22.9719C55.7133 22.2338 55.241 21.7593 54.5061 21.7417C54.0777 21.7329 53.6492 21.7329 53.2182 21.7329C52.7878 21.7329 52.3548 21.7329 51.9174 21.7241C51.7674 21.7241 51.7714 21.8016 51.7759 21.879C51.7764 21.8919 51.7774 21.9049 51.7774 21.9174V25.362V28.7715C51.7774 28.9297 51.8123 28.9649 51.9697 28.9649H54.5241C55.2236 28.9649 55.7836 28.42 55.8184 27.7171C55.8448 27.4268 55.8413 27.1464 55.8379 26.8686C55.8369 26.7763 55.8359 26.6843 55.8359 26.5923ZM53.1774 23.8682V23.1301C53.1774 23.0246 53.1948 22.9895 53.2994 22.9895H54.0692C54.262 22.9895 54.3492 23.0949 54.3666 23.2706C54.3841 23.6749 54.3841 24.0791 54.3666 24.4658C54.3666 24.6415 54.262 24.7469 54.0692 24.7469H53.2994C53.1948 24.7469 53.1774 24.7118 53.1774 24.6064C53.1888 24.4674 53.1854 24.3055 53.1814 24.1359C53.1794 24.048 53.1774 23.9581 53.1774 23.8682ZM54.1394 27.6644C54.3318 27.6468 54.4369 27.5413 54.4369 27.3656C54.4543 27.0141 54.4543 26.6626 54.4194 26.2935C54.4194 26.1002 54.3143 25.9948 54.122 25.9948C54.0278 25.9948 53.9362 25.9967 53.8445 25.9987C53.6636 26.0026 53.4858 26.0064 53.2994 25.9948C53.1774 25.9948 53.1599 26.0475 53.1599 26.1529V26.8032V27.5238C53.1599 27.6116 53.1774 27.6644 53.2994 27.6644H54.1394Z" fill="#FEFEFE"/>
<path fill-rule="evenodd" clip-rule="evenodd" d="M59.5979 21.724C60.2625 21.7768 60.7697 22.3216 60.7697 22.9894C60.7872 24.5535 60.7872 26.1177 60.7872 27.6817V27.6819C60.7872 28.3849 60.2097 28.9473 59.4928 28.9473H57.9533C57.2184 28.9473 56.6589 28.3849 56.6589 27.6467V25.3269V23.0598C56.6589 22.304 57.1487 21.7592 57.8836 21.724C58.4605 21.6889 59.0205 21.6713 59.5979 21.724ZM58.9677 27.6643C59.3 27.6643 59.3877 27.5764 59.3877 27.2601C59.3877 26.6098 59.3877 25.9771 59.3702 25.3269V23.3936C59.3702 23.1125 59.2825 23.007 58.9851 23.007H58.3554C58.1456 23.0246 58.0405 23.1125 58.0405 23.3234V27.3655C58.0405 27.5589 58.1456 27.6643 58.3379 27.6643H58.9677Z" fill="#FEFEFE"/>
<path d="M66.2273 28.9473C65.7375 28.9473 65.2827 28.9473 64.8278 28.9473C64.6878 28.9473 64.6878 28.8594 64.6524 28.7715C64.2678 27.8928 63.9006 27.014 63.5155 26.1353C63.4806 26.065 63.4806 25.9947 63.3755 25.9947C63.2355 25.9947 63.1657 25.9947 63.1657 26.1704C63.1832 27.0316 63.1657 27.8928 63.1832 28.7715C63.1832 28.9121 63.1483 28.9648 62.9909 28.9473C62.6411 28.9296 62.2909 28.9296 61.9411 28.9473C61.8011 28.9473 61.7837 28.9121 61.7837 28.7891C61.7837 26.4868 61.7837 24.2021 61.7837 21.8998C61.7837 21.7768 61.8011 21.7065 61.9586 21.724C62.3083 21.7416 62.6586 21.7416 63.0083 21.724C63.1483 21.724 63.1832 21.7592 63.1832 21.8998C63.1832 22.7961 63.1832 23.6924 63.1832 24.6063C63.1832 24.6766 63.1134 24.782 63.2529 24.7996C63.3755 24.8172 63.4283 24.7645 63.4632 24.659C63.8304 23.7451 64.198 22.8488 64.5652 21.9349C64.6175 21.7943 64.6878 21.724 64.8452 21.7416C65.2124 21.7592 65.5796 21.7592 65.9647 21.7416C66.1401 21.7416 66.1401 21.7943 66.0873 21.9349C65.6324 23.007 65.1775 24.0966 64.7052 25.1863C64.6524 25.3093 64.6524 25.4147 64.7052 25.5378C65.195 26.645 65.6847 27.7521 66.175 28.8594C66.1919 28.8594 66.2098 28.8945 66.2273 28.9473Z" fill="#FEFEFE"/>
<path fill-rule="evenodd" clip-rule="evenodd" d="M50.7978 27.4886C50.885 27.928 50.9727 28.3673 51.0773 28.8066C51.0948 28.9297 51.0599 28.9472 50.9553 28.9999L50.9548 29H49.8353C49.7127 29 49.6779 28.9472 49.6604 28.8418C49.6255 28.6133 49.5907 28.4024 49.5553 28.1915C49.5553 28.0861 49.503 28.0509 49.3979 28.0509H47.8412C47.7187 28.0509 47.6837 28.0861 47.6663 28.1915C47.6313 28.3849 47.5963 28.5957 47.5613 28.8066C47.5438 28.9121 47.5088 28.9648 47.3688 28.9648C47.019 28.9472 46.6516 28.9472 46.2843 28.9648C46.1443 28.9648 46.1443 28.9121 46.1617 28.7891C46.3966 27.6488 46.6369 26.5085 46.8766 25.3712C47.0654 24.4753 47.2538 23.5813 47.4388 22.6906C47.4574 22.5911 47.4782 22.4937 47.4989 22.397C47.5365 22.2206 47.5737 22.0463 47.5963 21.8646C47.6137 21.724 47.6663 21.7065 47.7887 21.7065H48.6284H49.3979C49.5379 21.7065 49.6081 21.7416 49.643 21.8998L50.7973 27.4885L50.7978 27.4886ZM48.7671 26.8167C48.8757 26.8128 48.9794 26.8091 49.0835 26.8207C49.2584 26.8383 49.3107 26.7856 49.2584 26.6098C49.1622 26.0298 49.066 25.4542 48.9694 24.8786C48.8732 24.3031 48.7772 23.7275 48.681 23.1476C48.6765 23.1342 48.6744 23.1186 48.6721 23.1027C48.6656 23.0559 48.6588 23.007 48.5934 23.007C48.5011 23.007 48.5036 23.0751 48.5055 23.1274C48.5058 23.1345 48.506 23.1413 48.506 23.1476C48.4941 23.2122 48.4822 23.2765 48.4703 23.3405C48.3951 23.7469 48.3216 24.1436 48.2611 24.5536C48.1999 24.8963 48.143 25.239 48.0862 25.5817C48.0293 25.9244 47.9725 26.2671 47.9112 26.6098C47.8937 26.768 47.9287 26.8383 48.1036 26.8207C48.2074 26.8091 48.3112 26.8128 48.4199 26.8167C48.4762 26.8187 48.5338 26.8207 48.5934 26.8207C48.6531 26.8207 48.7108 26.8187 48.7671 26.8167Z" fill="#FEFEFE"/>
<path fill-rule="evenodd" clip-rule="evenodd" d="M34.665 25.3439C34.8994 26.4733 35.1338 27.6026 35.3682 28.7364C35.3707 28.7466 35.3733 28.7565 35.3758 28.7661C35.3904 28.8228 35.4032 28.8722 35.4032 28.9473H34.1087C34.0212 28.9473 34.0037 28.9121 33.9862 28.8243C33.9742 28.6673 33.9456 28.5187 33.9176 28.3726C33.9048 28.3061 33.8922 28.24 33.8812 28.174C33.8463 28.0685 33.8113 28.0158 33.6888 28.0158H32.1493C32.0269 28.0158 31.9744 28.0509 31.9569 28.174C31.9378 28.2987 31.9135 28.4183 31.8896 28.5354C31.8698 28.6328 31.8504 28.7285 31.8345 28.8243C31.817 28.9121 31.7995 28.9473 31.712 28.9473H30.4175C30.5574 28.2618 30.6974 27.5764 30.8373 26.9086C30.8898 26.658 30.9423 26.4078 30.9948 26.1579C31.2918 24.7427 31.5869 23.3364 31.8694 21.9174C31.9044 21.7416 31.9744 21.7065 32.1318 21.7065C32.6567 21.724 33.1815 21.724 33.7063 21.7065C33.8637 21.7065 33.9162 21.7416 33.9512 21.8998C34.1891 23.0508 34.4271 24.1973 34.665 25.3439ZM32.9195 26.8207H33.4793C33.5667 26.8207 33.6192 26.8207 33.6192 26.6977C33.4352 25.6657 33.2647 24.6203 33.0958 23.585C33.072 23.439 33.0482 23.2931 33.0244 23.1476C33.0197 23.1332 33.0188 23.1162 33.0179 23.099C33.0156 23.0534 33.0133 23.007 32.937 23.007C32.8446 23.007 32.8471 23.0751 32.849 23.1274C32.8493 23.1345 32.8495 23.1413 32.8495 23.1476C32.7533 23.7363 32.6527 24.3295 32.5521 24.9226C32.4515 25.5158 32.3509 26.1089 32.2547 26.6977C32.2372 26.7856 32.2722 26.8207 32.3597 26.8207H32.9195Z" fill="#FEFEFE"/>
<path d="M44.9027 25.9771C44.9027 26.9086 44.9027 27.84 44.9027 28.7539C44.9027 28.8945 44.8851 28.9648 44.7102 28.9648C44.3778 28.9472 44.0454 28.9472 43.6956 28.9648C43.5381 28.9648 43.5031 28.9297 43.5031 28.7715C43.5031 26.9261 43.5031 25.0984 43.5206 23.253C43.5206 23.0421 43.4681 22.9894 43.2582 23.007C42.9433 23.0246 42.6285 23.007 42.3135 23.007C42.2086 23.007 42.1736 22.9894 42.1736 22.8664C42.1736 22.5325 42.1736 22.1986 42.1736 21.8471C42.1736 21.7416 42.2086 21.7065 42.296 21.7065C43.5556 21.7065 44.8327 21.7065 46.0922 21.7065C46.1972 21.7065 46.2147 21.7416 46.2147 21.8471C46.2147 22.181 46.2147 22.5149 46.2147 22.8312C46.2147 22.9542 46.1796 22.9894 46.0572 22.9894C45.7248 22.9894 45.3925 22.9894 45.0426 22.9894C44.9026 22.9894 44.8676 23.0246 44.8676 23.1652C44.9201 24.0966 44.9027 25.0281 44.9027 25.9771Z" fill="#FEFEFE"/>
<path d="M27.6887 25.3269C27.6887 24.1845 27.6887 23.0421 27.6887 21.9174C27.6887 21.7592 27.7412 21.7065 27.8987 21.7065C28.8083 21.7065 29.718 21.7065 30.6276 21.7065C30.8026 21.7065 30.8376 21.7592 30.8376 21.9174C30.8201 22.2337 30.8376 22.5325 30.8376 22.8488C30.8376 22.9719 30.8026 23.007 30.6801 23.007C30.2253 23.007 29.753 23.007 29.2982 23.007C29.1232 23.007 29.0882 23.0421 29.0882 23.2179C29.0882 25.0456 29.0882 26.891 29.1057 28.7187C29.1057 28.9121 29.0532 28.9648 28.8608 28.9648C28.546 28.9472 28.2485 28.9472 27.9336 28.9648C27.7587 28.9648 27.7062 28.9297 27.7062 28.7364C27.7062 27.594 27.6887 26.4692 27.6887 25.3269Z" fill="#FEFEFE"/>
</svg>
