<svg width="81" height="38" viewBox="0 0 81 38" fill="none" xmlns="http://www.w3.org/2000/svg">
<rect width="81" height="38" rx="5" fill="black"/>
<path fill-rule="evenodd" clip-rule="evenodd" d="M35.3006 14L34.8484 16.2748H34.8531L33.975 20.589C33.8008 21.0866 33.8114 21.2289 33.48 21.5037C33.1284 21.7714 32.5031 21.7134 32.0815 21.7134L31.6604 23.9744C34.6747 24.156 35.661 23.3537 35.9406 22.1336L37.1724 16.2785L39.47 16.2753L37.9566 23.9531H40.3805L42.3589 14H35.3006Z" fill="white"/>
<path fill-rule="evenodd" clip-rule="evenodd" d="M20.9554 23.999H18.6183L19.5156 19.4707L16.2077 23.999H14.7473L13.2344 19.4712L12.3371 23.999H10L11.9815 14H14.321L16.2418 20.1428L20.5973 14H22.9369L20.9554 23.999Z" fill="white"/>
<path fill-rule="evenodd" clip-rule="evenodd" d="M44.1584 21.7057H48.0982C48.3175 21.7057 48.5191 21.6296 48.7021 21.4774C48.8847 21.3253 48.9982 21.1399 49.0418 20.9209C49.0854 20.7021 49.0457 20.5166 48.9231 20.3644C48.8005 20.2123 48.6296 20.1359 48.4098 20.1359L45.8111 20.1503L46.2135 17.8528H48.864C49.714 17.8528 50.3801 18.1525 50.8627 18.7518C51.3453 19.3511 51.5025 20.0742 51.3341 20.9209C51.1657 21.7676 50.7211 22.4905 50.0002 23.0898C49.2797 23.6892 48.494 23.9889 47.644 23.9889H41.4124L43.3978 14H51.9937L51.5396 16.2831H45.2362L44.1584 21.7057Z" fill="#FDBA01"/>
<path fill-rule="evenodd" clip-rule="evenodd" d="M59.9081 23.9888H51.3123L53.298 14H61.8934L61.4397 16.2831H55.1362L54.8241 17.8528H59.6952L59.2411 20.1359H54.3703L54.0582 21.7056H60.3618L59.9081 23.9888Z" fill="#FDBA01"/>
<path fill-rule="evenodd" clip-rule="evenodd" d="M71.5464 16.2831H68.0367L66.5047 23.9888H64.2128L65.7444 16.2831H62.2344L62.6881 14H72.0001L71.5464 16.2831Z" fill="#FDBA01"/>
<path fill-rule="evenodd" clip-rule="evenodd" d="M30.8533 23.999H22.0889L24.0703 14H32.8348L32.3818 16.2854H25.9546L25.6431 17.8566H30.6097L30.1569 20.1421H25.1903L24.879 21.7134H31.3062L30.8533 23.999Z" fill="white"/>
</svg>
