<svg width="81" height="38" viewBox="0 0 81 38" fill="none" xmlns="http://www.w3.org/2000/svg">
<rect width="81" height="38" rx="5" fill="#FD6B0D"/>
<path fill-rule="evenodd" clip-rule="evenodd" d="M16.7614 13.2494H58.8333C55.5002 17.0909 55.6426 20.9091 58.8333 24.7506H16.7614C15.3079 24.7472 13.9146 24.1757 12.8846 23.1604C11.8547 22.1451 11.2716 20.7682 11.2621 19.3294V18.6939C11.2668 17.2515 11.8476 15.8694 12.8779 14.8494C13.9082 13.8294 15.3043 13.2542 16.7614 13.2494ZM16.7614 12H65.1903C69.714 12 72.0234 15.5354 71.9998 19.0467C71.9762 22.5354 69.6659 26 65.1903 26H16.7614C14.9728 25.9984 13.2575 25.2959 11.9905 24.0461C10.7235 22.7963 10.0078 21.1009 10 19.3303V18.6939C10.0067 16.9208 10.7212 15.2221 11.9877 13.9682C13.2542 12.7143 14.9702 12.0068 16.7614 12Z" fill="white"/>
<path fill-rule="evenodd" clip-rule="evenodd" d="M58.8334 24.7506C55.6426 20.9091 55.5003 17.0909 58.8334 13.2494H16.7615C15.3043 13.2542 13.9082 13.8294 12.8779 14.8494C11.8477 15.8694 11.2668 17.2515 11.2622 18.6939V19.3303C11.2716 20.7691 11.8548 22.146 12.8847 23.1613C13.9146 24.1766 15.308 24.7481 16.7615 24.7515L58.8334 24.7506Z" fill="#2A2A2A"/>
<path d="M23.4521 22.276C23.4355 22.3489 23.4115 22.4199 23.3804 22.4879C23.3307 22.5457 23.2642 22.587 23.19 22.6063C23.0963 22.6353 23.0009 22.6587 22.9044 22.6764H21.9523C21.8478 22.6583 21.7443 22.6349 21.6422 22.6063C21.5809 22.5869 21.5297 22.5444 21.4999 22.4879C21.4518 22.4412 21.4518 22.3703 21.4282 22.276L20.2858 19.0233L19.214 22.276C19.1938 22.3478 19.1699 22.4185 19.1424 22.4879C19.0976 22.5401 19.0406 22.5807 18.9765 22.6063C18.8824 22.6353 18.7868 22.6587 18.69 22.6764H17.6907C17.5939 22.6587 17.4982 22.6353 17.4042 22.6063C17.34 22.5807 17.2831 22.5401 17.2383 22.4879C17.2072 22.4199 17.1832 22.3489 17.1666 22.276L15.5708 15.96C15.5407 15.8513 15.5171 15.7411 15.5001 15.6297C15.4992 15.5989 15.5051 15.5682 15.5173 15.5399C15.5295 15.5115 15.5478 15.4861 15.5708 15.4654C15.6 15.4398 15.634 15.4203 15.6709 15.4079C15.7078 15.3956 15.7469 15.3907 15.7857 15.3936C15.9273 15.3728 16.0706 15.3649 16.2137 15.3703H16.6426C16.715 15.381 16.7865 15.3969 16.8566 15.4178C16.9046 15.4412 16.9526 15.4645 16.9526 15.5121C16.9762 15.5354 16.9762 15.6063 16.9998 15.6764L18.2375 20.8615L19.5232 17.0675C19.5431 17.0033 19.5671 16.9404 19.5949 16.8791C19.6228 16.8353 19.6646 16.8018 19.7136 16.7839C19.7891 16.7524 19.8702 16.7365 19.9521 16.7373C20.0778 16.7153 20.2055 16.7075 20.3329 16.7139C20.476 16.7078 20.6194 16.7156 20.7609 16.7373C20.8426 16.7393 20.9233 16.7554 20.9994 16.7848C21.0487 16.8023 21.0907 16.8354 21.119 16.8791C21.1426 16.9257 21.1426 16.9966 21.1662 17.0675L22.5 20.8615H22.5236L23.7377 15.6997C23.7615 15.6475 23.7777 15.5922 23.7857 15.5354C23.8137 15.4916 23.8554 15.4582 23.9045 15.4403C23.9712 15.4085 24.0445 15.3925 24.1185 15.3936C24.2523 15.3709 24.3882 15.3631 24.5238 15.3703C24.6434 15.3636 24.7634 15.3715 24.881 15.3936C24.9197 15.3907 24.9585 15.3955 24.9953 15.4077C25.032 15.4199 25.0659 15.4392 25.095 15.4645C25.128 15.5219 25.1446 15.587 25.1431 15.653C25.1254 15.7567 25.1015 15.8591 25.0714 15.96L23.4521 22.276ZM27.8569 22.4645C27.8607 22.498 27.8523 22.5317 27.8333 22.5596C27.7967 22.5879 27.7565 22.6111 27.7137 22.6288C27.6429 22.653 27.5713 22.653 27.4761 22.6764H26.7616C26.6664 22.653 26.5956 22.653 26.524 22.6297C26.4811 22.6115 26.4408 22.5876 26.4043 22.5588C26.3855 22.5311 26.3772 22.4977 26.3808 22.4645V17.4679C26.3772 17.4347 26.3855 17.4013 26.4043 17.3736C26.4408 17.3448 26.4811 17.3209 26.524 17.3027C26.5948 17.2794 26.6664 17.2794 26.7616 17.256C26.8577 17.256 26.9756 17.2327 27.1188 17.2327C27.2621 17.2327 27.3809 17.256 27.4761 17.256C27.5713 17.2794 27.642 17.2794 27.7137 17.3027C27.7566 17.3209 27.7968 17.3448 27.8333 17.3736C27.8523 17.4015 27.8607 17.4353 27.8569 17.4687V22.4645ZM28.0002 15.7715C28.0095 15.8772 27.9974 15.9837 27.9647 16.0848C27.9321 16.1859 27.8794 16.2795 27.8097 16.3603C27.6024 16.4852 27.3608 16.5426 27.1188 16.5246C26.8845 16.5434 26.6504 16.4857 26.4524 16.3603C26.3808 16.2856 26.3266 16.1962 26.2937 16.0985C26.2608 16.0008 26.25 15.8971 26.262 15.7948C26.2525 15.6889 26.2645 15.5822 26.2972 15.481C26.3299 15.3797 26.3826 15.286 26.4524 15.2051C26.6547 15.0695 26.8999 15.0112 27.1424 15.0409C27.3778 15.01 27.6163 15.0687 27.8097 15.2051C27.8815 15.28 27.9357 15.3695 27.9686 15.4673C28.0015 15.5652 28.0123 15.669 28.0002 15.7715ZM34.6192 22.4645C34.6228 22.4981 34.6141 22.5318 34.5948 22.5596C34.5584 22.5878 34.5185 22.6111 34.476 22.6288C34.4043 22.653 34.3327 22.653 34.2375 22.6764H33.5239C33.4278 22.653 33.3571 22.653 33.2854 22.6297C33.2428 22.6114 33.2029 22.5875 33.1667 22.5588C33.1478 22.5311 33.1395 22.4977 33.1431 22.4645V19.6139C33.149 19.4228 33.1249 19.2321 33.0714 19.0484C33.0534 18.9205 33.0042 18.7988 32.9282 18.6939C32.863 18.5854 32.7622 18.5024 32.6426 18.4587C32.5232 18.4027 32.3937 18.3706 32.2618 18.3645C32.053 18.371 31.8522 18.4455 31.6905 18.5763C31.45 18.7249 31.2399 18.917 31.0712 19.1426V22.4654C31.075 22.4989 31.0667 22.5326 31.0476 22.5605C31.0111 22.5887 30.9708 22.612 30.928 22.6297C30.8572 22.6539 30.7856 22.6539 30.6904 22.6772H29.9759C29.8807 22.6539 29.81 22.6539 29.7383 22.6305C29.6954 22.6123 29.6552 22.5885 29.6187 22.5596C29.5998 22.5319 29.5915 22.4986 29.5951 22.4654V17.4687C29.5951 17.422 29.5951 17.3978 29.6187 17.3745C29.6423 17.3278 29.6667 17.3036 29.7147 17.3036C29.7823 17.2744 29.855 17.2586 29.9287 17.2569C30.0301 17.2343 30.1343 17.2265 30.238 17.2335C30.3416 17.2287 30.4455 17.2365 30.5472 17.2569C30.6133 17.2584 30.6783 17.2743 30.7376 17.3036C30.7856 17.3036 30.8092 17.3278 30.8336 17.3745C30.8572 17.3978 30.8572 17.422 30.8572 17.4696V18.0342C31.118 17.7644 31.4238 17.5413 31.7613 17.3745C32.0481 17.225 32.3665 17.1445 32.6906 17.1393C33.0026 17.1327 33.3119 17.1972 33.5947 17.3278C33.8337 17.4153 34.041 17.5712 34.1903 17.7757C34.3524 17.9753 34.4662 18.2089 34.5231 18.4587C34.5967 18.7594 34.629 19.0686 34.6192 19.3778V22.4645ZM37.7619 22.4645C37.7655 22.4981 37.7568 22.5318 37.7375 22.5596C37.7011 22.5878 37.6612 22.6111 37.6187 22.6288C37.5471 22.653 37.4763 22.653 37.3811 22.6764H36.6666C36.5942 22.6659 36.5227 22.6503 36.4526 22.6297C36.4004 22.6162 36.3516 22.592 36.3094 22.5588C36.2905 22.5311 36.2822 22.4977 36.2858 22.4645V15.4178C36.2819 15.3769 36.2901 15.3358 36.3094 15.2994C36.3517 15.2664 36.4005 15.2426 36.4526 15.2293C36.5227 15.2084 36.5942 15.1925 36.6666 15.1818C36.7618 15.1818 36.8806 15.1584 37.0238 15.1584C37.1671 15.1584 37.2859 15.1818 37.3811 15.1818C37.4763 15.2051 37.5471 15.2051 37.6187 15.2293C37.6612 15.2474 37.7012 15.2709 37.7375 15.2994C37.757 15.3357 37.7655 15.3768 37.7619 15.4178V22.4645ZM40.9046 22.4645C40.9084 22.498 40.9001 22.5317 40.881 22.5596C40.8386 22.5923 40.7899 22.6158 40.7378 22.6288C40.6677 22.6497 40.5962 22.6656 40.5238 22.6764H39.8093C39.729 22.6655 39.6493 22.6499 39.5709 22.6297C39.5282 22.6114 39.4883 22.5875 39.4521 22.5588C39.4272 22.5327 39.4107 22.4999 39.4049 22.4645V17.4679C39.4107 17.4325 39.4272 17.3996 39.4521 17.3736C39.4883 17.3448 39.5282 17.321 39.5709 17.3027C39.6493 17.2825 39.729 17.2669 39.8093 17.256C39.9045 17.256 40.0233 17.2327 40.1666 17.2327C40.3098 17.2327 40.4286 17.256 40.5238 17.256C40.5962 17.2665 40.6677 17.2821 40.7378 17.3027C40.79 17.3162 40.8388 17.3404 40.881 17.3736C40.9001 17.4015 40.9084 17.4353 40.9046 17.4687V22.4645ZM41.0234 15.7715C41.0384 15.8775 41.0291 15.9854 40.9961 16.0874C40.9631 16.1893 40.9074 16.2826 40.833 16.3603C40.635 16.4857 40.4009 16.5434 40.1666 16.5246C39.9249 16.5424 39.6836 16.485 39.4765 16.3603C39.4092 16.2835 39.3595 16.1932 39.3307 16.0956C39.3019 15.998 39.2948 15.8954 39.3097 15.7948C39.2946 15.6887 39.3038 15.5805 39.3368 15.4784C39.3698 15.3763 39.4256 15.2829 39.5001 15.2051C39.6933 15.069 39.9314 15.0103 40.1666 15.0409C40.4091 15.0112 40.6542 15.0695 40.8566 15.2051C40.924 15.2821 40.9738 15.3725 41.0026 15.4702C41.0314 15.568 41.0385 15.6707 41.0234 15.7715ZM47.4285 22.4645C47.4226 22.5003 47.4058 22.5335 47.3804 22.5596C47.348 22.5931 47.3069 22.617 47.2617 22.6288C47.1916 22.6497 47.1201 22.6656 47.0477 22.6764H46.3096C46.2369 22.666 46.1651 22.6504 46.0947 22.6297C46.0521 22.6114 46.0121 22.5875 45.9759 22.5588C45.951 22.5327 45.9346 22.4999 45.9288 22.4645V19.6139C45.9408 19.4241 45.9246 19.2335 45.8807 19.0484C45.8448 18.9222 45.7888 18.8026 45.7148 18.6939C45.6525 18.5919 45.5614 18.5101 45.4527 18.4587C45.3257 18.3999 45.1877 18.3678 45.0474 18.3645C44.8387 18.371 44.6379 18.4455 44.4762 18.5763C44.2485 18.7326 44.0474 18.9238 43.8805 19.1426V22.4654C43.8748 22.5011 43.8584 22.5342 43.8333 22.5605C43.8007 22.5941 43.7593 22.618 43.7137 22.6297C43.6436 22.6506 43.5721 22.6665 43.4997 22.6772H42.7852C42.7051 22.6663 42.6258 22.6507 42.5476 22.6305C42.505 22.6123 42.465 22.5884 42.4288 22.5596C42.4036 22.5337 42.3868 22.5009 42.3808 22.4654V17.4687C42.3812 17.4505 42.3857 17.4325 42.394 17.4162C42.4023 17.3999 42.4142 17.3857 42.4288 17.3745C42.4288 17.3278 42.476 17.3036 42.524 17.3036C42.5832 17.2743 42.6483 17.2583 42.7144 17.2569C42.8161 17.2365 42.92 17.2287 43.0236 17.2335C43.1273 17.2265 43.2315 17.2343 43.3328 17.2569C43.3998 17.2515 43.4666 17.2679 43.5233 17.3036C43.5479 17.303 43.5722 17.3094 43.5934 17.322C43.6146 17.3345 43.6317 17.3527 43.6429 17.3745C43.6429 17.3978 43.6665 17.422 43.6665 17.4696V18.0342C43.9192 17.7652 44.2175 17.5419 44.5478 17.3745C44.8439 17.2278 45.1689 17.1475 45.4999 17.1393C45.8121 17.1326 46.1218 17.1971 46.4048 17.3278C46.6399 17.4219 46.8453 17.5765 46.9996 17.7757C47.1528 17.9808 47.266 18.2125 47.3333 18.4587C47.3948 18.7613 47.4267 19.0691 47.4285 19.3778V22.4645ZM53.7611 19.8248C53.7656 19.9602 53.7237 20.093 53.6423 20.2018C53.5488 20.2786 53.4309 20.3202 53.3095 20.3194H50.0951C50.094 20.5181 50.1181 20.7163 50.1668 20.9091C50.2161 21.0701 50.3064 21.216 50.4288 21.3327C50.5565 21.4589 50.7107 21.5558 50.8804 21.6163C51.0863 21.6893 51.3048 21.7213 51.5233 21.7106C51.754 21.709 51.9845 21.6931 52.2133 21.663C52.4046 21.6163 52.5714 21.5688 52.7138 21.5454C52.857 21.4979 52.9758 21.4503 53.0719 21.4278C53.1456 21.3889 53.2263 21.3648 53.3095 21.3569C53.3566 21.3569 53.3802 21.3803 53.4047 21.3803C53.4283 21.4036 53.4519 21.4278 53.4519 21.4512C53.4754 21.4979 53.4754 21.5454 53.4999 21.5921V22.04C53.4999 22.0875 53.4754 22.1351 53.4754 22.1818C53.4754 22.2285 53.4519 22.2527 53.4519 22.276C53.434 22.3115 53.4097 22.3435 53.3802 22.3703C53.3187 22.42 53.2448 22.4526 53.1662 22.4645C53.026 22.5186 52.8832 22.5656 52.7382 22.6055C52.5349 22.6607 52.3276 22.7003 52.1181 22.7239C51.8734 22.7527 51.6273 22.7683 51.3809 22.7706C50.9698 22.7822 50.5596 22.7267 50.1668 22.6063C49.8354 22.5054 49.5333 22.3275 49.2855 22.0875C49.0311 21.8567 48.8423 21.564 48.7378 21.2385C48.6279 20.8392 48.5721 20.4272 48.5718 20.0133C48.5691 19.6052 48.6331 19.1994 48.7614 18.8115C48.8632 18.4766 49.0427 18.1698 49.2855 17.9157C49.519 17.6595 49.8136 17.4652 50.1423 17.3503C50.497 17.2053 50.8776 17.133 51.2612 17.1376C51.6508 17.1306 52.0383 17.1945 52.4046 17.3261C52.6963 17.437 52.9573 17.6148 53.1662 17.8448C53.3801 18.0629 53.5356 18.3304 53.6187 18.623C53.7162 18.9358 53.7645 19.2615 53.7619 19.5888L53.7611 19.8248ZM52.3094 19.4245C52.3422 19.0925 52.258 18.7595 52.0709 18.4821C51.9677 18.3665 51.8385 18.2764 51.6938 18.2191C51.5492 18.1617 51.3929 18.1387 51.2376 18.1518C51.066 18.1443 50.8949 18.1765 50.738 18.246C50.5992 18.3131 50.4769 18.4097 50.3799 18.5288C50.2765 18.6427 50.2033 18.7803 50.1668 18.9291C50.1162 19.0894 50.0921 19.2566 50.0951 19.4245H52.3094Z" fill="white"/>
<path d="M64.5992 24.7428C67.8018 24.7428 70.3981 22.1728 70.3981 19.0026C70.3981 15.8323 67.8018 13.2623 64.5992 13.2623C61.3965 13.2623 58.8003 15.8323 58.8003 19.0026C58.8003 22.1728 61.3965 24.7428 64.5992 24.7428Z" fill="#FD6B0D"/>
</svg>
